  0
SECTION
  2
HEADER
  9
$ANGBASE
  50
0.0
  9
$ANGDIR
  70
1
  9
$MEASUREMENT
  70
1
  0
ENDSEC
  0
SECTION
  2
TABLES
  0
TABLE
  2
LTYPE
  70
4
  0
LTYPE
  5
40F
  2
CONTINUOUS
  70
0
  3
Solid line
  72
65
  73
0
  40
0.0
  0
LTYPE
  5
410
  2
DASHDOT
 70
0
  3
Dash Dot ____ _ ____ _
 72
65
 73
4
 40
2.0
 49
1.25
 49
-0.25
 49
0.25
 49
-0.25
  0
LTYPE
  5
411
  2
DASHED
 70
0
  3
Dashed __ __ __ __ __
 72
65
 73
2
 40
0.75
 49
0.5
 49
-0.25
  0
LTYPE
  5
43B
  2
DOTTED
 70
0
  3
Dotted .  .  .  .
 72
65
 73
2
 40
0.2
 49
0.0
 49
-0.2
  0
ENDTAB
  0
TABLE
  2
STYLE
  70
4
  0
STYLE
  2
KICAD
  70
0
  40
0
  41
1
  42
1
  50
0
  71
0
  3
isocp.shx
  0
STYLE
  2
KICADB
  70
0
  40
0
  41
1
  42
1
  50
0
  71
0
  3
isocp.shx
  0
STYLE
  2
KICADI
  70
0
  40
0
  41
1
  42
1
  50
15
  71
0
  3
isocp.shx
  0
STYLE
  2
KICADBI
  70
0
  40
0
  41
1
  42
1
  50
15
  71
0
  3
isocp.shx
  0
ENDTAB
  0
TABLE
  2
LAYER
  70
1
  0
LAYER
  2
BLACK
  70
0
  62
7
  6
CONTINUOUS
  0
ENDTAB
  0
ENDSEC
  0
SECTION
  2
ENTITIES
0
LINE
8
BLACK
6
CONTINUOUS
10
179.578
20
-88.519
11
177.038
21
-85.979
0
LINE
8
BLACK
6
CONTINUOUS
10
177.038
20
-126.365
11
177.038
21
-123.825
0
LINE
8
BLACK
6
CONTINUOUS
10
177.038
20
-74.549
11
175.514
21
-73.025
0
LINE
8
BLACK
6
CONTINUOUS
10
177.038
20
-123.825
11
179.578
21
-121.285
0
LINE
8
BLACK
6
CONTINUOUS
10
110.998
20
-73.025
11
110.998
21
-126.365
0
LINE
8
BLACK
6
CONTINUOUS
10
179.578
20
-121.285
11
179.578
21
-88.519
0
LINE
8
BLACK
6
CONTINUOUS
10
110.998
20
-126.365
11
177.038
21
-126.365
0
LINE
8
BLACK
6
CONTINUOUS
10
175.514
20
-73.025
11
110.998
21
-73.025
0
LINE
8
BLACK
6
CONTINUOUS
10
177.038
20
-85.979
11
177.038
21
-74.549
0
LINE
8
BLACK
6
CONTINUOUS
10
120.758
20
-91.675
11
121.558
21
-92.475
0
LINE
8
BLACK
6
CONTINUOUS
10
121.558
20
-91.675
11
120.758
21
-92.475
0
LINE
8
BLACK
6
CONTINUOUS
10
120.758
20
-100.565
11
121.558
21
-101.365
0
LINE
8
BLACK
6
CONTINUOUS
10
121.558
20
-100.565
11
120.758
21
-101.365
0
LINE
8
BLACK
6
CONTINUOUS
10
120.758
20
-109.455
11
121.558
21
-110.255
0
LINE
8
BLACK
6
CONTINUOUS
10
121.558
20
-109.455
11
120.758
21
-110.255
0
LINE
8
BLACK
6
CONTINUOUS
10
130.918
20
-91.675
11
131.718
21
-92.475
0
LINE
8
BLACK
6
CONTINUOUS
10
131.718
20
-91.675
11
130.918
21
-92.475
0
LINE
8
BLACK
6
CONTINUOUS
10
130.918
20
-100.565
11
131.718
21
-101.365
0
LINE
8
BLACK
6
CONTINUOUS
10
131.718
20
-100.565
11
130.918
21
-101.365
0
LINE
8
BLACK
6
CONTINUOUS
10
130.918
20
-109.455
11
131.718
21
-110.255
0
LINE
8
BLACK
6
CONTINUOUS
10
131.718
20
-109.455
11
130.918
21
-110.255
0
LINE
8
BLACK
6
CONTINUOUS
10
133.458
20
-114.555
11
134.258
21
-115.355
0
LINE
8
BLACK
6
CONTINUOUS
10
134.258
20
-114.555
11
133.458
21
-115.355
0
LINE
8
BLACK
6
CONTINUOUS
10
133.458
20
-117.055
11
134.258
21
-117.855
0
LINE
8
BLACK
6
CONTINUOUS
10
134.258
20
-117.055
11
133.458
21
-117.855
0
LINE
8
BLACK
6
CONTINUOUS
10
137.278
20
-92.94
11
138.078
21
-93.74
0
LINE
8
BLACK
6
CONTINUOUS
10
138.078
20
-92.94
11
137.278
21
-93.74
0
LINE
8
BLACK
6
CONTINUOUS
10
137.278
20
-95.48
11
138.078
21
-96.28
0
LINE
8
BLACK
6
CONTINUOUS
10
138.078
20
-95.48
11
137.278
21
-96.28
0
LINE
8
BLACK
6
CONTINUOUS
10
137.278
20
-98.02
11
138.078
21
-98.82
0
LINE
8
BLACK
6
CONTINUOUS
10
138.078
20
-98.02
11
137.278
21
-98.82
0
LINE
8
BLACK
6
CONTINUOUS
10
137.278
20
-100.56
11
138.078
21
-101.36
0
LINE
8
BLACK
6
CONTINUOUS
10
138.078
20
-100.56
11
137.278
21
-101.36
0
LINE
8
BLACK
6
CONTINUOUS
10
137.278
20
-103.1
11
138.078
21
-103.9
0
LINE
8
BLACK
6
CONTINUOUS
10
138.078
20
-103.1
11
137.278
21
-103.9
0
LINE
8
BLACK
6
CONTINUOUS
10
137.278
20
-105.64
11
138.078
21
-106.44
0
LINE
8
BLACK
6
CONTINUOUS
10
138.078
20
-105.64
11
137.278
21
-106.44
0
LINE
8
BLACK
6
CONTINUOUS
10
137.278
20
-108.18
11
138.078
21
-108.98
0
LINE
8
BLACK
6
CONTINUOUS
10
138.078
20
-108.18
11
137.278
21
-108.98
0
LINE
8
BLACK
6
CONTINUOUS
10
141.078
20
-83.44
11
141.878
21
-84.24
0
LINE
8
BLACK
6
CONTINUOUS
10
141.878
20
-83.44
11
141.078
21
-84.24
0
LINE
8
BLACK
6
CONTINUOUS
10
141.078
20
-85.94
11
141.878
21
-86.74
0
LINE
8
BLACK
6
CONTINUOUS
10
141.878
20
-85.94
11
141.078
21
-86.74
0
LINE
8
BLACK
6
CONTINUOUS
10
141.713
20
-114.555
11
142.513
21
-115.355
0
LINE
8
BLACK
6
CONTINUOUS
10
142.513
20
-114.555
11
141.713
21
-115.355
0
LINE
8
BLACK
6
CONTINUOUS
10
141.713
20
-117.055
11
142.513
21
-117.855
0
LINE
8
BLACK
6
CONTINUOUS
10
142.513
20
-117.055
11
141.713
21
-117.855
0
LINE
8
BLACK
6
CONTINUOUS
10
144.898
20
-92.94
11
145.698
21
-93.74
0
LINE
8
BLACK
6
CONTINUOUS
10
145.698
20
-92.94
11
144.898
21
-93.74
0
LINE
8
BLACK
6
CONTINUOUS
10
144.898
20
-95.48
11
145.698
21
-96.28
0
LINE
8
BLACK
6
CONTINUOUS
10
145.698
20
-95.48
11
144.898
21
-96.28
0
LINE
8
BLACK
6
CONTINUOUS
10
144.898
20
-98.02
11
145.698
21
-98.82
0
LINE
8
BLACK
6
CONTINUOUS
10
145.698
20
-98.02
11
144.898
21
-98.82
0
LINE
8
BLACK
6
CONTINUOUS
10
144.898
20
-100.56
11
145.698
21
-101.36
0
LINE
8
BLACK
6
CONTINUOUS
10
145.698
20
-100.56
11
144.898
21
-101.36
0
LINE
8
BLACK
6
CONTINUOUS
10
144.898
20
-103.1
11
145.698
21
-103.9
0
LINE
8
BLACK
6
CONTINUOUS
10
145.698
20
-103.1
11
144.898
21
-103.9
0
LINE
8
BLACK
6
CONTINUOUS
10
144.898
20
-105.64
11
145.698
21
-106.44
0
LINE
8
BLACK
6
CONTINUOUS
10
145.698
20
-105.64
11
144.898
21
-106.44
0
LINE
8
BLACK
6
CONTINUOUS
10
144.898
20
-108.18
11
145.698
21
-108.98
0
LINE
8
BLACK
6
CONTINUOUS
10
145.698
20
-108.18
11
144.898
21
-108.98
0
LINE
8
BLACK
6
CONTINUOUS
10
149.333
20
-83.44
11
150.133
21
-84.24
0
LINE
8
BLACK
6
CONTINUOUS
10
150.133
20
-83.44
11
149.333
21
-84.24
0
LINE
8
BLACK
6
CONTINUOUS
10
149.333
20
-85.94
11
150.133
21
-86.74
0
LINE
8
BLACK
6
CONTINUOUS
10
150.133
20
-85.94
11
149.333
21
-86.74
0
LINE
8
BLACK
6
CONTINUOUS
10
151.238
20
-114.575
11
152.038
21
-115.375
0
LINE
8
BLACK
6
CONTINUOUS
10
152.038
20
-114.575
11
151.238
21
-115.375
0
LINE
8
BLACK
6
CONTINUOUS
10
151.238
20
-117.075
11
152.038
21
-117.875
0
LINE
8
BLACK
6
CONTINUOUS
10
152.038
20
-117.075
11
151.238
21
-117.875
0
LINE
8
BLACK
6
CONTINUOUS
10
155.058
20
-92.945
11
155.858
21
-93.745
0
LINE
8
BLACK
6
CONTINUOUS
10
155.858
20
-92.945
11
155.058
21
-93.745
0
LINE
8
BLACK
6
CONTINUOUS
10
155.058
20
-95.485
11
155.858
21
-96.285
0
LINE
8
BLACK
6
CONTINUOUS
10
155.858
20
-95.485
11
155.058
21
-96.285
0
LINE
8
BLACK
6
CONTINUOUS
10
155.058
20
-98.025
11
155.858
21
-98.825
0
LINE
8
BLACK
6
CONTINUOUS
10
155.858
20
-98.025
11
155.058
21
-98.825
0
LINE
8
BLACK
6
CONTINUOUS
10
155.058
20
-100.565
11
155.858
21
-101.365
0
LINE
8
BLACK
6
CONTINUOUS
10
155.858
20
-100.565
11
155.058
21
-101.365
0
LINE
8
BLACK
6
CONTINUOUS
10
155.058
20
-103.105
11
155.858
21
-103.905
0
LINE
8
BLACK
6
CONTINUOUS
10
155.858
20
-103.105
11
155.058
21
-103.905
0
LINE
8
BLACK
6
CONTINUOUS
10
155.058
20
-105.645
11
155.858
21
-106.445
0
LINE
8
BLACK
6
CONTINUOUS
10
155.858
20
-105.645
11
155.058
21
-106.445
0
LINE
8
BLACK
6
CONTINUOUS
10
155.058
20
-108.185
11
155.858
21
-108.985
0
LINE
8
BLACK
6
CONTINUOUS
10
155.858
20
-108.185
11
155.058
21
-108.985
0
LINE
8
BLACK
6
CONTINUOUS
10
159.493
20
-114.555
11
160.293
21
-115.355
0
LINE
8
BLACK
6
CONTINUOUS
10
160.293
20
-114.555
11
159.493
21
-115.355
0
LINE
8
BLACK
6
CONTINUOUS
10
159.493
20
-117.055
11
160.293
21
-117.855
0
LINE
8
BLACK
6
CONTINUOUS
10
160.293
20
-117.055
11
159.493
21
-117.855
0
LINE
8
BLACK
6
CONTINUOUS
10
162.678
20
-92.945
11
163.478
21
-93.745
0
LINE
8
BLACK
6
CONTINUOUS
10
163.478
20
-92.945
11
162.678
21
-93.745
0
LINE
8
BLACK
6
CONTINUOUS
10
162.678
20
-95.485
11
163.478
21
-96.285
0
LINE
8
BLACK
6
CONTINUOUS
10
163.478
20
-95.485
11
162.678
21
-96.285
0
LINE
8
BLACK
6
CONTINUOUS
10
162.678
20
-98.025
11
163.478
21
-98.825
0
LINE
8
BLACK
6
CONTINUOUS
10
163.478
20
-98.025
11
162.678
21
-98.825
0
LINE
8
BLACK
6
CONTINUOUS
10
162.678
20
-100.565
11
163.478
21
-101.365
0
LINE
8
BLACK
6
CONTINUOUS
10
163.478
20
-100.565
11
162.678
21
-101.365
0
LINE
8
BLACK
6
CONTINUOUS
10
162.678
20
-103.105
11
163.478
21
-103.905
0
LINE
8
BLACK
6
CONTINUOUS
10
163.478
20
-103.105
11
162.678
21
-103.905
0
LINE
8
BLACK
6
CONTINUOUS
10
162.678
20
-105.645
11
163.478
21
-106.445
0
LINE
8
BLACK
6
CONTINUOUS
10
163.478
20
-105.645
11
162.678
21
-106.445
0
LINE
8
BLACK
6
CONTINUOUS
10
162.678
20
-108.185
11
163.478
21
-108.985
0
LINE
8
BLACK
6
CONTINUOUS
10
163.478
20
-108.185
11
162.678
21
-108.985
0
LINE
8
BLACK
6
CONTINUOUS
10
166.478
20
-106.915
11
167.278
21
-107.715
0
LINE
8
BLACK
6
CONTINUOUS
10
167.278
20
-106.915
11
166.478
21
-107.715
0
LINE
8
BLACK
6
CONTINUOUS
10
166.478
20
-117.075
11
167.278
21
-117.875
0
LINE
8
BLACK
6
CONTINUOUS
10
167.278
20
-117.075
11
166.478
21
-117.875
0
LINE
8
BLACK
6
CONTINUOUS
10
169.018
20
-99.295
11
169.818
21
-100.095
0
LINE
8
BLACK
6
CONTINUOUS
10
169.818
20
-99.295
11
169.018
21
-100.095
0
LINE
8
BLACK
6
CONTINUOUS
10
169.018
20
-101.795
11
169.818
21
-102.595
0
LINE
8
BLACK
6
CONTINUOUS
10
169.818
20
-101.795
11
169.018
21
-102.595
0
LINE
8
BLACK
6
CONTINUOUS
10
170.288
20
-83.44
11
171.088
21
-84.24
0
LINE
8
BLACK
6
CONTINUOUS
10
171.088
20
-83.44
11
170.288
21
-84.24
0
LINE
8
BLACK
6
CONTINUOUS
10
170.288
20
-85.94
11
171.088
21
-86.74
0
LINE
8
BLACK
6
CONTINUOUS
10
171.088
20
-85.94
11
170.288
21
-86.74
0
LINE
8
BLACK
6
CONTINUOUS
10
170.288
20
-106.915
11
171.088
21
-107.715
0
LINE
8
BLACK
6
CONTINUOUS
10
171.088
20
-106.915
11
170.288
21
-107.715
0
LINE
8
BLACK
6
CONTINUOUS
10
170.288
20
-117.075
11
171.088
21
-117.875
0
LINE
8
BLACK
6
CONTINUOUS
10
171.088
20
-117.075
11
170.288
21
-117.875
0
CIRCLE
8
BLACK
10
114.808
20
-92.075
40
0.45
0
CIRCLE
8
BLACK
10
114.808
20
-100.965
40
0.45
0
CIRCLE
8
BLACK
10
114.808
20
-109.855
40
0.45
0
CIRCLE
8
BLACK
10
117.348
20
-92.075
40
0.45
0
CIRCLE
8
BLACK
10
117.348
20
-100.965
40
0.45
0
CIRCLE
8
BLACK
10
117.348
20
-109.855
40
0.45
0
LINE
8
BLACK
6
CONTINUOUS
10
126.318
20
-82.71
11
126.318
21
-83.66
0
LINE
8
BLACK
6
CONTINUOUS
10
125.843
20
-83.185
11
126.793
21
-83.185
0
LINE
8
BLACK
6
CONTINUOUS
10
128.818
20
-82.71
11
128.818
21
-83.66
0
LINE
8
BLACK
6
CONTINUOUS
10
128.343
20
-83.185
11
129.293
21
-83.185
0
LINE
8
BLACK
6
CONTINUOUS
10
131.318
20
-82.71
11
131.318
21
-83.66
0
LINE
8
BLACK
6
CONTINUOUS
10
130.843
20
-83.185
11
131.793
21
-83.185
0
LINE
8
BLACK
6
CONTINUOUS
10
176.293
20
-96.74
11
176.293
21
-97.69
0
LINE
8
BLACK
6
CONTINUOUS
10
175.818
20
-97.215
11
176.768
21
-97.215
0
LINE
8
BLACK
6
CONTINUOUS
10
176.293
20
-99.24
11
176.293
21
-100.19
0
LINE
8
BLACK
6
CONTINUOUS
10
175.818
20
-99.715
11
176.768
21
-99.715
0
LINE
8
BLACK
6
CONTINUOUS
10
176.293
20
-101.74
11
176.293
21
-102.69
0
LINE
8
BLACK
6
CONTINUOUS
10
175.818
20
-102.215
11
176.768
21
-102.215
0
LINE
8
BLACK
6
CONTINUOUS
10
176.293
20
-104.24
11
176.293
21
-105.19
0
LINE
8
BLACK
6
CONTINUOUS
10
175.818
20
-104.715
11
176.768
21
-104.715
0
LINE
8
BLACK
6
CONTINUOUS
10
129.767
20
-120.369
11
129.767
21
-119.661
0
LINE
8
BLACK
6
CONTINUOUS
10
129.767
20
-119.661
11
129.059
21
-119.661
0
LINE
8
BLACK
6
CONTINUOUS
10
129.059
20
-119.661
11
129.059
21
-120.369
0
LINE
8
BLACK
6
CONTINUOUS
10
129.059
20
-120.369
11
129.767
21
-120.369
0
LINE
8
BLACK
6
CONTINUOUS
10
145.642
20
-112.114
11
145.642
21
-111.406
0
LINE
8
BLACK
6
CONTINUOUS
10
145.642
20
-111.406
11
144.934
21
-111.406
0
LINE
8
BLACK
6
CONTINUOUS
10
144.934
20
-111.406
11
144.934
21
-112.114
0
LINE
8
BLACK
6
CONTINUOUS
10
144.934
20
-112.114
11
145.642
21
-112.114
0
LINE
8
BLACK
6
CONTINUOUS
10
149.452
20
-121.004
11
149.452
21
-120.296
0
LINE
8
BLACK
6
CONTINUOUS
10
149.452
20
-120.296
11
148.744
21
-120.296
0
LINE
8
BLACK
6
CONTINUOUS
10
148.744
20
-120.296
11
148.744
21
-121.004
0
LINE
8
BLACK
6
CONTINUOUS
10
148.744
20
-121.004
11
149.452
21
-121.004
0
LINE
8
BLACK
6
CONTINUOUS
10
151.992
20
-89.8886
11
151.992
21
-89.1814
0
LINE
8
BLACK
6
CONTINUOUS
10
151.992
20
-89.1814
11
151.284
21
-89.1814
0
LINE
8
BLACK
6
CONTINUOUS
10
151.284
20
-89.1814
11
151.284
21
-89.8886
0
LINE
8
BLACK
6
CONTINUOUS
10
151.284
20
-89.8886
11
151.992
21
-89.8886
0
LINE
8
BLACK
6
CONTINUOUS
10
151.992
20
-112.749
11
151.992
21
-112.041
0
LINE
8
BLACK
6
CONTINUOUS
10
151.992
20
-112.041
11
151.284
21
-112.041
0
LINE
8
BLACK
6
CONTINUOUS
10
151.284
20
-112.041
11
151.284
21
-112.749
0
LINE
8
BLACK
6
CONTINUOUS
10
151.284
20
-112.749
11
151.992
21
-112.749
0
LINE
8
BLACK
6
CONTINUOUS
10
153.897
20
-84.1736
11
153.897
21
-83.4664
0
LINE
8
BLACK
6
CONTINUOUS
10
153.897
20
-83.4664
11
153.189
21
-83.4664
0
LINE
8
BLACK
6
CONTINUOUS
10
153.189
20
-83.4664
11
153.189
21
-84.1736
0
LINE
8
BLACK
6
CONTINUOUS
10
153.189
20
-84.1736
11
153.897
21
-84.1736
0
LINE
8
BLACK
6
CONTINUOUS
10
159.612
20
-84.1736
11
159.612
21
-83.4664
0
LINE
8
BLACK
6
CONTINUOUS
10
159.612
20
-83.4664
11
158.904
21
-83.4664
0
LINE
8
BLACK
6
CONTINUOUS
10
158.904
20
-83.4664
11
158.904
21
-84.1736
0
LINE
8
BLACK
6
CONTINUOUS
10
158.904
20
-84.1736
11
159.612
21
-84.1736
0
LINE
8
BLACK
6
CONTINUOUS
10
165.327
20
-86.7136
11
165.327
21
-86.0064
0
LINE
8
BLACK
6
CONTINUOUS
10
165.327
20
-86.0064
11
164.619
21
-86.0064
0
LINE
8
BLACK
6
CONTINUOUS
10
164.619
20
-86.0064
11
164.619
21
-86.7136
0
LINE
8
BLACK
6
CONTINUOUS
10
164.619
20
-86.7136
11
165.327
21
-86.7136
0
LINE
8
BLACK
6
CONTINUOUS
10
159.273
20
-81.145
11
159.773
21
-80.645
0
LINE
8
BLACK
6
CONTINUOUS
10
159.773
20
-80.645
11
159.273
21
-80.145
0
LINE
8
BLACK
6
CONTINUOUS
10
159.273
20
-80.145
11
158.773
21
-80.645
0
LINE
8
BLACK
6
CONTINUOUS
10
158.773
20
-80.645
11
159.273
21
-81.145
0
LINE
8
BLACK
6
CONTINUOUS
10
161.813
20
-81.145
11
162.313
21
-80.645
0
LINE
8
BLACK
6
CONTINUOUS
10
162.313
20
-80.645
11
161.813
21
-80.145
0
LINE
8
BLACK
6
CONTINUOUS
10
161.813
20
-80.145
11
161.313
21
-80.645
0
LINE
8
BLACK
6
CONTINUOUS
10
161.313
20
-80.645
11
161.813
21
-81.145
0
LINE
8
BLACK
6
CONTINUOUS
10
164.353
20
-81.145
11
164.853
21
-80.645
0
LINE
8
BLACK
6
CONTINUOUS
10
164.853
20
-80.645
11
164.353
21
-80.145
0
LINE
8
BLACK
6
CONTINUOUS
10
164.353
20
-80.145
11
163.853
21
-80.645
0
LINE
8
BLACK
6
CONTINUOUS
10
163.853
20
-80.645
11
164.353
21
-81.145
0
LINE
8
BLACK
6
CONTINUOUS
10
129.286
20
-75.057
11
130.302
21
-76.073
0
LINE
8
BLACK
6
CONTINUOUS
10
130.302
20
-75.057
11
129.286
21
-76.073
0
CIRCLE
8
BLACK
10
129.794
20
-75.565
40
0.508
0
LINE
8
BLACK
6
CONTINUOUS
10
131.826
20
-75.057
11
132.842
21
-76.073
0
LINE
8
BLACK
6
CONTINUOUS
10
132.842
20
-75.057
11
131.826
21
-76.073
0
CIRCLE
8
BLACK
10
132.334
20
-75.565
40
0.508
0
LINE
8
BLACK
6
CONTINUOUS
10
134.366
20
-75.057
11
135.382
21
-76.073
0
LINE
8
BLACK
6
CONTINUOUS
10
135.382
20
-75.057
11
134.366
21
-76.073
0
CIRCLE
8
BLACK
10
134.874
20
-75.565
40
0.508
0
LINE
8
BLACK
6
CONTINUOUS
10
136.906
20
-75.057
11
137.922
21
-76.073
0
LINE
8
BLACK
6
CONTINUOUS
10
137.922
20
-75.057
11
136.906
21
-76.073
0
CIRCLE
8
BLACK
10
137.414
20
-75.565
40
0.508
0
LINE
8
BLACK
6
CONTINUOUS
10
138.43
20
-123.317
11
139.446
21
-124.333
0
LINE
8
BLACK
6
CONTINUOUS
10
139.446
20
-123.317
11
138.43
21
-124.333
0
CIRCLE
8
BLACK
10
138.938
20
-123.825
40
0.508
0
LINE
8
BLACK
6
CONTINUOUS
10
139.446
20
-75.057
11
140.462
21
-76.073
0
LINE
8
BLACK
6
CONTINUOUS
10
140.462
20
-75.057
11
139.446
21
-76.073
0
CIRCLE
8
BLACK
10
139.954
20
-75.565
40
0.508
0
LINE
8
BLACK
6
CONTINUOUS
10
140.97
20
-123.317
11
141.986
21
-124.333
0
LINE
8
BLACK
6
CONTINUOUS
10
141.986
20
-123.317
11
140.97
21
-124.333
0
CIRCLE
8
BLACK
10
141.478
20
-123.825
40
0.508
0
LINE
8
BLACK
6
CONTINUOUS
10
141.986
20
-75.057
11
143.002
21
-76.073
0
LINE
8
BLACK
6
CONTINUOUS
10
143.002
20
-75.057
11
141.986
21
-76.073
0
CIRCLE
8
BLACK
10
142.494
20
-75.565
40
0.508
0
LINE
8
BLACK
6
CONTINUOUS
10
143.51
20
-123.317
11
144.526
21
-124.333
0
LINE
8
BLACK
6
CONTINUOUS
10
144.526
20
-123.317
11
143.51
21
-124.333
0
CIRCLE
8
BLACK
10
144.018
20
-123.825
40
0.508
0
LINE
8
BLACK
6
CONTINUOUS
10
144.526
20
-75.057
11
145.542
21
-76.073
0
LINE
8
BLACK
6
CONTINUOUS
10
145.542
20
-75.057
11
144.526
21
-76.073
0
CIRCLE
8
BLACK
10
145.034
20
-75.565
40
0.508
0
LINE
8
BLACK
6
CONTINUOUS
10
146.05
20
-123.317
11
147.066
21
-124.333
0
LINE
8
BLACK
6
CONTINUOUS
10
147.066
20
-123.317
11
146.05
21
-124.333
0
CIRCLE
8
BLACK
10
146.558
20
-123.825
40
0.508
0
LINE
8
BLACK
6
CONTINUOUS
10
147.066
20
-75.057
11
148.082
21
-76.073
0
LINE
8
BLACK
6
CONTINUOUS
10
148.082
20
-75.057
11
147.066
21
-76.073
0
CIRCLE
8
BLACK
10
147.574
20
-75.565
40
0.508
0
LINE
8
BLACK
6
CONTINUOUS
10
148.59
20
-123.317
11
149.606
21
-124.333
0
LINE
8
BLACK
6
CONTINUOUS
10
149.606
20
-123.317
11
148.59
21
-124.333
0
CIRCLE
8
BLACK
10
149.098
20
-123.825
40
0.508
0
LINE
8
BLACK
6
CONTINUOUS
10
149.606
20
-75.057
11
150.622
21
-76.073
0
LINE
8
BLACK
6
CONTINUOUS
10
150.622
20
-75.057
11
149.606
21
-76.073
0
CIRCLE
8
BLACK
10
150.114
20
-75.565
40
0.508
0
LINE
8
BLACK
6
CONTINUOUS
10
151.13
20
-123.317
11
152.146
21
-124.333
0
LINE
8
BLACK
6
CONTINUOUS
10
152.146
20
-123.317
11
151.13
21
-124.333
0
CIRCLE
8
BLACK
10
151.638
20
-123.825
40
0.508
0
LINE
8
BLACK
6
CONTINUOUS
10
152.146
20
-75.057
11
153.162
21
-76.073
0
LINE
8
BLACK
6
CONTINUOUS
10
153.162
20
-75.057
11
152.146
21
-76.073
0
CIRCLE
8
BLACK
10
152.654
20
-75.565
40
0.508
0
LINE
8
BLACK
6
CONTINUOUS
10
153.67
20
-123.317
11
154.686
21
-124.333
0
LINE
8
BLACK
6
CONTINUOUS
10
154.686
20
-123.317
11
153.67
21
-124.333
0
CIRCLE
8
BLACK
10
154.178
20
-123.825
40
0.508
0
LINE
8
BLACK
6
CONTINUOUS
10
156.21
20
-75.057
11
157.226
21
-76.073
0
LINE
8
BLACK
6
CONTINUOUS
10
157.226
20
-75.057
11
156.21
21
-76.073
0
CIRCLE
8
BLACK
10
156.718
20
-75.565
40
0.508
0
LINE
8
BLACK
6
CONTINUOUS
10
156.21
20
-123.317
11
157.226
21
-124.333
0
LINE
8
BLACK
6
CONTINUOUS
10
157.226
20
-123.317
11
156.21
21
-124.333
0
CIRCLE
8
BLACK
10
156.718
20
-123.825
40
0.508
0
LINE
8
BLACK
6
CONTINUOUS
10
158.75
20
-75.057
11
159.766
21
-76.073
0
LINE
8
BLACK
6
CONTINUOUS
10
159.766
20
-75.057
11
158.75
21
-76.073
0
CIRCLE
8
BLACK
10
159.258
20
-75.565
40
0.508
0
LINE
8
BLACK
6
CONTINUOUS
10
161.29
20
-75.057
11
162.306
21
-76.073
0
LINE
8
BLACK
6
CONTINUOUS
10
162.306
20
-75.057
11
161.29
21
-76.073
0
CIRCLE
8
BLACK
10
161.798
20
-75.565
40
0.508
0
LINE
8
BLACK
6
CONTINUOUS
10
161.29
20
-123.317
11
162.306
21
-124.333
0
LINE
8
BLACK
6
CONTINUOUS
10
162.306
20
-123.317
11
161.29
21
-124.333
0
CIRCLE
8
BLACK
10
161.798
20
-123.825
40
0.508
0
LINE
8
BLACK
6
CONTINUOUS
10
163.83
20
-75.057
11
164.846
21
-76.073
0
LINE
8
BLACK
6
CONTINUOUS
10
164.846
20
-75.057
11
163.83
21
-76.073
0
CIRCLE
8
BLACK
10
164.338
20
-75.565
40
0.508
0
LINE
8
BLACK
6
CONTINUOUS
10
163.83
20
-123.317
11
164.846
21
-124.333
0
LINE
8
BLACK
6
CONTINUOUS
10
164.846
20
-123.317
11
163.83
21
-124.333
0
CIRCLE
8
BLACK
10
164.338
20
-123.825
40
0.508
0
LINE
8
BLACK
6
CONTINUOUS
10
166.37
20
-75.057
11
167.386
21
-76.073
0
LINE
8
BLACK
6
CONTINUOUS
10
167.386
20
-75.057
11
166.37
21
-76.073
0
CIRCLE
8
BLACK
10
166.878
20
-75.565
40
0.508
0
LINE
8
BLACK
6
CONTINUOUS
10
166.37
20
-123.317
11
167.386
21
-124.333
0
LINE
8
BLACK
6
CONTINUOUS
10
167.386
20
-123.317
11
166.37
21
-124.333
0
CIRCLE
8
BLACK
10
166.878
20
-123.825
40
0.508
0
LINE
8
BLACK
6
CONTINUOUS
10
168.91
20
-75.057
11
169.926
21
-76.073
0
LINE
8
BLACK
6
CONTINUOUS
10
169.926
20
-75.057
11
168.91
21
-76.073
0
CIRCLE
8
BLACK
10
169.418
20
-75.565
40
0.508
0
LINE
8
BLACK
6
CONTINUOUS
10
168.91
20
-123.317
11
169.926
21
-124.333
0
LINE
8
BLACK
6
CONTINUOUS
10
169.926
20
-123.317
11
168.91
21
-124.333
0
CIRCLE
8
BLACK
10
169.418
20
-123.825
40
0.508
0
LINE
8
BLACK
6
CONTINUOUS
10
171.45
20
-75.057
11
172.466
21
-76.073
0
LINE
8
BLACK
6
CONTINUOUS
10
172.466
20
-75.057
11
171.45
21
-76.073
0
CIRCLE
8
BLACK
10
171.958
20
-75.565
40
0.508
0
LINE
8
BLACK
6
CONTINUOUS
10
171.45
20
-123.317
11
172.466
21
-124.333
0
LINE
8
BLACK
6
CONTINUOUS
10
172.466
20
-123.317
11
171.45
21
-124.333
0
CIRCLE
8
BLACK
10
171.958
20
-123.825
40
0.508
0
LINE
8
BLACK
6
CONTINUOUS
10
173.99
20
-75.057
11
175.006
21
-76.073
0
LINE
8
BLACK
6
CONTINUOUS
10
175.006
20
-75.057
11
173.99
21
-76.073
0
CIRCLE
8
BLACK
10
174.498
20
-75.565
40
0.508
0
LINE
8
BLACK
6
CONTINUOUS
10
173.99
20
-123.317
11
175.006
21
-124.333
0
LINE
8
BLACK
6
CONTINUOUS
10
175.006
20
-123.317
11
173.99
21
-124.333
0
CIRCLE
8
BLACK
10
174.498
20
-123.825
40
0.508
0
LINE
8
BLACK
6
CONTINUOUS
10
115.428
20
-116.905
11
116.728
21
-118.205
0
LINE
8
BLACK
6
CONTINUOUS
10
116.728
20
-116.905
11
115.428
21
-118.205
0
LINE
8
BLACK
6
CONTINUOUS
10
116.078
20
-116.905
11
116.078
21
-118.205
0
LINE
8
BLACK
6
CONTINUOUS
10
115.428
20
-117.555
11
116.728
21
-117.555
0
LINE
8
BLACK
6
CONTINUOUS
10
115.428
20
-121.905
11
116.728
21
-123.205
0
LINE
8
BLACK
6
CONTINUOUS
10
116.728
20
-121.905
11
115.428
21
-123.205
0
LINE
8
BLACK
6
CONTINUOUS
10
116.078
20
-121.905
11
116.078
21
-123.205
0
LINE
8
BLACK
6
CONTINUOUS
10
115.428
20
-122.555
11
116.728
21
-122.555
0
LINE
8
BLACK
6
CONTINUOUS
10
115.583
20
-76.225
11
116.883
21
-77.525
0
LINE
8
BLACK
6
CONTINUOUS
10
116.883
20
-76.225
11
115.583
21
-77.525
0
LINE
8
BLACK
6
CONTINUOUS
10
116.233
20
-76.225
11
116.233
21
-77.525
0
LINE
8
BLACK
6
CONTINUOUS
10
115.583
20
-76.875
11
116.883
21
-76.875
0
LINE
8
BLACK
6
CONTINUOUS
10
115.583
20
-81.225
11
116.883
21
-82.525
0
LINE
8
BLACK
6
CONTINUOUS
10
116.883
20
-81.225
11
115.583
21
-82.525
0
LINE
8
BLACK
6
CONTINUOUS
10
116.233
20
-81.225
11
116.233
21
-82.525
0
LINE
8
BLACK
6
CONTINUOUS
10
115.583
20
-81.875
11
116.883
21
-81.875
0
LINE
8
BLACK
6
CONTINUOUS
10
123.444
20
-122.301
11
126.492
21
-125.349
0
LINE
8
BLACK
6
CONTINUOUS
10
126.492
20
-122.301
11
123.444
21
-125.349
0
LINE
8
BLACK
6
CONTINUOUS
10
126.046
20
-124.903
11
126.046
21
-122.747
0
LINE
8
BLACK
6
CONTINUOUS
10
126.046
20
-122.747
11
123.89
21
-122.747
0
LINE
8
BLACK
6
CONTINUOUS
10
123.89
20
-122.747
11
123.89
21
-124.903
0
LINE
8
BLACK
6
CONTINUOUS
10
123.89
20
-124.903
11
126.046
21
-124.903
0
LINE
8
BLACK
6
CONTINUOUS
10
124.714
20
-74.041
11
127.762
21
-77.089
0
LINE
8
BLACK
6
CONTINUOUS
10
127.762
20
-74.041
11
124.714
21
-77.089
0
LINE
8
BLACK
6
CONTINUOUS
10
127.316
20
-76.6426
11
127.316
21
-74.4874
0
LINE
8
BLACK
6
CONTINUOUS
10
127.316
20
-74.4874
11
125.16
21
-74.4874
0
LINE
8
BLACK
6
CONTINUOUS
10
125.16
20
-74.4874
11
125.16
21
-76.6426
0
LINE
8
BLACK
6
CONTINUOUS
10
125.16
20
-76.6426
11
127.316
21
-76.6426
0
LINE
8
BLACK
6
CONTINUOUS
10
175.514
20
-89.281
11
178.562
21
-92.329
0
LINE
8
BLACK
6
CONTINUOUS
10
178.562
20
-89.281
11
175.514
21
-92.329
0
LINE
8
BLACK
6
CONTINUOUS
10
178.116
20
-91.8826
11
178.116
21
-89.7274
0
LINE
8
BLACK
6
CONTINUOUS
10
178.116
20
-89.7274
11
175.96
21
-89.7274
0
LINE
8
BLACK
6
CONTINUOUS
10
175.96
20
-89.7274
11
175.96
21
-91.8826
0
LINE
8
BLACK
6
CONTINUOUS
10
175.96
20
-91.8826
11
178.116
21
-91.8826
0
LINE
8
BLACK
6
CONTINUOUS
10
175.514
20
-117.221
11
178.562
21
-120.269
0
LINE
8
BLACK
6
CONTINUOUS
10
178.562
20
-117.221
11
175.514
21
-120.269
0
LINE
8
BLACK
6
CONTINUOUS
10
178.116
20
-119.823
11
178.116
21
-117.667
0
LINE
8
BLACK
6
CONTINUOUS
10
178.116
20
-117.667
11
175.96
21
-117.667
0
LINE
8
BLACK
6
CONTINUOUS
10
175.96
20
-117.667
11
175.96
21
-119.823
0
LINE
8
BLACK
6
CONTINUOUS
10
175.96
20
-119.823
11
178.116
21
-119.823
0
LINE
8
BLACK
6
CONTINUOUS
10
113.499
20
-129.545
11
113.499
21
-127.545
0
LINE
8
BLACK
6
CONTINUOUS
10
113.499
20
-127.545
11
113.975
21
-127.545
0
LINE
8
BLACK
6
CONTINUOUS
10
113.975
20
-127.545
11
114.261
21
-127.64
0
LINE
8
BLACK
6
CONTINUOUS
10
114.261
20
-127.64
11
114.452
21
-127.83
0
LINE
8
BLACK
6
CONTINUOUS
10
114.452
20
-127.83
11
114.547
21
-128.021
0
LINE
8
BLACK
6
CONTINUOUS
10
114.547
20
-128.021
11
114.642
21
-128.402
0
LINE
8
BLACK
6
CONTINUOUS
10
114.642
20
-128.402
11
114.642
21
-128.688
0
LINE
8
BLACK
6
CONTINUOUS
10
114.642
20
-128.688
11
114.547
21
-129.069
0
LINE
8
BLACK
6
CONTINUOUS
10
114.547
20
-129.069
11
114.452
21
-129.259
0
LINE
8
BLACK
6
CONTINUOUS
10
114.452
20
-129.259
11
114.261
21
-129.45
0
LINE
8
BLACK
6
CONTINUOUS
10
114.261
20
-129.45
11
113.975
21
-129.545
0
LINE
8
BLACK
6
CONTINUOUS
10
113.975
20
-129.545
11
113.499
21
-129.545
0
LINE
8
BLACK
6
CONTINUOUS
10
115.499
20
-129.545
11
115.499
21
-128.211
0
LINE
8
BLACK
6
CONTINUOUS
10
115.499
20
-128.592
11
115.594
21
-128.402
0
LINE
8
BLACK
6
CONTINUOUS
10
115.594
20
-128.402
11
115.69
21
-128.307
0
LINE
8
BLACK
6
CONTINUOUS
10
115.69
20
-128.307
11
115.88
21
-128.211
0
LINE
8
BLACK
6
CONTINUOUS
10
115.88
20
-128.211
11
116.071
21
-128.211
0
LINE
8
BLACK
6
CONTINUOUS
10
116.737
20
-129.545
11
116.737
21
-128.211
0
LINE
8
BLACK
6
CONTINUOUS
10
116.737
20
-127.545
11
116.642
21
-127.64
0
LINE
8
BLACK
6
CONTINUOUS
10
116.642
20
-127.64
11
116.737
21
-127.735
0
LINE
8
BLACK
6
CONTINUOUS
10
116.737
20
-127.735
11
116.833
21
-127.64
0
LINE
8
BLACK
6
CONTINUOUS
10
116.833
20
-127.64
11
116.737
21
-127.545
0
LINE
8
BLACK
6
CONTINUOUS
10
116.737
20
-127.545
11
116.737
21
-127.735
0
LINE
8
BLACK
6
CONTINUOUS
10
117.975
20
-129.545
11
117.785
21
-129.45
0
LINE
8
BLACK
6
CONTINUOUS
10
117.785
20
-129.45
11
117.69
21
-129.259
0
LINE
8
BLACK
6
CONTINUOUS
10
117.69
20
-129.259
11
117.69
21
-127.545
0
LINE
8
BLACK
6
CONTINUOUS
10
119.023
20
-129.545
11
118.833
21
-129.45
0
LINE
8
BLACK
6
CONTINUOUS
10
118.833
20
-129.45
11
118.737
21
-129.259
0
LINE
8
BLACK
6
CONTINUOUS
10
118.737
20
-129.259
11
118.737
21
-127.545
0
LINE
8
BLACK
6
CONTINUOUS
10
121.309
20
-129.545
11
121.309
21
-127.545
0
LINE
8
BLACK
6
CONTINUOUS
10
121.309
20
-127.545
11
121.975
21
-128.973
0
LINE
8
BLACK
6
CONTINUOUS
10
121.975
20
-128.973
11
122.642
21
-127.545
0
LINE
8
BLACK
6
CONTINUOUS
10
122.642
20
-127.545
11
122.642
21
-129.545
0
LINE
8
BLACK
6
CONTINUOUS
10
124.452
20
-129.545
11
124.452
21
-128.497
0
LINE
8
BLACK
6
CONTINUOUS
10
124.452
20
-128.497
11
124.356
21
-128.307
0
LINE
8
BLACK
6
CONTINUOUS
10
124.356
20
-128.307
11
124.166
21
-128.211
0
LINE
8
BLACK
6
CONTINUOUS
10
124.166
20
-128.211
11
123.785
21
-128.211
0
LINE
8
BLACK
6
CONTINUOUS
10
123.785
20
-128.211
11
123.594
21
-128.307
0
LINE
8
BLACK
6
CONTINUOUS
10
124.452
20
-129.45
11
124.261
21
-129.545
0
LINE
8
BLACK
6
CONTINUOUS
10
124.261
20
-129.545
11
123.785
21
-129.545
0
LINE
8
BLACK
6
CONTINUOUS
10
123.785
20
-129.545
11
123.594
21
-129.45
0
LINE
8
BLACK
6
CONTINUOUS
10
123.594
20
-129.45
11
123.499
21
-129.259
0
LINE
8
BLACK
6
CONTINUOUS
10
123.499
20
-129.259
11
123.499
21
-129.069
0
LINE
8
BLACK
6
CONTINUOUS
10
123.499
20
-129.069
11
123.594
21
-128.878
0
LINE
8
BLACK
6
CONTINUOUS
10
123.594
20
-128.878
11
123.785
21
-128.783
0
LINE
8
BLACK
6
CONTINUOUS
10
123.785
20
-128.783
11
124.261
21
-128.783
0
LINE
8
BLACK
6
CONTINUOUS
10
124.261
20
-128.783
11
124.452
21
-128.688
0
LINE
8
BLACK
6
CONTINUOUS
10
125.404
20
-128.211
11
125.404
21
-130.211
0
LINE
8
BLACK
6
CONTINUOUS
10
125.404
20
-128.307
11
125.594
21
-128.211
0
LINE
8
BLACK
6
CONTINUOUS
10
125.594
20
-128.211
11
125.975
21
-128.211
0
LINE
8
BLACK
6
CONTINUOUS
10
125.975
20
-128.211
11
126.166
21
-128.307
0
LINE
8
BLACK
6
CONTINUOUS
10
126.166
20
-128.307
11
126.261
21
-128.402
0
LINE
8
BLACK
6
CONTINUOUS
10
126.261
20
-128.402
11
126.356
21
-128.592
0
LINE
8
BLACK
6
CONTINUOUS
10
126.356
20
-128.592
11
126.356
21
-129.164
0
LINE
8
BLACK
6
CONTINUOUS
10
126.356
20
-129.164
11
126.261
21
-129.354
0
LINE
8
BLACK
6
CONTINUOUS
10
126.261
20
-129.354
11
126.166
21
-129.45
0
LINE
8
BLACK
6
CONTINUOUS
10
126.166
20
-129.45
11
125.975
21
-129.545
0
LINE
8
BLACK
6
CONTINUOUS
10
125.975
20
-129.545
11
125.594
21
-129.545
0
LINE
8
BLACK
6
CONTINUOUS
10
125.594
20
-129.545
11
125.404
21
-129.45
0
LINE
8
BLACK
6
CONTINUOUS
10
127.213
20
-129.354
11
127.309
21
-129.45
0
LINE
8
BLACK
6
CONTINUOUS
10
127.309
20
-129.45
11
127.213
21
-129.545
0
LINE
8
BLACK
6
CONTINUOUS
10
127.213
20
-129.545
11
127.118
21
-129.45
0
LINE
8
BLACK
6
CONTINUOUS
10
127.118
20
-129.45
11
127.213
21
-129.354
0
LINE
8
BLACK
6
CONTINUOUS
10
127.213
20
-129.354
11
127.213
21
-129.545
0
LINE
8
BLACK
6
CONTINUOUS
10
127.213
20
-128.307
11
127.309
21
-128.402
0
LINE
8
BLACK
6
CONTINUOUS
10
127.309
20
-128.402
11
127.213
21
-128.497
0
LINE
8
BLACK
6
CONTINUOUS
10
127.213
20
-128.497
11
127.118
21
-128.402
0
LINE
8
BLACK
6
CONTINUOUS
10
127.118
20
-128.402
11
127.213
21
-128.307
0
LINE
8
BLACK
6
CONTINUOUS
10
127.213
20
-128.307
11
127.213
21
-128.497
0
LINE
8
BLACK
6
CONTINUOUS
10
110.123
20
-132.44
11
110.923
21
-133.24
0
LINE
8
BLACK
6
CONTINUOUS
10
110.923
20
-132.44
11
110.123
21
-133.24
0
LINE
8
BLACK
6
CONTINUOUS
10
113.88
20
-131.745
11
114.071
21
-131.745
0
LINE
8
BLACK
6
CONTINUOUS
10
114.071
20
-131.745
11
114.261
21
-131.84
0
LINE
8
BLACK
6
CONTINUOUS
10
114.261
20
-131.84
11
114.356
21
-131.935
0
LINE
8
BLACK
6
CONTINUOUS
10
114.356
20
-131.935
11
114.452
21
-132.126
0
LINE
8
BLACK
6
CONTINUOUS
10
114.452
20
-132.126
11
114.547
21
-132.507
0
LINE
8
BLACK
6
CONTINUOUS
10
114.547
20
-132.507
11
114.547
21
-132.983
0
LINE
8
BLACK
6
CONTINUOUS
10
114.547
20
-132.983
11
114.452
21
-133.364
0
LINE
8
BLACK
6
CONTINUOUS
10
114.452
20
-133.364
11
114.356
21
-133.554
0
LINE
8
BLACK
6
CONTINUOUS
10
114.356
20
-133.554
11
114.261
21
-133.65
0
LINE
8
BLACK
6
CONTINUOUS
10
114.261
20
-133.65
11
114.071
21
-133.745
0
LINE
8
BLACK
6
CONTINUOUS
10
114.071
20
-133.745
11
113.88
21
-133.745
0
LINE
8
BLACK
6
CONTINUOUS
10
113.88
20
-133.745
11
113.69
21
-133.65
0
LINE
8
BLACK
6
CONTINUOUS
10
113.69
20
-133.65
11
113.594
21
-133.554
0
LINE
8
BLACK
6
CONTINUOUS
10
113.594
20
-133.554
11
113.499
21
-133.364
0
LINE
8
BLACK
6
CONTINUOUS
10
113.499
20
-133.364
11
113.404
21
-132.983
0
LINE
8
BLACK
6
CONTINUOUS
10
113.404
20
-132.983
11
113.404
21
-132.507
0
LINE
8
BLACK
6
CONTINUOUS
10
113.404
20
-132.507
11
113.499
21
-132.126
0
LINE
8
BLACK
6
CONTINUOUS
10
113.499
20
-132.126
11
113.594
21
-131.935
0
LINE
8
BLACK
6
CONTINUOUS
10
113.594
20
-131.935
11
113.69
21
-131.84
0
LINE
8
BLACK
6
CONTINUOUS
10
113.69
20
-131.84
11
113.88
21
-131.745
0
LINE
8
BLACK
6
CONTINUOUS
10
115.404
20
-133.554
11
115.499
21
-133.65
0
LINE
8
BLACK
6
CONTINUOUS
10
115.499
20
-133.65
11
115.404
21
-133.745
0
LINE
8
BLACK
6
CONTINUOUS
10
115.404
20
-133.745
11
115.309
21
-133.65
0
LINE
8
BLACK
6
CONTINUOUS
10
115.309
20
-133.65
11
115.404
21
-133.554
0
LINE
8
BLACK
6
CONTINUOUS
10
115.404
20
-133.554
11
115.404
21
-133.745
0
LINE
8
BLACK
6
CONTINUOUS
10
116.642
20
-132.602
11
116.452
21
-132.507
0
LINE
8
BLACK
6
CONTINUOUS
10
116.452
20
-132.507
11
116.356
21
-132.411
0
LINE
8
BLACK
6
CONTINUOUS
10
116.356
20
-132.411
11
116.261
21
-132.221
0
LINE
8
BLACK
6
CONTINUOUS
10
116.261
20
-132.221
11
116.261
21
-132.126
0
LINE
8
BLACK
6
CONTINUOUS
10
116.261
20
-132.126
11
116.356
21
-131.935
0
LINE
8
BLACK
6
CONTINUOUS
10
116.356
20
-131.935
11
116.452
21
-131.84
0
LINE
8
BLACK
6
CONTINUOUS
10
116.452
20
-131.84
11
116.642
21
-131.745
0
LINE
8
BLACK
6
CONTINUOUS
10
116.642
20
-131.745
11
117.023
21
-131.745
0
LINE
8
BLACK
6
CONTINUOUS
10
117.023
20
-131.745
11
117.213
21
-131.84
0
LINE
8
BLACK
6
CONTINUOUS
10
117.213
20
-131.84
11
117.309
21
-131.935
0
LINE
8
BLACK
6
CONTINUOUS
10
117.309
20
-131.935
11
117.404
21
-132.126
0
LINE
8
BLACK
6
CONTINUOUS
10
117.404
20
-132.126
11
117.404
21
-132.221
0
LINE
8
BLACK
6
CONTINUOUS
10
117.404
20
-132.221
11
117.309
21
-132.411
0
LINE
8
BLACK
6
CONTINUOUS
10
117.309
20
-132.411
11
117.213
21
-132.507
0
LINE
8
BLACK
6
CONTINUOUS
10
117.213
20
-132.507
11
117.023
21
-132.602
0
LINE
8
BLACK
6
CONTINUOUS
10
117.023
20
-132.602
11
116.642
21
-132.602
0
LINE
8
BLACK
6
CONTINUOUS
10
116.642
20
-132.602
11
116.452
21
-132.697
0
LINE
8
BLACK
6
CONTINUOUS
10
116.452
20
-132.697
11
116.356
21
-132.792
0
LINE
8
BLACK
6
CONTINUOUS
10
116.356
20
-132.792
11
116.261
21
-132.983
0
LINE
8
BLACK
6
CONTINUOUS
10
116.261
20
-132.983
11
116.261
21
-133.364
0
LINE
8
BLACK
6
CONTINUOUS
10
116.261
20
-133.364
11
116.356
21
-133.554
0
LINE
8
BLACK
6
CONTINUOUS
10
116.356
20
-133.554
11
116.452
21
-133.65
0
LINE
8
BLACK
6
CONTINUOUS
10
116.452
20
-133.65
11
116.642
21
-133.745
0
LINE
8
BLACK
6
CONTINUOUS
10
116.642
20
-133.745
11
117.023
21
-133.745
0
LINE
8
BLACK
6
CONTINUOUS
10
117.023
20
-133.745
11
117.213
21
-133.65
0
LINE
8
BLACK
6
CONTINUOUS
10
117.213
20
-133.65
11
117.309
21
-133.554
0
LINE
8
BLACK
6
CONTINUOUS
10
117.309
20
-133.554
11
117.404
21
-133.364
0
LINE
8
BLACK
6
CONTINUOUS
10
117.404
20
-133.364
11
117.404
21
-132.983
0
LINE
8
BLACK
6
CONTINUOUS
10
117.404
20
-132.983
11
117.309
21
-132.792
0
LINE
8
BLACK
6
CONTINUOUS
10
117.309
20
-132.792
11
117.213
21
-132.697
0
LINE
8
BLACK
6
CONTINUOUS
10
117.213
20
-132.697
11
117.023
21
-132.602
0
LINE
8
BLACK
6
CONTINUOUS
10
118.642
20
-131.745
11
118.833
21
-131.745
0
LINE
8
BLACK
6
CONTINUOUS
10
118.833
20
-131.745
11
119.023
21
-131.84
0
LINE
8
BLACK
6
CONTINUOUS
10
119.023
20
-131.84
11
119.118
21
-131.935
0
LINE
8
BLACK
6
CONTINUOUS
10
119.118
20
-131.935
11
119.213
21
-132.126
0
LINE
8
BLACK
6
CONTINUOUS
10
119.213
20
-132.126
11
119.309
21
-132.507
0
LINE
8
BLACK
6
CONTINUOUS
10
119.309
20
-132.507
11
119.309
21
-132.983
0
LINE
8
BLACK
6
CONTINUOUS
10
119.309
20
-132.983
11
119.213
21
-133.364
0
LINE
8
BLACK
6
CONTINUOUS
10
119.213
20
-133.364
11
119.118
21
-133.554
0
LINE
8
BLACK
6
CONTINUOUS
10
119.118
20
-133.554
11
119.023
21
-133.65
0
LINE
8
BLACK
6
CONTINUOUS
10
119.023
20
-133.65
11
118.833
21
-133.745
0
LINE
8
BLACK
6
CONTINUOUS
10
118.833
20
-133.745
11
118.642
21
-133.745
0
LINE
8
BLACK
6
CONTINUOUS
10
118.642
20
-133.745
11
118.452
21
-133.65
0
LINE
8
BLACK
6
CONTINUOUS
10
118.452
20
-133.65
11
118.356
21
-133.554
0
LINE
8
BLACK
6
CONTINUOUS
10
118.356
20
-133.554
11
118.261
21
-133.364
0
LINE
8
BLACK
6
CONTINUOUS
10
118.261
20
-133.364
11
118.166
21
-132.983
0
LINE
8
BLACK
6
CONTINUOUS
10
118.166
20
-132.983
11
118.166
21
-132.507
0
LINE
8
BLACK
6
CONTINUOUS
10
118.166
20
-132.507
11
118.261
21
-132.126
0
LINE
8
BLACK
6
CONTINUOUS
10
118.261
20
-132.126
11
118.356
21
-131.935
0
LINE
8
BLACK
6
CONTINUOUS
10
118.356
20
-131.935
11
118.452
21
-131.84
0
LINE
8
BLACK
6
CONTINUOUS
10
118.452
20
-131.84
11
118.642
21
-131.745
0
LINE
8
BLACK
6
CONTINUOUS
10
120.547
20
-131.745
11
120.737
21
-131.745
0
LINE
8
BLACK
6
CONTINUOUS
10
120.737
20
-131.745
11
120.928
21
-131.84
0
LINE
8
BLACK
6
CONTINUOUS
10
120.928
20
-131.84
11
121.023
21
-131.935
0
LINE
8
BLACK
6
CONTINUOUS
10
121.023
20
-131.935
11
121.118
21
-132.126
0
LINE
8
BLACK
6
CONTINUOUS
10
121.118
20
-132.126
11
121.213
21
-132.507
0
LINE
8
BLACK
6
CONTINUOUS
10
121.213
20
-132.507
11
121.213
21
-132.983
0
LINE
8
BLACK
6
CONTINUOUS
10
121.213
20
-132.983
11
121.118
21
-133.364
0
LINE
8
BLACK
6
CONTINUOUS
10
121.118
20
-133.364
11
121.023
21
-133.554
0
LINE
8
BLACK
6
CONTINUOUS
10
121.023
20
-133.554
11
120.928
21
-133.65
0
LINE
8
BLACK
6
CONTINUOUS
10
120.928
20
-133.65
11
120.737
21
-133.745
0
LINE
8
BLACK
6
CONTINUOUS
10
120.737
20
-133.745
11
120.547
21
-133.745
0
LINE
8
BLACK
6
CONTINUOUS
10
120.547
20
-133.745
11
120.356
21
-133.65
0
LINE
8
BLACK
6
CONTINUOUS
10
120.356
20
-133.65
11
120.261
21
-133.554
0
LINE
8
BLACK
6
CONTINUOUS
10
120.261
20
-133.554
11
120.166
21
-133.364
0
LINE
8
BLACK
6
CONTINUOUS
10
120.166
20
-133.364
11
120.071
21
-132.983
0
LINE
8
BLACK
6
CONTINUOUS
10
120.071
20
-132.983
11
120.071
21
-132.507
0
LINE
8
BLACK
6
CONTINUOUS
10
120.071
20
-132.507
11
120.166
21
-132.126
0
LINE
8
BLACK
6
CONTINUOUS
10
120.166
20
-132.126
11
120.261
21
-131.935
0
LINE
8
BLACK
6
CONTINUOUS
10
120.261
20
-131.935
11
120.356
21
-131.84
0
LINE
8
BLACK
6
CONTINUOUS
10
120.356
20
-131.84
11
120.547
21
-131.745
0
LINE
8
BLACK
6
CONTINUOUS
10
122.071
20
-133.745
11
122.071
21
-132.411
0
LINE
8
BLACK
6
CONTINUOUS
10
122.071
20
-132.602
11
122.166
21
-132.507
0
LINE
8
BLACK
6
CONTINUOUS
10
122.166
20
-132.507
11
122.356
21
-132.411
0
LINE
8
BLACK
6
CONTINUOUS
10
122.356
20
-132.411
11
122.642
21
-132.411
0
LINE
8
BLACK
6
CONTINUOUS
10
122.642
20
-132.411
11
122.833
21
-132.507
0
LINE
8
BLACK
6
CONTINUOUS
10
122.833
20
-132.507
11
122.928
21
-132.697
0
LINE
8
BLACK
6
CONTINUOUS
10
122.928
20
-132.697
11
122.928
21
-133.745
0
LINE
8
BLACK
6
CONTINUOUS
10
122.928
20
-132.697
11
123.023
21
-132.507
0
LINE
8
BLACK
6
CONTINUOUS
10
123.023
20
-132.507
11
123.213
21
-132.411
0
LINE
8
BLACK
6
CONTINUOUS
10
123.213
20
-132.411
11
123.499
21
-132.411
0
LINE
8
BLACK
6
CONTINUOUS
10
123.499
20
-132.411
11
123.69
21
-132.507
0
LINE
8
BLACK
6
CONTINUOUS
10
123.69
20
-132.507
11
123.785
21
-132.697
0
LINE
8
BLACK
6
CONTINUOUS
10
123.785
20
-132.697
11
123.785
21
-133.745
0
LINE
8
BLACK
6
CONTINUOUS
10
124.737
20
-133.745
11
124.737
21
-132.411
0
LINE
8
BLACK
6
CONTINUOUS
10
124.737
20
-132.602
11
124.833
21
-132.507
0
LINE
8
BLACK
6
CONTINUOUS
10
124.833
20
-132.507
11
125.023
21
-132.411
0
LINE
8
BLACK
6
CONTINUOUS
10
125.023
20
-132.411
11
125.309
21
-132.411
0
LINE
8
BLACK
6
CONTINUOUS
10
125.309
20
-132.411
11
125.499
21
-132.507
0
LINE
8
BLACK
6
CONTINUOUS
10
125.499
20
-132.507
11
125.594
21
-132.697
0
LINE
8
BLACK
6
CONTINUOUS
10
125.594
20
-132.697
11
125.594
21
-133.745
0
LINE
8
BLACK
6
CONTINUOUS
10
125.594
20
-132.697
11
125.69
21
-132.507
0
LINE
8
BLACK
6
CONTINUOUS
10
125.69
20
-132.507
11
125.88
21
-132.411
0
LINE
8
BLACK
6
CONTINUOUS
10
125.88
20
-132.411
11
126.166
21
-132.411
0
LINE
8
BLACK
6
CONTINUOUS
10
126.166
20
-132.411
11
126.356
21
-132.507
0
LINE
8
BLACK
6
CONTINUOUS
10
126.356
20
-132.507
11
126.452
21
-132.697
0
LINE
8
BLACK
6
CONTINUOUS
10
126.452
20
-132.697
11
126.452
21
-133.745
0
LINE
8
BLACK
6
CONTINUOUS
10
130.356
20
-131.65
11
128.642
21
-134.221
0
LINE
8
BLACK
6
CONTINUOUS
10
132.928
20
-131.745
11
133.118
21
-131.745
0
LINE
8
BLACK
6
CONTINUOUS
10
133.118
20
-131.745
11
133.309
21
-131.84
0
LINE
8
BLACK
6
CONTINUOUS
10
133.309
20
-131.84
11
133.404
21
-131.935
0
LINE
8
BLACK
6
CONTINUOUS
10
133.404
20
-131.935
11
133.499
21
-132.126
0
LINE
8
BLACK
6
CONTINUOUS
10
133.499
20
-132.126
11
133.594
21
-132.507
0
LINE
8
BLACK
6
CONTINUOUS
10
133.594
20
-132.507
11
133.594
21
-132.983
0
LINE
8
BLACK
6
CONTINUOUS
10
133.594
20
-132.983
11
133.499
21
-133.364
0
LINE
8
BLACK
6
CONTINUOUS
10
133.499
20
-133.364
11
133.404
21
-133.554
0
LINE
8
BLACK
6
CONTINUOUS
10
133.404
20
-133.554
11
133.309
21
-133.65
0
LINE
8
BLACK
6
CONTINUOUS
10
133.309
20
-133.65
11
133.118
21
-133.745
0
LINE
8
BLACK
6
CONTINUOUS
10
133.118
20
-133.745
11
132.928
21
-133.745
0
LINE
8
BLACK
6
CONTINUOUS
10
132.928
20
-133.745
11
132.737
21
-133.65
0
LINE
8
BLACK
6
CONTINUOUS
10
132.737
20
-133.65
11
132.642
21
-133.554
0
LINE
8
BLACK
6
CONTINUOUS
10
132.642
20
-133.554
11
132.547
21
-133.364
0
LINE
8
BLACK
6
CONTINUOUS
10
132.547
20
-133.364
11
132.452
21
-132.983
0
LINE
8
BLACK
6
CONTINUOUS
10
132.452
20
-132.983
11
132.452
21
-132.507
0
LINE
8
BLACK
6
CONTINUOUS
10
132.452
20
-132.507
11
132.547
21
-132.126
0
LINE
8
BLACK
6
CONTINUOUS
10
132.547
20
-132.126
11
132.642
21
-131.935
0
LINE
8
BLACK
6
CONTINUOUS
10
132.642
20
-131.935
11
132.737
21
-131.84
0
LINE
8
BLACK
6
CONTINUOUS
10
132.737
20
-131.84
11
132.928
21
-131.745
0
LINE
8
BLACK
6
CONTINUOUS
10
134.452
20
-133.554
11
134.547
21
-133.65
0
LINE
8
BLACK
6
CONTINUOUS
10
134.547
20
-133.65
11
134.452
21
-133.745
0
LINE
8
BLACK
6
CONTINUOUS
10
134.452
20
-133.745
11
134.356
21
-133.65
0
LINE
8
BLACK
6
CONTINUOUS
10
134.356
20
-133.65
11
134.452
21
-133.554
0
LINE
8
BLACK
6
CONTINUOUS
10
134.452
20
-133.554
11
134.452
21
-133.745
0
LINE
8
BLACK
6
CONTINUOUS
10
135.785
20
-131.745
11
135.975
21
-131.745
0
LINE
8
BLACK
6
CONTINUOUS
10
135.975
20
-131.745
11
136.166
21
-131.84
0
LINE
8
BLACK
6
CONTINUOUS
10
136.166
20
-131.84
11
136.261
21
-131.935
0
LINE
8
BLACK
6
CONTINUOUS
10
136.261
20
-131.935
11
136.356
21
-132.126
0
LINE
8
BLACK
6
CONTINUOUS
10
136.356
20
-132.126
11
136.452
21
-132.507
0
LINE
8
BLACK
6
CONTINUOUS
10
136.452
20
-132.507
11
136.452
21
-132.983
0
LINE
8
BLACK
6
CONTINUOUS
10
136.452
20
-132.983
11
136.356
21
-133.364
0
LINE
8
BLACK
6
CONTINUOUS
10
136.356
20
-133.364
11
136.261
21
-133.554
0
LINE
8
BLACK
6
CONTINUOUS
10
136.261
20
-133.554
11
136.166
21
-133.65
0
LINE
8
BLACK
6
CONTINUOUS
10
136.166
20
-133.65
11
135.975
21
-133.745
0
LINE
8
BLACK
6
CONTINUOUS
10
135.975
20
-133.745
11
135.785
21
-133.745
0
LINE
8
BLACK
6
CONTINUOUS
10
135.785
20
-133.745
11
135.594
21
-133.65
0
LINE
8
BLACK
6
CONTINUOUS
10
135.594
20
-133.65
11
135.499
21
-133.554
0
LINE
8
BLACK
6
CONTINUOUS
10
135.499
20
-133.554
11
135.404
21
-133.364
0
LINE
8
BLACK
6
CONTINUOUS
10
135.404
20
-133.364
11
135.309
21
-132.983
0
LINE
8
BLACK
6
CONTINUOUS
10
135.309
20
-132.983
11
135.309
21
-132.507
0
LINE
8
BLACK
6
CONTINUOUS
10
135.309
20
-132.507
11
135.404
21
-132.126
0
LINE
8
BLACK
6
CONTINUOUS
10
135.404
20
-132.126
11
135.499
21
-131.935
0
LINE
8
BLACK
6
CONTINUOUS
10
135.499
20
-131.935
11
135.594
21
-131.84
0
LINE
8
BLACK
6
CONTINUOUS
10
135.594
20
-131.84
11
135.785
21
-131.745
0
LINE
8
BLACK
6
CONTINUOUS
10
137.118
20
-131.745
11
138.356
21
-131.745
0
LINE
8
BLACK
6
CONTINUOUS
10
138.356
20
-131.745
11
137.69
21
-132.507
0
LINE
8
BLACK
6
CONTINUOUS
10
137.69
20
-132.507
11
137.975
21
-132.507
0
LINE
8
BLACK
6
CONTINUOUS
10
137.975
20
-132.507
11
138.166
21
-132.602
0
LINE
8
BLACK
6
CONTINUOUS
10
138.166
20
-132.602
11
138.261
21
-132.697
0
LINE
8
BLACK
6
CONTINUOUS
10
138.261
20
-132.697
11
138.356
21
-132.888
0
LINE
8
BLACK
6
CONTINUOUS
10
138.356
20
-132.888
11
138.356
21
-133.364
0
LINE
8
BLACK
6
CONTINUOUS
10
138.356
20
-133.364
11
138.261
21
-133.554
0
LINE
8
BLACK
6
CONTINUOUS
10
138.261
20
-133.554
11
138.166
21
-133.65
0
LINE
8
BLACK
6
CONTINUOUS
10
138.166
20
-133.65
11
137.975
21
-133.745
0
LINE
8
BLACK
6
CONTINUOUS
10
137.975
20
-133.745
11
137.404
21
-133.745
0
LINE
8
BLACK
6
CONTINUOUS
10
137.404
20
-133.745
11
137.213
21
-133.65
0
LINE
8
BLACK
6
CONTINUOUS
10
137.213
20
-133.65
11
137.118
21
-133.554
0
LINE
8
BLACK
6
CONTINUOUS
10
140.261
20
-133.745
11
139.118
21
-133.745
0
LINE
8
BLACK
6
CONTINUOUS
10
139.69
20
-133.745
11
139.69
21
-131.745
0
LINE
8
BLACK
6
CONTINUOUS
10
139.69
20
-131.745
11
139.499
21
-132.03
0
LINE
8
BLACK
6
CONTINUOUS
10
139.499
20
-132.03
11
139.309
21
-132.221
0
LINE
8
BLACK
6
CONTINUOUS
10
139.309
20
-132.221
11
139.118
21
-132.316
0
LINE
8
BLACK
6
CONTINUOUS
10
142.071
20
-131.745
11
141.118
21
-131.745
0
LINE
8
BLACK
6
CONTINUOUS
10
141.118
20
-131.745
11
141.023
21
-132.697
0
LINE
8
BLACK
6
CONTINUOUS
10
141.023
20
-132.697
11
141.118
21
-132.602
0
LINE
8
BLACK
6
CONTINUOUS
10
141.118
20
-132.602
11
141.309
21
-132.507
0
LINE
8
BLACK
6
CONTINUOUS
10
141.309
20
-132.507
11
141.785
21
-132.507
0
LINE
8
BLACK
6
CONTINUOUS
10
141.785
20
-132.507
11
141.975
21
-132.602
0
LINE
8
BLACK
6
CONTINUOUS
10
141.975
20
-132.602
11
142.071
21
-132.697
0
LINE
8
BLACK
6
CONTINUOUS
10
142.071
20
-132.697
11
142.166
21
-132.888
0
LINE
8
BLACK
6
CONTINUOUS
10
142.166
20
-132.888
11
142.166
21
-133.364
0
LINE
8
BLACK
6
CONTINUOUS
10
142.166
20
-133.364
11
142.071
21
-133.554
0
LINE
8
BLACK
6
CONTINUOUS
10
142.071
20
-133.554
11
141.975
21
-133.65
0
LINE
8
BLACK
6
CONTINUOUS
10
141.975
20
-133.65
11
141.785
21
-133.745
0
LINE
8
BLACK
6
CONTINUOUS
10
141.785
20
-133.745
11
141.309
21
-133.745
0
LINE
8
BLACK
6
CONTINUOUS
10
141.309
20
-133.745
11
141.118
21
-133.65
0
LINE
8
BLACK
6
CONTINUOUS
10
141.118
20
-133.65
11
141.023
21
-133.554
0
LINE
8
BLACK
6
CONTINUOUS
10
142.928
20
-131.745
11
142.928
21
-132.126
0
LINE
8
BLACK
6
CONTINUOUS
10
143.69
20
-131.745
11
143.69
21
-132.126
0
LINE
8
BLACK
6
CONTINUOUS
10
146.642
20
-134.507
11
146.547
21
-134.411
0
LINE
8
BLACK
6
CONTINUOUS
10
146.547
20
-134.411
11
146.356
21
-134.126
0
LINE
8
BLACK
6
CONTINUOUS
10
146.356
20
-134.126
11
146.261
21
-133.935
0
LINE
8
BLACK
6
CONTINUOUS
10
146.261
20
-133.935
11
146.166
21
-133.65
0
LINE
8
BLACK
6
CONTINUOUS
10
146.166
20
-133.65
11
146.071
21
-133.173
0
LINE
8
BLACK
6
CONTINUOUS
10
146.071
20
-133.173
11
146.071
21
-132.792
0
LINE
8
BLACK
6
CONTINUOUS
10
146.071
20
-132.792
11
146.166
21
-132.316
0
LINE
8
BLACK
6
CONTINUOUS
10
146.166
20
-132.316
11
146.261
21
-132.03
0
LINE
8
BLACK
6
CONTINUOUS
10
146.261
20
-132.03
11
146.356
21
-131.84
0
LINE
8
BLACK
6
CONTINUOUS
10
146.356
20
-131.84
11
146.547
21
-131.554
0
LINE
8
BLACK
6
CONTINUOUS
10
146.547
20
-131.554
11
146.642
21
-131.459
0
LINE
8
BLACK
6
CONTINUOUS
10
148.356
20
-131.745
11
147.404
21
-131.745
0
LINE
8
BLACK
6
CONTINUOUS
10
147.404
20
-131.745
11
147.309
21
-132.697
0
LINE
8
BLACK
6
CONTINUOUS
10
147.309
20
-132.697
11
147.404
21
-132.602
0
LINE
8
BLACK
6
CONTINUOUS
10
147.404
20
-132.602
11
147.594
21
-132.507
0
LINE
8
BLACK
6
CONTINUOUS
10
147.594
20
-132.507
11
148.071
21
-132.507
0
LINE
8
BLACK
6
CONTINUOUS
10
148.071
20
-132.507
11
148.261
21
-132.602
0
LINE
8
BLACK
6
CONTINUOUS
10
148.261
20
-132.602
11
148.356
21
-132.697
0
LINE
8
BLACK
6
CONTINUOUS
10
148.356
20
-132.697
11
148.452
21
-132.888
0
LINE
8
BLACK
6
CONTINUOUS
10
148.452
20
-132.888
11
148.452
21
-133.364
0
LINE
8
BLACK
6
CONTINUOUS
10
148.452
20
-133.364
11
148.356
21
-133.554
0
LINE
8
BLACK
6
CONTINUOUS
10
148.356
20
-133.554
11
148.261
21
-133.65
0
LINE
8
BLACK
6
CONTINUOUS
10
148.261
20
-133.65
11
148.071
21
-133.745
0
LINE
8
BLACK
6
CONTINUOUS
10
148.071
20
-133.745
11
147.594
21
-133.745
0
LINE
8
BLACK
6
CONTINUOUS
10
147.594
20
-133.745
11
147.404
21
-133.65
0
LINE
8
BLACK
6
CONTINUOUS
10
147.404
20
-133.65
11
147.309
21
-133.554
0
LINE
8
BLACK
6
CONTINUOUS
10
150.166
20
-132.411
11
150.166
21
-133.745
0
LINE
8
BLACK
6
CONTINUOUS
10
149.69
20
-131.65
11
149.213
21
-133.078
0
LINE
8
BLACK
6
CONTINUOUS
10
149.213
20
-133.078
11
150.452
21
-133.078
0
LINE
8
BLACK
6
CONTINUOUS
10
152.737
20
-133.745
11
152.737
21
-131.745
0
LINE
8
BLACK
6
CONTINUOUS
10
153.594
20
-133.745
11
153.594
21
-132.697
0
LINE
8
BLACK
6
CONTINUOUS
10
153.594
20
-132.697
11
153.499
21
-132.507
0
LINE
8
BLACK
6
CONTINUOUS
10
153.499
20
-132.507
11
153.309
21
-132.411
0
LINE
8
BLACK
6
CONTINUOUS
10
153.309
20
-132.411
11
153.023
21
-132.411
0
LINE
8
BLACK
6
CONTINUOUS
10
153.023
20
-132.411
11
152.833
21
-132.507
0
LINE
8
BLACK
6
CONTINUOUS
10
152.833
20
-132.507
11
152.737
21
-132.602
0
LINE
8
BLACK
6
CONTINUOUS
10
154.833
20
-133.745
11
154.642
21
-133.65
0
LINE
8
BLACK
6
CONTINUOUS
10
154.642
20
-133.65
11
154.547
21
-133.554
0
LINE
8
BLACK
6
CONTINUOUS
10
154.547
20
-133.554
11
154.452
21
-133.364
0
LINE
8
BLACK
6
CONTINUOUS
10
154.452
20
-133.364
11
154.452
21
-132.792
0
LINE
8
BLACK
6
CONTINUOUS
10
154.452
20
-132.792
11
154.547
21
-132.602
0
LINE
8
BLACK
6
CONTINUOUS
10
154.547
20
-132.602
11
154.642
21
-132.507
0
LINE
8
BLACK
6
CONTINUOUS
10
154.642
20
-132.507
11
154.833
21
-132.411
0
LINE
8
BLACK
6
CONTINUOUS
10
154.833
20
-132.411
11
155.118
21
-132.411
0
LINE
8
BLACK
6
CONTINUOUS
10
155.118
20
-132.411
11
155.309
21
-132.507
0
LINE
8
BLACK
6
CONTINUOUS
10
155.309
20
-132.507
11
155.404
21
-132.602
0
LINE
8
BLACK
6
CONTINUOUS
10
155.404
20
-132.602
11
155.499
21
-132.792
0
LINE
8
BLACK
6
CONTINUOUS
10
155.499
20
-132.792
11
155.499
21
-133.364
0
LINE
8
BLACK
6
CONTINUOUS
10
155.499
20
-133.364
11
155.404
21
-133.554
0
LINE
8
BLACK
6
CONTINUOUS
10
155.404
20
-133.554
11
155.309
21
-133.65
0
LINE
8
BLACK
6
CONTINUOUS
10
155.309
20
-133.65
11
155.118
21
-133.745
0
LINE
8
BLACK
6
CONTINUOUS
10
155.118
20
-133.745
11
154.833
21
-133.745
0
LINE
8
BLACK
6
CONTINUOUS
10
156.642
20
-133.745
11
156.452
21
-133.65
0
LINE
8
BLACK
6
CONTINUOUS
10
156.452
20
-133.65
11
156.356
21
-133.459
0
LINE
8
BLACK
6
CONTINUOUS
10
156.356
20
-133.459
11
156.356
21
-131.745
0
LINE
8
BLACK
6
CONTINUOUS
10
158.166
20
-133.65
11
157.975
21
-133.745
0
LINE
8
BLACK
6
CONTINUOUS
10
157.975
20
-133.745
11
157.594
21
-133.745
0
LINE
8
BLACK
6
CONTINUOUS
10
157.594
20
-133.745
11
157.404
21
-133.65
0
LINE
8
BLACK
6
CONTINUOUS
10
157.404
20
-133.65
11
157.309
21
-133.459
0
LINE
8
BLACK
6
CONTINUOUS
10
157.309
20
-133.459
11
157.309
21
-132.697
0
LINE
8
BLACK
6
CONTINUOUS
10
157.309
20
-132.697
11
157.404
21
-132.507
0
LINE
8
BLACK
6
CONTINUOUS
10
157.404
20
-132.507
11
157.594
21
-132.411
0
LINE
8
BLACK
6
CONTINUOUS
10
157.594
20
-132.411
11
157.975
21
-132.411
0
LINE
8
BLACK
6
CONTINUOUS
10
157.975
20
-132.411
11
158.166
21
-132.507
0
LINE
8
BLACK
6
CONTINUOUS
10
158.166
20
-132.507
11
158.261
21
-132.697
0
LINE
8
BLACK
6
CONTINUOUS
10
158.261
20
-132.697
11
158.261
21
-132.888
0
LINE
8
BLACK
6
CONTINUOUS
10
158.261
20
-132.888
11
157.309
21
-133.078
0
LINE
8
BLACK
6
CONTINUOUS
10
159.023
20
-133.65
11
159.213
21
-133.745
0
LINE
8
BLACK
6
CONTINUOUS
10
159.213
20
-133.745
11
159.594
21
-133.745
0
LINE
8
BLACK
6
CONTINUOUS
10
159.594
20
-133.745
11
159.785
21
-133.65
0
LINE
8
BLACK
6
CONTINUOUS
10
159.785
20
-133.65
11
159.88
21
-133.459
0
LINE
8
BLACK
6
CONTINUOUS
10
159.88
20
-133.459
11
159.88
21
-133.364
0
LINE
8
BLACK
6
CONTINUOUS
10
159.88
20
-133.364
11
159.785
21
-133.173
0
LINE
8
BLACK
6
CONTINUOUS
10
159.785
20
-133.173
11
159.594
21
-133.078
0
LINE
8
BLACK
6
CONTINUOUS
10
159.594
20
-133.078
11
159.309
21
-133.078
0
LINE
8
BLACK
6
CONTINUOUS
10
159.309
20
-133.078
11
159.118
21
-132.983
0
LINE
8
BLACK
6
CONTINUOUS
10
159.118
20
-132.983
11
159.023
21
-132.792
0
LINE
8
BLACK
6
CONTINUOUS
10
159.023
20
-132.792
11
159.023
21
-132.697
0
LINE
8
BLACK
6
CONTINUOUS
10
159.023
20
-132.697
11
159.118
21
-132.507
0
LINE
8
BLACK
6
CONTINUOUS
10
159.118
20
-132.507
11
159.309
21
-132.411
0
LINE
8
BLACK
6
CONTINUOUS
10
159.309
20
-132.411
11
159.594
21
-132.411
0
LINE
8
BLACK
6
CONTINUOUS
10
159.594
20
-132.411
11
159.785
21
-132.507
0
LINE
8
BLACK
6
CONTINUOUS
10
160.547
20
-134.507
11
160.642
21
-134.411
0
LINE
8
BLACK
6
CONTINUOUS
10
160.642
20
-134.411
11
160.833
21
-134.126
0
LINE
8
BLACK
6
CONTINUOUS
10
160.833
20
-134.126
11
160.928
21
-133.935
0
LINE
8
BLACK
6
CONTINUOUS
10
160.928
20
-133.935
11
161.023
21
-133.65
0
LINE
8
BLACK
6
CONTINUOUS
10
161.023
20
-133.65
11
161.118
21
-133.173
0
LINE
8
BLACK
6
CONTINUOUS
10
161.118
20
-133.173
11
161.118
21
-132.792
0
LINE
8
BLACK
6
CONTINUOUS
10
161.118
20
-132.792
11
161.023
21
-132.316
0
LINE
8
BLACK
6
CONTINUOUS
10
161.023
20
-132.316
11
160.928
21
-132.03
0
LINE
8
BLACK
6
CONTINUOUS
10
160.928
20
-132.03
11
160.833
21
-131.84
0
LINE
8
BLACK
6
CONTINUOUS
10
160.833
20
-131.84
11
160.642
21
-131.554
0
LINE
8
BLACK
6
CONTINUOUS
10
160.642
20
-131.554
11
160.547
21
-131.459
0
CIRCLE
8
BLACK
10
110.473
20
-135.48
40
0.45
0
LINE
8
BLACK
6
CONTINUOUS
10
113.88
20
-134.385
11
114.071
21
-134.385
0
LINE
8
BLACK
6
CONTINUOUS
10
114.071
20
-134.385
11
114.261
21
-134.48
0
LINE
8
BLACK
6
CONTINUOUS
10
114.261
20
-134.48
11
114.356
21
-134.575
0
LINE
8
BLACK
6
CONTINUOUS
10
114.356
20
-134.575
11
114.452
21
-134.766
0
LINE
8
BLACK
6
CONTINUOUS
10
114.452
20
-134.766
11
114.547
21
-135.147
0
LINE
8
BLACK
6
CONTINUOUS
10
114.547
20
-135.147
11
114.547
21
-135.623
0
LINE
8
BLACK
6
CONTINUOUS
10
114.547
20
-135.623
11
114.452
21
-136.004
0
LINE
8
BLACK
6
CONTINUOUS
10
114.452
20
-136.004
11
114.356
21
-136.194
0
LINE
8
BLACK
6
CONTINUOUS
10
114.356
20
-136.194
11
114.261
21
-136.29
0
LINE
8
BLACK
6
CONTINUOUS
10
114.261
20
-136.29
11
114.071
21
-136.385
0
LINE
8
BLACK
6
CONTINUOUS
10
114.071
20
-136.385
11
113.88
21
-136.385
0
LINE
8
BLACK
6
CONTINUOUS
10
113.88
20
-136.385
11
113.69
21
-136.29
0
LINE
8
BLACK
6
CONTINUOUS
10
113.69
20
-136.29
11
113.594
21
-136.194
0
LINE
8
BLACK
6
CONTINUOUS
10
113.594
20
-136.194
11
113.499
21
-136.004
0
LINE
8
BLACK
6
CONTINUOUS
10
113.499
20
-136.004
11
113.404
21
-135.623
0
LINE
8
BLACK
6
CONTINUOUS
10
113.404
20
-135.623
11
113.404
21
-135.147
0
LINE
8
BLACK
6
CONTINUOUS
10
113.404
20
-135.147
11
113.499
21
-134.766
0
LINE
8
BLACK
6
CONTINUOUS
10
113.499
20
-134.766
11
113.594
21
-134.575
0
LINE
8
BLACK
6
CONTINUOUS
10
113.594
20
-134.575
11
113.69
21
-134.48
0
LINE
8
BLACK
6
CONTINUOUS
10
113.69
20
-134.48
11
113.88
21
-134.385
0
LINE
8
BLACK
6
CONTINUOUS
10
115.404
20
-136.194
11
115.499
21
-136.29
0
LINE
8
BLACK
6
CONTINUOUS
10
115.499
20
-136.29
11
115.404
21
-136.385
0
LINE
8
BLACK
6
CONTINUOUS
10
115.404
20
-136.385
11
115.309
21
-136.29
0
LINE
8
BLACK
6
CONTINUOUS
10
115.309
20
-136.29
11
115.404
21
-136.194
0
LINE
8
BLACK
6
CONTINUOUS
10
115.404
20
-136.194
11
115.404
21
-136.385
0
LINE
8
BLACK
6
CONTINUOUS
10
116.452
20
-136.385
11
116.833
21
-136.385
0
LINE
8
BLACK
6
CONTINUOUS
10
116.833
20
-136.385
11
117.023
21
-136.29
0
LINE
8
BLACK
6
CONTINUOUS
10
117.023
20
-136.29
11
117.118
21
-136.194
0
LINE
8
BLACK
6
CONTINUOUS
10
117.118
20
-136.194
11
117.309
21
-135.909
0
LINE
8
BLACK
6
CONTINUOUS
10
117.309
20
-135.909
11
117.404
21
-135.528
0
LINE
8
BLACK
6
CONTINUOUS
10
117.404
20
-135.528
11
117.404
21
-134.766
0
LINE
8
BLACK
6
CONTINUOUS
10
117.404
20
-134.766
11
117.309
21
-134.575
0
LINE
8
BLACK
6
CONTINUOUS
10
117.309
20
-134.575
11
117.213
21
-134.48
0
LINE
8
BLACK
6
CONTINUOUS
10
117.213
20
-134.48
11
117.023
21
-134.385
0
LINE
8
BLACK
6
CONTINUOUS
10
117.023
20
-134.385
11
116.642
21
-134.385
0
LINE
8
BLACK
6
CONTINUOUS
10
116.642
20
-134.385
11
116.452
21
-134.48
0
LINE
8
BLACK
6
CONTINUOUS
10
116.452
20
-134.48
11
116.356
21
-134.575
0
LINE
8
BLACK
6
CONTINUOUS
10
116.356
20
-134.575
11
116.261
21
-134.766
0
LINE
8
BLACK
6
CONTINUOUS
10
116.261
20
-134.766
11
116.261
21
-135.242
0
LINE
8
BLACK
6
CONTINUOUS
10
116.261
20
-135.242
11
116.356
21
-135.432
0
LINE
8
BLACK
6
CONTINUOUS
10
116.356
20
-135.432
11
116.452
21
-135.528
0
LINE
8
BLACK
6
CONTINUOUS
10
116.452
20
-135.528
11
116.642
21
-135.623
0
LINE
8
BLACK
6
CONTINUOUS
10
116.642
20
-135.623
11
117.023
21
-135.623
0
LINE
8
BLACK
6
CONTINUOUS
10
117.023
20
-135.623
11
117.213
21
-135.528
0
LINE
8
BLACK
6
CONTINUOUS
10
117.213
20
-135.528
11
117.309
21
-135.432
0
LINE
8
BLACK
6
CONTINUOUS
10
117.309
20
-135.432
11
117.404
21
-135.242
0
LINE
8
BLACK
6
CONTINUOUS
10
118.642
20
-134.385
11
118.833
21
-134.385
0
LINE
8
BLACK
6
CONTINUOUS
10
118.833
20
-134.385
11
119.023
21
-134.48
0
LINE
8
BLACK
6
CONTINUOUS
10
119.023
20
-134.48
11
119.118
21
-134.575
0
LINE
8
BLACK
6
CONTINUOUS
10
119.118
20
-134.575
11
119.213
21
-134.766
0
LINE
8
BLACK
6
CONTINUOUS
10
119.213
20
-134.766
11
119.309
21
-135.147
0
LINE
8
BLACK
6
CONTINUOUS
10
119.309
20
-135.147
11
119.309
21
-135.623
0
LINE
8
BLACK
6
CONTINUOUS
10
119.309
20
-135.623
11
119.213
21
-136.004
0
LINE
8
BLACK
6
CONTINUOUS
10
119.213
20
-136.004
11
119.118
21
-136.194
0
LINE
8
BLACK
6
CONTINUOUS
10
119.118
20
-136.194
11
119.023
21
-136.29
0
LINE
8
BLACK
6
CONTINUOUS
10
119.023
20
-136.29
11
118.833
21
-136.385
0
LINE
8
BLACK
6
CONTINUOUS
10
118.833
20
-136.385
11
118.642
21
-136.385
0
LINE
8
BLACK
6
CONTINUOUS
10
118.642
20
-136.385
11
118.452
21
-136.29
0
LINE
8
BLACK
6
CONTINUOUS
10
118.452
20
-136.29
11
118.356
21
-136.194
0
LINE
8
BLACK
6
CONTINUOUS
10
118.356
20
-136.194
11
118.261
21
-136.004
0
LINE
8
BLACK
6
CONTINUOUS
10
118.261
20
-136.004
11
118.166
21
-135.623
0
LINE
8
BLACK
6
CONTINUOUS
10
118.166
20
-135.623
11
118.166
21
-135.147
0
LINE
8
BLACK
6
CONTINUOUS
10
118.166
20
-135.147
11
118.261
21
-134.766
0
LINE
8
BLACK
6
CONTINUOUS
10
118.261
20
-134.766
11
118.356
21
-134.575
0
LINE
8
BLACK
6
CONTINUOUS
10
118.356
20
-134.575
11
118.452
21
-134.48
0
LINE
8
BLACK
6
CONTINUOUS
10
118.452
20
-134.48
11
118.642
21
-134.385
0
LINE
8
BLACK
6
CONTINUOUS
10
120.547
20
-134.385
11
120.737
21
-134.385
0
LINE
8
BLACK
6
CONTINUOUS
10
120.737
20
-134.385
11
120.928
21
-134.48
0
LINE
8
BLACK
6
CONTINUOUS
10
120.928
20
-134.48
11
121.023
21
-134.575
0
LINE
8
BLACK
6
CONTINUOUS
10
121.023
20
-134.575
11
121.118
21
-134.766
0
LINE
8
BLACK
6
CONTINUOUS
10
121.118
20
-134.766
11
121.213
21
-135.147
0
LINE
8
BLACK
6
CONTINUOUS
10
121.213
20
-135.147
11
121.213
21
-135.623
0
LINE
8
BLACK
6
CONTINUOUS
10
121.213
20
-135.623
11
121.118
21
-136.004
0
LINE
8
BLACK
6
CONTINUOUS
10
121.118
20
-136.004
11
121.023
21
-136.194
0
LINE
8
BLACK
6
CONTINUOUS
10
121.023
20
-136.194
11
120.928
21
-136.29
0
LINE
8
BLACK
6
CONTINUOUS
10
120.928
20
-136.29
11
120.737
21
-136.385
0
LINE
8
BLACK
6
CONTINUOUS
10
120.737
20
-136.385
11
120.547
21
-136.385
0
LINE
8
BLACK
6
CONTINUOUS
10
120.547
20
-136.385
11
120.356
21
-136.29
0
LINE
8
BLACK
6
CONTINUOUS
10
120.356
20
-136.29
11
120.261
21
-136.194
0
LINE
8
BLACK
6
CONTINUOUS
10
120.261
20
-136.194
11
120.166
21
-136.004
0
LINE
8
BLACK
6
CONTINUOUS
10
120.166
20
-136.004
11
120.071
21
-135.623
0
LINE
8
BLACK
6
CONTINUOUS
10
120.071
20
-135.623
11
120.071
21
-135.147
0
LINE
8
BLACK
6
CONTINUOUS
10
120.071
20
-135.147
11
120.166
21
-134.766
0
LINE
8
BLACK
6
CONTINUOUS
10
120.166
20
-134.766
11
120.261
21
-134.575
0
LINE
8
BLACK
6
CONTINUOUS
10
120.261
20
-134.575
11
120.356
21
-134.48
0
LINE
8
BLACK
6
CONTINUOUS
10
120.356
20
-134.48
11
120.547
21
-134.385
0
LINE
8
BLACK
6
CONTINUOUS
10
122.071
20
-136.385
11
122.071
21
-135.051
0
LINE
8
BLACK
6
CONTINUOUS
10
122.071
20
-135.242
11
122.166
21
-135.147
0
LINE
8
BLACK
6
CONTINUOUS
10
122.166
20
-135.147
11
122.356
21
-135.051
0
LINE
8
BLACK
6
CONTINUOUS
10
122.356
20
-135.051
11
122.642
21
-135.051
0
LINE
8
BLACK
6
CONTINUOUS
10
122.642
20
-135.051
11
122.833
21
-135.147
0
LINE
8
BLACK
6
CONTINUOUS
10
122.833
20
-135.147
11
122.928
21
-135.337
0
LINE
8
BLACK
6
CONTINUOUS
10
122.928
20
-135.337
11
122.928
21
-136.385
0
LINE
8
BLACK
6
CONTINUOUS
10
122.928
20
-135.337
11
123.023
21
-135.147
0
LINE
8
BLACK
6
CONTINUOUS
10
123.023
20
-135.147
11
123.213
21
-135.051
0
LINE
8
BLACK
6
CONTINUOUS
10
123.213
20
-135.051
11
123.499
21
-135.051
0
LINE
8
BLACK
6
CONTINUOUS
10
123.499
20
-135.051
11
123.69
21
-135.147
0
LINE
8
BLACK
6
CONTINUOUS
10
123.69
20
-135.147
11
123.785
21
-135.337
0
LINE
8
BLACK
6
CONTINUOUS
10
123.785
20
-135.337
11
123.785
21
-136.385
0
LINE
8
BLACK
6
CONTINUOUS
10
124.737
20
-136.385
11
124.737
21
-135.051
0
LINE
8
BLACK
6
CONTINUOUS
10
124.737
20
-135.242
11
124.833
21
-135.147
0
LINE
8
BLACK
6
CONTINUOUS
10
124.833
20
-135.147
11
125.023
21
-135.051
0
LINE
8
BLACK
6
CONTINUOUS
10
125.023
20
-135.051
11
125.309
21
-135.051
0
LINE
8
BLACK
6
CONTINUOUS
10
125.309
20
-135.051
11
125.499
21
-135.147
0
LINE
8
BLACK
6
CONTINUOUS
10
125.499
20
-135.147
11
125.594
21
-135.337
0
LINE
8
BLACK
6
CONTINUOUS
10
125.594
20
-135.337
11
125.594
21
-136.385
0
LINE
8
BLACK
6
CONTINUOUS
10
125.594
20
-135.337
11
125.69
21
-135.147
0
LINE
8
BLACK
6
CONTINUOUS
10
125.69
20
-135.147
11
125.88
21
-135.051
0
LINE
8
BLACK
6
CONTINUOUS
10
125.88
20
-135.051
11
126.166
21
-135.051
0
LINE
8
BLACK
6
CONTINUOUS
10
126.166
20
-135.051
11
126.356
21
-135.147
0
LINE
8
BLACK
6
CONTINUOUS
10
126.356
20
-135.147
11
126.452
21
-135.337
0
LINE
8
BLACK
6
CONTINUOUS
10
126.452
20
-135.337
11
126.452
21
-136.385
0
LINE
8
BLACK
6
CONTINUOUS
10
130.356
20
-134.29
11
128.642
21
-136.861
0
LINE
8
BLACK
6
CONTINUOUS
10
132.928
20
-134.385
11
133.118
21
-134.385
0
LINE
8
BLACK
6
CONTINUOUS
10
133.118
20
-134.385
11
133.309
21
-134.48
0
LINE
8
BLACK
6
CONTINUOUS
10
133.309
20
-134.48
11
133.404
21
-134.575
0
LINE
8
BLACK
6
CONTINUOUS
10
133.404
20
-134.575
11
133.499
21
-134.766
0
LINE
8
BLACK
6
CONTINUOUS
10
133.499
20
-134.766
11
133.594
21
-135.147
0
LINE
8
BLACK
6
CONTINUOUS
10
133.594
20
-135.147
11
133.594
21
-135.623
0
LINE
8
BLACK
6
CONTINUOUS
10
133.594
20
-135.623
11
133.499
21
-136.004
0
LINE
8
BLACK
6
CONTINUOUS
10
133.499
20
-136.004
11
133.404
21
-136.194
0
LINE
8
BLACK
6
CONTINUOUS
10
133.404
20
-136.194
11
133.309
21
-136.29
0
LINE
8
BLACK
6
CONTINUOUS
10
133.309
20
-136.29
11
133.118
21
-136.385
0
LINE
8
BLACK
6
CONTINUOUS
10
133.118
20
-136.385
11
132.928
21
-136.385
0
LINE
8
BLACK
6
CONTINUOUS
10
132.928
20
-136.385
11
132.737
21
-136.29
0
LINE
8
BLACK
6
CONTINUOUS
10
132.737
20
-136.29
11
132.642
21
-136.194
0
LINE
8
BLACK
6
CONTINUOUS
10
132.642
20
-136.194
11
132.547
21
-136.004
0
LINE
8
BLACK
6
CONTINUOUS
10
132.547
20
-136.004
11
132.452
21
-135.623
0
LINE
8
BLACK
6
CONTINUOUS
10
132.452
20
-135.623
11
132.452
21
-135.147
0
LINE
8
BLACK
6
CONTINUOUS
10
132.452
20
-135.147
11
132.547
21
-134.766
0
LINE
8
BLACK
6
CONTINUOUS
10
132.547
20
-134.766
11
132.642
21
-134.575
0
LINE
8
BLACK
6
CONTINUOUS
10
132.642
20
-134.575
11
132.737
21
-134.48
0
LINE
8
BLACK
6
CONTINUOUS
10
132.737
20
-134.48
11
132.928
21
-134.385
0
LINE
8
BLACK
6
CONTINUOUS
10
134.452
20
-136.194
11
134.547
21
-136.29
0
LINE
8
BLACK
6
CONTINUOUS
10
134.547
20
-136.29
11
134.452
21
-136.385
0
LINE
8
BLACK
6
CONTINUOUS
10
134.452
20
-136.385
11
134.356
21
-136.29
0
LINE
8
BLACK
6
CONTINUOUS
10
134.356
20
-136.29
11
134.452
21
-136.194
0
LINE
8
BLACK
6
CONTINUOUS
10
134.452
20
-136.194
11
134.452
21
-136.385
0
LINE
8
BLACK
6
CONTINUOUS
10
135.785
20
-134.385
11
135.975
21
-134.385
0
LINE
8
BLACK
6
CONTINUOUS
10
135.975
20
-134.385
11
136.166
21
-134.48
0
LINE
8
BLACK
6
CONTINUOUS
10
136.166
20
-134.48
11
136.261
21
-134.575
0
LINE
8
BLACK
6
CONTINUOUS
10
136.261
20
-134.575
11
136.356
21
-134.766
0
LINE
8
BLACK
6
CONTINUOUS
10
136.356
20
-134.766
11
136.452
21
-135.147
0
LINE
8
BLACK
6
CONTINUOUS
10
136.452
20
-135.147
11
136.452
21
-135.623
0
LINE
8
BLACK
6
CONTINUOUS
10
136.452
20
-135.623
11
136.356
21
-136.004
0
LINE
8
BLACK
6
CONTINUOUS
10
136.356
20
-136.004
11
136.261
21
-136.194
0
LINE
8
BLACK
6
CONTINUOUS
10
136.261
20
-136.194
11
136.166
21
-136.29
0
LINE
8
BLACK
6
CONTINUOUS
10
136.166
20
-136.29
11
135.975
21
-136.385
0
LINE
8
BLACK
6
CONTINUOUS
10
135.975
20
-136.385
11
135.785
21
-136.385
0
LINE
8
BLACK
6
CONTINUOUS
10
135.785
20
-136.385
11
135.594
21
-136.29
0
LINE
8
BLACK
6
CONTINUOUS
10
135.594
20
-136.29
11
135.499
21
-136.194
0
LINE
8
BLACK
6
CONTINUOUS
10
135.499
20
-136.194
11
135.404
21
-136.004
0
LINE
8
BLACK
6
CONTINUOUS
10
135.404
20
-136.004
11
135.309
21
-135.623
0
LINE
8
BLACK
6
CONTINUOUS
10
135.309
20
-135.623
11
135.309
21
-135.147
0
LINE
8
BLACK
6
CONTINUOUS
10
135.309
20
-135.147
11
135.404
21
-134.766
0
LINE
8
BLACK
6
CONTINUOUS
10
135.404
20
-134.766
11
135.499
21
-134.575
0
LINE
8
BLACK
6
CONTINUOUS
10
135.499
20
-134.575
11
135.594
21
-134.48
0
LINE
8
BLACK
6
CONTINUOUS
10
135.594
20
-134.48
11
135.785
21
-134.385
0
LINE
8
BLACK
6
CONTINUOUS
10
137.118
20
-134.385
11
138.356
21
-134.385
0
LINE
8
BLACK
6
CONTINUOUS
10
138.356
20
-134.385
11
137.69
21
-135.147
0
LINE
8
BLACK
6
CONTINUOUS
10
137.69
20
-135.147
11
137.975
21
-135.147
0
LINE
8
BLACK
6
CONTINUOUS
10
137.975
20
-135.147
11
138.166
21
-135.242
0
LINE
8
BLACK
6
CONTINUOUS
10
138.166
20
-135.242
11
138.261
21
-135.337
0
LINE
8
BLACK
6
CONTINUOUS
10
138.261
20
-135.337
11
138.356
21
-135.528
0
LINE
8
BLACK
6
CONTINUOUS
10
138.356
20
-135.528
11
138.356
21
-136.004
0
LINE
8
BLACK
6
CONTINUOUS
10
138.356
20
-136.004
11
138.261
21
-136.194
0
LINE
8
BLACK
6
CONTINUOUS
10
138.261
20
-136.194
11
138.166
21
-136.29
0
LINE
8
BLACK
6
CONTINUOUS
10
138.166
20
-136.29
11
137.975
21
-136.385
0
LINE
8
BLACK
6
CONTINUOUS
10
137.975
20
-136.385
11
137.404
21
-136.385
0
LINE
8
BLACK
6
CONTINUOUS
10
137.404
20
-136.385
11
137.213
21
-136.29
0
LINE
8
BLACK
6
CONTINUOUS
10
137.213
20
-136.29
11
137.118
21
-136.194
0
LINE
8
BLACK
6
CONTINUOUS
10
140.166
20
-134.385
11
139.213
21
-134.385
0
LINE
8
BLACK
6
CONTINUOUS
10
139.213
20
-134.385
11
139.118
21
-135.337
0
LINE
8
BLACK
6
CONTINUOUS
10
139.118
20
-135.337
11
139.213
21
-135.242
0
LINE
8
BLACK
6
CONTINUOUS
10
139.213
20
-135.242
11
139.404
21
-135.147
0
LINE
8
BLACK
6
CONTINUOUS
10
139.404
20
-135.147
11
139.88
21
-135.147
0
LINE
8
BLACK
6
CONTINUOUS
10
139.88
20
-135.147
11
140.071
21
-135.242
0
LINE
8
BLACK
6
CONTINUOUS
10
140.071
20
-135.242
11
140.166
21
-135.337
0
LINE
8
BLACK
6
CONTINUOUS
10
140.166
20
-135.337
11
140.261
21
-135.528
0
LINE
8
BLACK
6
CONTINUOUS
10
140.261
20
-135.528
11
140.261
21
-136.004
0
LINE
8
BLACK
6
CONTINUOUS
10
140.261
20
-136.004
11
140.166
21
-136.194
0
LINE
8
BLACK
6
CONTINUOUS
10
140.166
20
-136.194
11
140.071
21
-136.29
0
LINE
8
BLACK
6
CONTINUOUS
10
140.071
20
-136.29
11
139.88
21
-136.385
0
LINE
8
BLACK
6
CONTINUOUS
10
139.88
20
-136.385
11
139.404
21
-136.385
0
LINE
8
BLACK
6
CONTINUOUS
10
139.404
20
-136.385
11
139.213
21
-136.29
0
LINE
8
BLACK
6
CONTINUOUS
10
139.213
20
-136.29
11
139.118
21
-136.194
0
LINE
8
BLACK
6
CONTINUOUS
10
141.975
20
-135.051
11
141.975
21
-136.385
0
LINE
8
BLACK
6
CONTINUOUS
10
141.499
20
-134.29
11
141.023
21
-135.718
0
LINE
8
BLACK
6
CONTINUOUS
10
141.023
20
-135.718
11
142.261
21
-135.718
0
LINE
8
BLACK
6
CONTINUOUS
10
142.928
20
-134.385
11
142.928
21
-134.766
0
LINE
8
BLACK
6
CONTINUOUS
10
143.69
20
-134.385
11
143.69
21
-134.766
0
LINE
8
BLACK
6
CONTINUOUS
10
146.642
20
-137.147
11
146.547
21
-137.051
0
LINE
8
BLACK
6
CONTINUOUS
10
146.547
20
-137.051
11
146.356
21
-136.766
0
LINE
8
BLACK
6
CONTINUOUS
10
146.356
20
-136.766
11
146.261
21
-136.575
0
LINE
8
BLACK
6
CONTINUOUS
10
146.261
20
-136.575
11
146.166
21
-136.29
0
LINE
8
BLACK
6
CONTINUOUS
10
146.166
20
-136.29
11
146.071
21
-135.813
0
LINE
8
BLACK
6
CONTINUOUS
10
146.071
20
-135.813
11
146.071
21
-135.432
0
LINE
8
BLACK
6
CONTINUOUS
10
146.071
20
-135.432
11
146.166
21
-134.956
0
LINE
8
BLACK
6
CONTINUOUS
10
146.166
20
-134.956
11
146.261
21
-134.67
0
LINE
8
BLACK
6
CONTINUOUS
10
146.261
20
-134.67
11
146.356
21
-134.48
0
LINE
8
BLACK
6
CONTINUOUS
10
146.356
20
-134.48
11
146.547
21
-134.194
0
LINE
8
BLACK
6
CONTINUOUS
10
146.547
20
-134.194
11
146.642
21
-134.099
0
LINE
8
BLACK
6
CONTINUOUS
10
148.261
20
-134.385
11
147.88
21
-134.385
0
LINE
8
BLACK
6
CONTINUOUS
10
147.88
20
-134.385
11
147.69
21
-134.48
0
LINE
8
BLACK
6
CONTINUOUS
10
147.69
20
-134.48
11
147.594
21
-134.575
0
LINE
8
BLACK
6
CONTINUOUS
10
147.594
20
-134.575
11
147.404
21
-134.861
0
LINE
8
BLACK
6
CONTINUOUS
10
147.404
20
-134.861
11
147.309
21
-135.242
0
LINE
8
BLACK
6
CONTINUOUS
10
147.309
20
-135.242
11
147.309
21
-136.004
0
LINE
8
BLACK
6
CONTINUOUS
10
147.309
20
-136.004
11
147.404
21
-136.194
0
LINE
8
BLACK
6
CONTINUOUS
10
147.404
20
-136.194
11
147.499
21
-136.29
0
LINE
8
BLACK
6
CONTINUOUS
10
147.499
20
-136.29
11
147.69
21
-136.385
0
LINE
8
BLACK
6
CONTINUOUS
10
147.69
20
-136.385
11
148.071
21
-136.385
0
LINE
8
BLACK
6
CONTINUOUS
10
148.071
20
-136.385
11
148.261
21
-136.29
0
LINE
8
BLACK
6
CONTINUOUS
10
148.261
20
-136.29
11
148.356
21
-136.194
0
LINE
8
BLACK
6
CONTINUOUS
10
148.356
20
-136.194
11
148.452
21
-136.004
0
LINE
8
BLACK
6
CONTINUOUS
10
148.452
20
-136.004
11
148.452
21
-135.528
0
LINE
8
BLACK
6
CONTINUOUS
10
148.452
20
-135.528
11
148.356
21
-135.337
0
LINE
8
BLACK
6
CONTINUOUS
10
148.356
20
-135.337
11
148.261
21
-135.242
0
LINE
8
BLACK
6
CONTINUOUS
10
148.261
20
-135.242
11
148.071
21
-135.147
0
LINE
8
BLACK
6
CONTINUOUS
10
148.071
20
-135.147
11
147.69
21
-135.147
0
LINE
8
BLACK
6
CONTINUOUS
10
147.69
20
-135.147
11
147.499
21
-135.242
0
LINE
8
BLACK
6
CONTINUOUS
10
147.499
20
-135.242
11
147.404
21
-135.337
0
LINE
8
BLACK
6
CONTINUOUS
10
147.404
20
-135.337
11
147.309
21
-135.528
0
LINE
8
BLACK
6
CONTINUOUS
10
150.833
20
-136.385
11
150.833
21
-134.385
0
LINE
8
BLACK
6
CONTINUOUS
10
151.69
20
-136.385
11
151.69
21
-135.337
0
LINE
8
BLACK
6
CONTINUOUS
10
151.69
20
-135.337
11
151.594
21
-135.147
0
LINE
8
BLACK
6
CONTINUOUS
10
151.594
20
-135.147
11
151.404
21
-135.051
0
LINE
8
BLACK
6
CONTINUOUS
10
151.404
20
-135.051
11
151.118
21
-135.051
0
LINE
8
BLACK
6
CONTINUOUS
10
151.118
20
-135.051
11
150.928
21
-135.147
0
LINE
8
BLACK
6
CONTINUOUS
10
150.928
20
-135.147
11
150.833
21
-135.242
0
LINE
8
BLACK
6
CONTINUOUS
10
152.928
20
-136.385
11
152.737
21
-136.29
0
LINE
8
BLACK
6
CONTINUOUS
10
152.737
20
-136.29
11
152.642
21
-136.194
0
LINE
8
BLACK
6
CONTINUOUS
10
152.642
20
-136.194
11
152.547
21
-136.004
0
LINE
8
BLACK
6
CONTINUOUS
10
152.547
20
-136.004
11
152.547
21
-135.432
0
LINE
8
BLACK
6
CONTINUOUS
10
152.547
20
-135.432
11
152.642
21
-135.242
0
LINE
8
BLACK
6
CONTINUOUS
10
152.642
20
-135.242
11
152.737
21
-135.147
0
LINE
8
BLACK
6
CONTINUOUS
10
152.737
20
-135.147
11
152.928
21
-135.051
0
LINE
8
BLACK
6
CONTINUOUS
10
152.928
20
-135.051
11
153.213
21
-135.051
0
LINE
8
BLACK
6
CONTINUOUS
10
153.213
20
-135.051
11
153.404
21
-135.147
0
LINE
8
BLACK
6
CONTINUOUS
10
153.404
20
-135.147
11
153.499
21
-135.242
0
LINE
8
BLACK
6
CONTINUOUS
10
153.499
20
-135.242
11
153.594
21
-135.432
0
LINE
8
BLACK
6
CONTINUOUS
10
153.594
20
-135.432
11
153.594
21
-136.004
0
LINE
8
BLACK
6
CONTINUOUS
10
153.594
20
-136.004
11
153.499
21
-136.194
0
LINE
8
BLACK
6
CONTINUOUS
10
153.499
20
-136.194
11
153.404
21
-136.29
0
LINE
8
BLACK
6
CONTINUOUS
10
153.404
20
-136.29
11
153.213
21
-136.385
0
LINE
8
BLACK
6
CONTINUOUS
10
153.213
20
-136.385
11
152.928
21
-136.385
0
LINE
8
BLACK
6
CONTINUOUS
10
154.737
20
-136.385
11
154.547
21
-136.29
0
LINE
8
BLACK
6
CONTINUOUS
10
154.547
20
-136.29
11
154.452
21
-136.099
0
LINE
8
BLACK
6
CONTINUOUS
10
154.452
20
-136.099
11
154.452
21
-134.385
0
LINE
8
BLACK
6
CONTINUOUS
10
156.261
20
-136.29
11
156.071
21
-136.385
0
LINE
8
BLACK
6
CONTINUOUS
10
156.071
20
-136.385
11
155.69
21
-136.385
0
LINE
8
BLACK
6
CONTINUOUS
10
155.69
20
-136.385
11
155.499
21
-136.29
0
LINE
8
BLACK
6
CONTINUOUS
10
155.499
20
-136.29
11
155.404
21
-136.099
0
LINE
8
BLACK
6
CONTINUOUS
10
155.404
20
-136.099
11
155.404
21
-135.337
0
LINE
8
BLACK
6
CONTINUOUS
10
155.404
20
-135.337
11
155.499
21
-135.147
0
LINE
8
BLACK
6
CONTINUOUS
10
155.499
20
-135.147
11
155.69
21
-135.051
0
LINE
8
BLACK
6
CONTINUOUS
10
155.69
20
-135.051
11
156.071
21
-135.051
0
LINE
8
BLACK
6
CONTINUOUS
10
156.071
20
-135.051
11
156.261
21
-135.147
0
LINE
8
BLACK
6
CONTINUOUS
10
156.261
20
-135.147
11
156.356
21
-135.337
0
LINE
8
BLACK
6
CONTINUOUS
10
156.356
20
-135.337
11
156.356
21
-135.528
0
LINE
8
BLACK
6
CONTINUOUS
10
156.356
20
-135.528
11
155.404
21
-135.718
0
LINE
8
BLACK
6
CONTINUOUS
10
157.118
20
-136.29
11
157.309
21
-136.385
0
LINE
8
BLACK
6
CONTINUOUS
10
157.309
20
-136.385
11
157.69
21
-136.385
0
LINE
8
BLACK
6
CONTINUOUS
10
157.69
20
-136.385
11
157.88
21
-136.29
0
LINE
8
BLACK
6
CONTINUOUS
10
157.88
20
-136.29
11
157.975
21
-136.099
0
LINE
8
BLACK
6
CONTINUOUS
10
157.975
20
-136.099
11
157.975
21
-136.004
0
LINE
8
BLACK
6
CONTINUOUS
10
157.975
20
-136.004
11
157.88
21
-135.813
0
LINE
8
BLACK
6
CONTINUOUS
10
157.88
20
-135.813
11
157.69
21
-135.718
0
LINE
8
BLACK
6
CONTINUOUS
10
157.69
20
-135.718
11
157.404
21
-135.718
0
LINE
8
BLACK
6
CONTINUOUS
10
157.404
20
-135.718
11
157.213
21
-135.623
0
LINE
8
BLACK
6
CONTINUOUS
10
157.213
20
-135.623
11
157.118
21
-135.432
0
LINE
8
BLACK
6
CONTINUOUS
10
157.118
20
-135.432
11
157.118
21
-135.337
0
LINE
8
BLACK
6
CONTINUOUS
10
157.118
20
-135.337
11
157.213
21
-135.147
0
LINE
8
BLACK
6
CONTINUOUS
10
157.213
20
-135.147
11
157.404
21
-135.051
0
LINE
8
BLACK
6
CONTINUOUS
10
157.404
20
-135.051
11
157.69
21
-135.051
0
LINE
8
BLACK
6
CONTINUOUS
10
157.69
20
-135.051
11
157.88
21
-135.147
0
LINE
8
BLACK
6
CONTINUOUS
10
158.642
20
-137.147
11
158.737
21
-137.051
0
LINE
8
BLACK
6
CONTINUOUS
10
158.737
20
-137.051
11
158.928
21
-136.766
0
LINE
8
BLACK
6
CONTINUOUS
10
158.928
20
-136.766
11
159.023
21
-136.575
0
LINE
8
BLACK
6
CONTINUOUS
10
159.023
20
-136.575
11
159.118
21
-136.29
0
LINE
8
BLACK
6
CONTINUOUS
10
159.118
20
-136.29
11
159.213
21
-135.813
0
LINE
8
BLACK
6
CONTINUOUS
10
159.213
20
-135.813
11
159.213
21
-135.432
0
LINE
8
BLACK
6
CONTINUOUS
10
159.213
20
-135.432
11
159.118
21
-134.956
0
LINE
8
BLACK
6
CONTINUOUS
10
159.118
20
-134.956
11
159.023
21
-134.67
0
LINE
8
BLACK
6
CONTINUOUS
10
159.023
20
-134.67
11
158.928
21
-134.48
0
LINE
8
BLACK
6
CONTINUOUS
10
158.928
20
-134.48
11
158.737
21
-134.194
0
LINE
8
BLACK
6
CONTINUOUS
10
158.737
20
-134.194
11
158.642
21
-134.099
0
LINE
8
BLACK
6
CONTINUOUS
10
110.448
20
-137.645
11
110.448
21
-138.595
0
LINE
8
BLACK
6
CONTINUOUS
10
109.973
20
-138.12
11
110.923
21
-138.12
0
LINE
8
BLACK
6
CONTINUOUS
10
113.88
20
-137.025
11
114.071
21
-137.025
0
LINE
8
BLACK
6
CONTINUOUS
10
114.071
20
-137.025
11
114.261
21
-137.12
0
LINE
8
BLACK
6
CONTINUOUS
10
114.261
20
-137.12
11
114.356
21
-137.215
0
LINE
8
BLACK
6
CONTINUOUS
10
114.356
20
-137.215
11
114.452
21
-137.406
0
LINE
8
BLACK
6
CONTINUOUS
10
114.452
20
-137.406
11
114.547
21
-137.787
0
LINE
8
BLACK
6
CONTINUOUS
10
114.547
20
-137.787
11
114.547
21
-138.263
0
LINE
8
BLACK
6
CONTINUOUS
10
114.547
20
-138.263
11
114.452
21
-138.644
0
LINE
8
BLACK
6
CONTINUOUS
10
114.452
20
-138.644
11
114.356
21
-138.834
0
LINE
8
BLACK
6
CONTINUOUS
10
114.356
20
-138.834
11
114.261
21
-138.93
0
LINE
8
BLACK
6
CONTINUOUS
10
114.261
20
-138.93
11
114.071
21
-139.025
0
LINE
8
BLACK
6
CONTINUOUS
10
114.071
20
-139.025
11
113.88
21
-139.025
0
LINE
8
BLACK
6
CONTINUOUS
10
113.88
20
-139.025
11
113.69
21
-138.93
0
LINE
8
BLACK
6
CONTINUOUS
10
113.69
20
-138.93
11
113.594
21
-138.834
0
LINE
8
BLACK
6
CONTINUOUS
10
113.594
20
-138.834
11
113.499
21
-138.644
0
LINE
8
BLACK
6
CONTINUOUS
10
113.499
20
-138.644
11
113.404
21
-138.263
0
LINE
8
BLACK
6
CONTINUOUS
10
113.404
20
-138.263
11
113.404
21
-137.787
0
LINE
8
BLACK
6
CONTINUOUS
10
113.404
20
-137.787
11
113.499
21
-137.406
0
LINE
8
BLACK
6
CONTINUOUS
10
113.499
20
-137.406
11
113.594
21
-137.215
0
LINE
8
BLACK
6
CONTINUOUS
10
113.594
20
-137.215
11
113.69
21
-137.12
0
LINE
8
BLACK
6
CONTINUOUS
10
113.69
20
-137.12
11
113.88
21
-137.025
0
LINE
8
BLACK
6
CONTINUOUS
10
115.404
20
-138.834
11
115.499
21
-138.93
0
LINE
8
BLACK
6
CONTINUOUS
10
115.499
20
-138.93
11
115.404
21
-139.025
0
LINE
8
BLACK
6
CONTINUOUS
10
115.404
20
-139.025
11
115.309
21
-138.93
0
LINE
8
BLACK
6
CONTINUOUS
10
115.309
20
-138.93
11
115.404
21
-138.834
0
LINE
8
BLACK
6
CONTINUOUS
10
115.404
20
-138.834
11
115.404
21
-139.025
0
LINE
8
BLACK
6
CONTINUOUS
10
116.452
20
-139.025
11
116.833
21
-139.025
0
LINE
8
BLACK
6
CONTINUOUS
10
116.833
20
-139.025
11
117.023
21
-138.93
0
LINE
8
BLACK
6
CONTINUOUS
10
117.023
20
-138.93
11
117.118
21
-138.834
0
LINE
8
BLACK
6
CONTINUOUS
10
117.118
20
-138.834
11
117.309
21
-138.549
0
LINE
8
BLACK
6
CONTINUOUS
10
117.309
20
-138.549
11
117.404
21
-138.168
0
LINE
8
BLACK
6
CONTINUOUS
10
117.404
20
-138.168
11
117.404
21
-137.406
0
LINE
8
BLACK
6
CONTINUOUS
10
117.404
20
-137.406
11
117.309
21
-137.215
0
LINE
8
BLACK
6
CONTINUOUS
10
117.309
20
-137.215
11
117.213
21
-137.12
0
LINE
8
BLACK
6
CONTINUOUS
10
117.213
20
-137.12
11
117.023
21
-137.025
0
LINE
8
BLACK
6
CONTINUOUS
10
117.023
20
-137.025
11
116.642
21
-137.025
0
LINE
8
BLACK
6
CONTINUOUS
10
116.642
20
-137.025
11
116.452
21
-137.12
0
LINE
8
BLACK
6
CONTINUOUS
10
116.452
20
-137.12
11
116.356
21
-137.215
0
LINE
8
BLACK
6
CONTINUOUS
10
116.356
20
-137.215
11
116.261
21
-137.406
0
LINE
8
BLACK
6
CONTINUOUS
10
116.261
20
-137.406
11
116.261
21
-137.882
0
LINE
8
BLACK
6
CONTINUOUS
10
116.261
20
-137.882
11
116.356
21
-138.072
0
LINE
8
BLACK
6
CONTINUOUS
10
116.356
20
-138.072
11
116.452
21
-138.168
0
LINE
8
BLACK
6
CONTINUOUS
10
116.452
20
-138.168
11
116.642
21
-138.263
0
LINE
8
BLACK
6
CONTINUOUS
10
116.642
20
-138.263
11
117.023
21
-138.263
0
LINE
8
BLACK
6
CONTINUOUS
10
117.023
20
-138.263
11
117.213
21
-138.168
0
LINE
8
BLACK
6
CONTINUOUS
10
117.213
20
-138.168
11
117.309
21
-138.072
0
LINE
8
BLACK
6
CONTINUOUS
10
117.309
20
-138.072
11
117.404
21
-137.882
0
LINE
8
BLACK
6
CONTINUOUS
10
119.213
20
-137.025
11
118.261
21
-137.025
0
LINE
8
BLACK
6
CONTINUOUS
10
118.261
20
-137.025
11
118.166
21
-137.977
0
LINE
8
BLACK
6
CONTINUOUS
10
118.166
20
-137.977
11
118.261
21
-137.882
0
LINE
8
BLACK
6
CONTINUOUS
10
118.261
20
-137.882
11
118.452
21
-137.787
0
LINE
8
BLACK
6
CONTINUOUS
10
118.452
20
-137.787
11
118.928
21
-137.787
0
LINE
8
BLACK
6
CONTINUOUS
10
118.928
20
-137.787
11
119.118
21
-137.882
0
LINE
8
BLACK
6
CONTINUOUS
10
119.118
20
-137.882
11
119.213
21
-137.977
0
LINE
8
BLACK
6
CONTINUOUS
10
119.213
20
-137.977
11
119.309
21
-138.168
0
LINE
8
BLACK
6
CONTINUOUS
10
119.309
20
-138.168
11
119.309
21
-138.644
0
LINE
8
BLACK
6
CONTINUOUS
10
119.309
20
-138.644
11
119.213
21
-138.834
0
LINE
8
BLACK
6
CONTINUOUS
10
119.213
20
-138.834
11
119.118
21
-138.93
0
LINE
8
BLACK
6
CONTINUOUS
10
119.118
20
-138.93
11
118.928
21
-139.025
0
LINE
8
BLACK
6
CONTINUOUS
10
118.928
20
-139.025
11
118.452
21
-139.025
0
LINE
8
BLACK
6
CONTINUOUS
10
118.452
20
-139.025
11
118.261
21
-138.93
0
LINE
8
BLACK
6
CONTINUOUS
10
118.261
20
-138.93
11
118.166
21
-138.834
0
LINE
8
BLACK
6
CONTINUOUS
10
120.547
20
-137.025
11
120.737
21
-137.025
0
LINE
8
BLACK
6
CONTINUOUS
10
120.737
20
-137.025
11
120.928
21
-137.12
0
LINE
8
BLACK
6
CONTINUOUS
10
120.928
20
-137.12
11
121.023
21
-137.215
0
LINE
8
BLACK
6
CONTINUOUS
10
121.023
20
-137.215
11
121.118
21
-137.406
0
LINE
8
BLACK
6
CONTINUOUS
10
121.118
20
-137.406
11
121.213
21
-137.787
0
LINE
8
BLACK
6
CONTINUOUS
10
121.213
20
-137.787
11
121.213
21
-138.263
0
LINE
8
BLACK
6
CONTINUOUS
10
121.213
20
-138.263
11
121.118
21
-138.644
0
LINE
8
BLACK
6
CONTINUOUS
10
121.118
20
-138.644
11
121.023
21
-138.834
0
LINE
8
BLACK
6
CONTINUOUS
10
121.023
20
-138.834
11
120.928
21
-138.93
0
LINE
8
BLACK
6
CONTINUOUS
10
120.928
20
-138.93
11
120.737
21
-139.025
0
LINE
8
BLACK
6
CONTINUOUS
10
120.737
20
-139.025
11
120.547
21
-139.025
0
LINE
8
BLACK
6
CONTINUOUS
10
120.547
20
-139.025
11
120.356
21
-138.93
0
LINE
8
BLACK
6
CONTINUOUS
10
120.356
20
-138.93
11
120.261
21
-138.834
0
LINE
8
BLACK
6
CONTINUOUS
10
120.261
20
-138.834
11
120.166
21
-138.644
0
LINE
8
BLACK
6
CONTINUOUS
10
120.166
20
-138.644
11
120.071
21
-138.263
0
LINE
8
BLACK
6
CONTINUOUS
10
120.071
20
-138.263
11
120.071
21
-137.787
0
LINE
8
BLACK
6
CONTINUOUS
10
120.071
20
-137.787
11
120.166
21
-137.406
0
LINE
8
BLACK
6
CONTINUOUS
10
120.166
20
-137.406
11
120.261
21
-137.215
0
LINE
8
BLACK
6
CONTINUOUS
10
120.261
20
-137.215
11
120.356
21
-137.12
0
LINE
8
BLACK
6
CONTINUOUS
10
120.356
20
-137.12
11
120.547
21
-137.025
0
LINE
8
BLACK
6
CONTINUOUS
10
122.071
20
-139.025
11
122.071
21
-137.691
0
LINE
8
BLACK
6
CONTINUOUS
10
122.071
20
-137.882
11
122.166
21
-137.787
0
LINE
8
BLACK
6
CONTINUOUS
10
122.166
20
-137.787
11
122.356
21
-137.691
0
LINE
8
BLACK
6
CONTINUOUS
10
122.356
20
-137.691
11
122.642
21
-137.691
0
LINE
8
BLACK
6
CONTINUOUS
10
122.642
20
-137.691
11
122.833
21
-137.787
0
LINE
8
BLACK
6
CONTINUOUS
10
122.833
20
-137.787
11
122.928
21
-137.977
0
LINE
8
BLACK
6
CONTINUOUS
10
122.928
20
-137.977
11
122.928
21
-139.025
0
LINE
8
BLACK
6
CONTINUOUS
10
122.928
20
-137.977
11
123.023
21
-137.787
0
LINE
8
BLACK
6
CONTINUOUS
10
123.023
20
-137.787
11
123.213
21
-137.691
0
LINE
8
BLACK
6
CONTINUOUS
10
123.213
20
-137.691
11
123.499
21
-137.691
0
LINE
8
BLACK
6
CONTINUOUS
10
123.499
20
-137.691
11
123.69
21
-137.787
0
LINE
8
BLACK
6
CONTINUOUS
10
123.69
20
-137.787
11
123.785
21
-137.977
0
LINE
8
BLACK
6
CONTINUOUS
10
123.785
20
-137.977
11
123.785
21
-139.025
0
LINE
8
BLACK
6
CONTINUOUS
10
124.737
20
-139.025
11
124.737
21
-137.691
0
LINE
8
BLACK
6
CONTINUOUS
10
124.737
20
-137.882
11
124.833
21
-137.787
0
LINE
8
BLACK
6
CONTINUOUS
10
124.833
20
-137.787
11
125.023
21
-137.691
0
LINE
8
BLACK
6
CONTINUOUS
10
125.023
20
-137.691
11
125.309
21
-137.691
0
LINE
8
BLACK
6
CONTINUOUS
10
125.309
20
-137.691
11
125.499
21
-137.787
0
LINE
8
BLACK
6
CONTINUOUS
10
125.499
20
-137.787
11
125.594
21
-137.977
0
LINE
8
BLACK
6
CONTINUOUS
10
125.594
20
-137.977
11
125.594
21
-139.025
0
LINE
8
BLACK
6
CONTINUOUS
10
125.594
20
-137.977
11
125.69
21
-137.787
0
LINE
8
BLACK
6
CONTINUOUS
10
125.69
20
-137.787
11
125.88
21
-137.691
0
LINE
8
BLACK
6
CONTINUOUS
10
125.88
20
-137.691
11
126.166
21
-137.691
0
LINE
8
BLACK
6
CONTINUOUS
10
126.166
20
-137.691
11
126.356
21
-137.787
0
LINE
8
BLACK
6
CONTINUOUS
10
126.356
20
-137.787
11
126.452
21
-137.977
0
LINE
8
BLACK
6
CONTINUOUS
10
126.452
20
-137.977
11
126.452
21
-139.025
0
LINE
8
BLACK
6
CONTINUOUS
10
130.356
20
-136.93
11
128.642
21
-139.501
0
LINE
8
BLACK
6
CONTINUOUS
10
132.928
20
-137.025
11
133.118
21
-137.025
0
LINE
8
BLACK
6
CONTINUOUS
10
133.118
20
-137.025
11
133.309
21
-137.12
0
LINE
8
BLACK
6
CONTINUOUS
10
133.309
20
-137.12
11
133.404
21
-137.215
0
LINE
8
BLACK
6
CONTINUOUS
10
133.404
20
-137.215
11
133.499
21
-137.406
0
LINE
8
BLACK
6
CONTINUOUS
10
133.499
20
-137.406
11
133.594
21
-137.787
0
LINE
8
BLACK
6
CONTINUOUS
10
133.594
20
-137.787
11
133.594
21
-138.263
0
LINE
8
BLACK
6
CONTINUOUS
10
133.594
20
-138.263
11
133.499
21
-138.644
0
LINE
8
BLACK
6
CONTINUOUS
10
133.499
20
-138.644
11
133.404
21
-138.834
0
LINE
8
BLACK
6
CONTINUOUS
10
133.404
20
-138.834
11
133.309
21
-138.93
0
LINE
8
BLACK
6
CONTINUOUS
10
133.309
20
-138.93
11
133.118
21
-139.025
0
LINE
8
BLACK
6
CONTINUOUS
10
133.118
20
-139.025
11
132.928
21
-139.025
0
LINE
8
BLACK
6
CONTINUOUS
10
132.928
20
-139.025
11
132.737
21
-138.93
0
LINE
8
BLACK
6
CONTINUOUS
10
132.737
20
-138.93
11
132.642
21
-138.834
0
LINE
8
BLACK
6
CONTINUOUS
10
132.642
20
-138.834
11
132.547
21
-138.644
0
LINE
8
BLACK
6
CONTINUOUS
10
132.547
20
-138.644
11
132.452
21
-138.263
0
LINE
8
BLACK
6
CONTINUOUS
10
132.452
20
-138.263
11
132.452
21
-137.787
0
LINE
8
BLACK
6
CONTINUOUS
10
132.452
20
-137.787
11
132.547
21
-137.406
0
LINE
8
BLACK
6
CONTINUOUS
10
132.547
20
-137.406
11
132.642
21
-137.215
0
LINE
8
BLACK
6
CONTINUOUS
10
132.642
20
-137.215
11
132.737
21
-137.12
0
LINE
8
BLACK
6
CONTINUOUS
10
132.737
20
-137.12
11
132.928
21
-137.025
0
LINE
8
BLACK
6
CONTINUOUS
10
134.452
20
-138.834
11
134.547
21
-138.93
0
LINE
8
BLACK
6
CONTINUOUS
10
134.547
20
-138.93
11
134.452
21
-139.025
0
LINE
8
BLACK
6
CONTINUOUS
10
134.452
20
-139.025
11
134.356
21
-138.93
0
LINE
8
BLACK
6
CONTINUOUS
10
134.356
20
-138.93
11
134.452
21
-138.834
0
LINE
8
BLACK
6
CONTINUOUS
10
134.452
20
-138.834
11
134.452
21
-139.025
0
LINE
8
BLACK
6
CONTINUOUS
10
135.785
20
-137.025
11
135.975
21
-137.025
0
LINE
8
BLACK
6
CONTINUOUS
10
135.975
20
-137.025
11
136.166
21
-137.12
0
LINE
8
BLACK
6
CONTINUOUS
10
136.166
20
-137.12
11
136.261
21
-137.215
0
LINE
8
BLACK
6
CONTINUOUS
10
136.261
20
-137.215
11
136.356
21
-137.406
0
LINE
8
BLACK
6
CONTINUOUS
10
136.356
20
-137.406
11
136.452
21
-137.787
0
LINE
8
BLACK
6
CONTINUOUS
10
136.452
20
-137.787
11
136.452
21
-138.263
0
LINE
8
BLACK
6
CONTINUOUS
10
136.452
20
-138.263
11
136.356
21
-138.644
0
LINE
8
BLACK
6
CONTINUOUS
10
136.356
20
-138.644
11
136.261
21
-138.834
0
LINE
8
BLACK
6
CONTINUOUS
10
136.261
20
-138.834
11
136.166
21
-138.93
0
LINE
8
BLACK
6
CONTINUOUS
10
136.166
20
-138.93
11
135.975
21
-139.025
0
LINE
8
BLACK
6
CONTINUOUS
10
135.975
20
-139.025
11
135.785
21
-139.025
0
LINE
8
BLACK
6
CONTINUOUS
10
135.785
20
-139.025
11
135.594
21
-138.93
0
LINE
8
BLACK
6
CONTINUOUS
10
135.594
20
-138.93
11
135.499
21
-138.834
0
LINE
8
BLACK
6
CONTINUOUS
10
135.499
20
-138.834
11
135.404
21
-138.644
0
LINE
8
BLACK
6
CONTINUOUS
10
135.404
20
-138.644
11
135.309
21
-138.263
0
LINE
8
BLACK
6
CONTINUOUS
10
135.309
20
-138.263
11
135.309
21
-137.787
0
LINE
8
BLACK
6
CONTINUOUS
10
135.309
20
-137.787
11
135.404
21
-137.406
0
LINE
8
BLACK
6
CONTINUOUS
10
135.404
20
-137.406
11
135.499
21
-137.215
0
LINE
8
BLACK
6
CONTINUOUS
10
135.499
20
-137.215
11
135.594
21
-137.12
0
LINE
8
BLACK
6
CONTINUOUS
10
135.594
20
-137.12
11
135.785
21
-137.025
0
LINE
8
BLACK
6
CONTINUOUS
10
137.118
20
-137.025
11
138.356
21
-137.025
0
LINE
8
BLACK
6
CONTINUOUS
10
138.356
20
-137.025
11
137.69
21
-137.787
0
LINE
8
BLACK
6
CONTINUOUS
10
137.69
20
-137.787
11
137.975
21
-137.787
0
LINE
8
BLACK
6
CONTINUOUS
10
137.975
20
-137.787
11
138.166
21
-137.882
0
LINE
8
BLACK
6
CONTINUOUS
10
138.166
20
-137.882
11
138.261
21
-137.977
0
LINE
8
BLACK
6
CONTINUOUS
10
138.261
20
-137.977
11
138.356
21
-138.168
0
LINE
8
BLACK
6
CONTINUOUS
10
138.356
20
-138.168
11
138.356
21
-138.644
0
LINE
8
BLACK
6
CONTINUOUS
10
138.356
20
-138.644
11
138.261
21
-138.834
0
LINE
8
BLACK
6
CONTINUOUS
10
138.261
20
-138.834
11
138.166
21
-138.93
0
LINE
8
BLACK
6
CONTINUOUS
10
138.166
20
-138.93
11
137.975
21
-139.025
0
LINE
8
BLACK
6
CONTINUOUS
10
137.975
20
-139.025
11
137.404
21
-139.025
0
LINE
8
BLACK
6
CONTINUOUS
10
137.404
20
-139.025
11
137.213
21
-138.93
0
LINE
8
BLACK
6
CONTINUOUS
10
137.213
20
-138.93
11
137.118
21
-138.834
0
LINE
8
BLACK
6
CONTINUOUS
10
139.023
20
-137.025
11
140.356
21
-137.025
0
LINE
8
BLACK
6
CONTINUOUS
10
140.356
20
-137.025
11
139.499
21
-139.025
0
LINE
8
BLACK
6
CONTINUOUS
10
141.975
20
-137.691
11
141.975
21
-139.025
0
LINE
8
BLACK
6
CONTINUOUS
10
141.499
20
-136.93
11
141.023
21
-138.358
0
LINE
8
BLACK
6
CONTINUOUS
10
141.023
20
-138.358
11
142.261
21
-138.358
0
LINE
8
BLACK
6
CONTINUOUS
10
142.928
20
-137.025
11
142.928
21
-137.406
0
LINE
8
BLACK
6
CONTINUOUS
10
143.69
20
-137.025
11
143.69
21
-137.406
0
LINE
8
BLACK
6
CONTINUOUS
10
146.642
20
-139.787
11
146.547
21
-139.691
0
LINE
8
BLACK
6
CONTINUOUS
10
146.547
20
-139.691
11
146.356
21
-139.406
0
LINE
8
BLACK
6
CONTINUOUS
10
146.356
20
-139.406
11
146.261
21
-139.215
0
LINE
8
BLACK
6
CONTINUOUS
10
146.261
20
-139.215
11
146.166
21
-138.93
0
LINE
8
BLACK
6
CONTINUOUS
10
146.166
20
-138.93
11
146.071
21
-138.453
0
LINE
8
BLACK
6
CONTINUOUS
10
146.071
20
-138.453
11
146.071
21
-138.072
0
LINE
8
BLACK
6
CONTINUOUS
10
146.071
20
-138.072
11
146.166
21
-137.596
0
LINE
8
BLACK
6
CONTINUOUS
10
146.166
20
-137.596
11
146.261
21
-137.31
0
LINE
8
BLACK
6
CONTINUOUS
10
146.261
20
-137.31
11
146.356
21
-137.12
0
LINE
8
BLACK
6
CONTINUOUS
10
146.356
20
-137.12
11
146.547
21
-136.834
0
LINE
8
BLACK
6
CONTINUOUS
10
146.547
20
-136.834
11
146.642
21
-136.739
0
LINE
8
BLACK
6
CONTINUOUS
10
147.213
20
-137.025
11
148.547
21
-137.025
0
LINE
8
BLACK
6
CONTINUOUS
10
148.547
20
-137.025
11
147.69
21
-139.025
0
LINE
8
BLACK
6
CONTINUOUS
10
150.833
20
-139.025
11
150.833
21
-137.025
0
LINE
8
BLACK
6
CONTINUOUS
10
151.69
20
-139.025
11
151.69
21
-137.977
0
LINE
8
BLACK
6
CONTINUOUS
10
151.69
20
-137.977
11
151.594
21
-137.787
0
LINE
8
BLACK
6
CONTINUOUS
10
151.594
20
-137.787
11
151.404
21
-137.691
0
LINE
8
BLACK
6
CONTINUOUS
10
151.404
20
-137.691
11
151.118
21
-137.691
0
LINE
8
BLACK
6
CONTINUOUS
10
151.118
20
-137.691
11
150.928
21
-137.787
0
LINE
8
BLACK
6
CONTINUOUS
10
150.928
20
-137.787
11
150.833
21
-137.882
0
LINE
8
BLACK
6
CONTINUOUS
10
152.928
20
-139.025
11
152.737
21
-138.93
0
LINE
8
BLACK
6
CONTINUOUS
10
152.737
20
-138.93
11
152.642
21
-138.834
0
LINE
8
BLACK
6
CONTINUOUS
10
152.642
20
-138.834
11
152.547
21
-138.644
0
LINE
8
BLACK
6
CONTINUOUS
10
152.547
20
-138.644
11
152.547
21
-138.072
0
LINE
8
BLACK
6
CONTINUOUS
10
152.547
20
-138.072
11
152.642
21
-137.882
0
LINE
8
BLACK
6
CONTINUOUS
10
152.642
20
-137.882
11
152.737
21
-137.787
0
LINE
8
BLACK
6
CONTINUOUS
10
152.737
20
-137.787
11
152.928
21
-137.691
0
LINE
8
BLACK
6
CONTINUOUS
10
152.928
20
-137.691
11
153.213
21
-137.691
0
LINE
8
BLACK
6
CONTINUOUS
10
153.213
20
-137.691
11
153.404
21
-137.787
0
LINE
8
BLACK
6
CONTINUOUS
10
153.404
20
-137.787
11
153.499
21
-137.882
0
LINE
8
BLACK
6
CONTINUOUS
10
153.499
20
-137.882
11
153.594
21
-138.072
0
LINE
8
BLACK
6
CONTINUOUS
10
153.594
20
-138.072
11
153.594
21
-138.644
0
LINE
8
BLACK
6
CONTINUOUS
10
153.594
20
-138.644
11
153.499
21
-138.834
0
LINE
8
BLACK
6
CONTINUOUS
10
153.499
20
-138.834
11
153.404
21
-138.93
0
LINE
8
BLACK
6
CONTINUOUS
10
153.404
20
-138.93
11
153.213
21
-139.025
0
LINE
8
BLACK
6
CONTINUOUS
10
153.213
20
-139.025
11
152.928
21
-139.025
0
LINE
8
BLACK
6
CONTINUOUS
10
154.737
20
-139.025
11
154.547
21
-138.93
0
LINE
8
BLACK
6
CONTINUOUS
10
154.547
20
-138.93
11
154.452
21
-138.739
0
LINE
8
BLACK
6
CONTINUOUS
10
154.452
20
-138.739
11
154.452
21
-137.025
0
LINE
8
BLACK
6
CONTINUOUS
10
156.261
20
-138.93
11
156.071
21
-139.025
0
LINE
8
BLACK
6
CONTINUOUS
10
156.071
20
-139.025
11
155.69
21
-139.025
0
LINE
8
BLACK
6
CONTINUOUS
10
155.69
20
-139.025
11
155.499
21
-138.93
0
LINE
8
BLACK
6
CONTINUOUS
10
155.499
20
-138.93
11
155.404
21
-138.739
0
LINE
8
BLACK
6
CONTINUOUS
10
155.404
20
-138.739
11
155.404
21
-137.977
0
LINE
8
BLACK
6
CONTINUOUS
10
155.404
20
-137.977
11
155.499
21
-137.787
0
LINE
8
BLACK
6
CONTINUOUS
10
155.499
20
-137.787
11
155.69
21
-137.691
0
LINE
8
BLACK
6
CONTINUOUS
10
155.69
20
-137.691
11
156.071
21
-137.691
0
LINE
8
BLACK
6
CONTINUOUS
10
156.071
20
-137.691
11
156.261
21
-137.787
0
LINE
8
BLACK
6
CONTINUOUS
10
156.261
20
-137.787
11
156.356
21
-137.977
0
LINE
8
BLACK
6
CONTINUOUS
10
156.356
20
-137.977
11
156.356
21
-138.168
0
LINE
8
BLACK
6
CONTINUOUS
10
156.356
20
-138.168
11
155.404
21
-138.358
0
LINE
8
BLACK
6
CONTINUOUS
10
157.118
20
-138.93
11
157.309
21
-139.025
0
LINE
8
BLACK
6
CONTINUOUS
10
157.309
20
-139.025
11
157.69
21
-139.025
0
LINE
8
BLACK
6
CONTINUOUS
10
157.69
20
-139.025
11
157.88
21
-138.93
0
LINE
8
BLACK
6
CONTINUOUS
10
157.88
20
-138.93
11
157.975
21
-138.739
0
LINE
8
BLACK
6
CONTINUOUS
10
157.975
20
-138.739
11
157.975
21
-138.644
0
LINE
8
BLACK
6
CONTINUOUS
10
157.975
20
-138.644
11
157.88
21
-138.453
0
LINE
8
BLACK
6
CONTINUOUS
10
157.88
20
-138.453
11
157.69
21
-138.358
0
LINE
8
BLACK
6
CONTINUOUS
10
157.69
20
-138.358
11
157.404
21
-138.358
0
LINE
8
BLACK
6
CONTINUOUS
10
157.404
20
-138.358
11
157.213
21
-138.263
0
LINE
8
BLACK
6
CONTINUOUS
10
157.213
20
-138.263
11
157.118
21
-138.072
0
LINE
8
BLACK
6
CONTINUOUS
10
157.118
20
-138.072
11
157.118
21
-137.977
0
LINE
8
BLACK
6
CONTINUOUS
10
157.118
20
-137.977
11
157.213
21
-137.787
0
LINE
8
BLACK
6
CONTINUOUS
10
157.213
20
-137.787
11
157.404
21
-137.691
0
LINE
8
BLACK
6
CONTINUOUS
10
157.404
20
-137.691
11
157.69
21
-137.691
0
LINE
8
BLACK
6
CONTINUOUS
10
157.69
20
-137.691
11
157.88
21
-137.787
0
LINE
8
BLACK
6
CONTINUOUS
10
158.642
20
-139.787
11
158.737
21
-139.691
0
LINE
8
BLACK
6
CONTINUOUS
10
158.737
20
-139.691
11
158.928
21
-139.406
0
LINE
8
BLACK
6
CONTINUOUS
10
158.928
20
-139.406
11
159.023
21
-139.215
0
LINE
8
BLACK
6
CONTINUOUS
10
159.023
20
-139.215
11
159.118
21
-138.93
0
LINE
8
BLACK
6
CONTINUOUS
10
159.118
20
-138.93
11
159.213
21
-138.453
0
LINE
8
BLACK
6
CONTINUOUS
10
159.213
20
-138.453
11
159.213
21
-138.072
0
LINE
8
BLACK
6
CONTINUOUS
10
159.213
20
-138.072
11
159.118
21
-137.596
0
LINE
8
BLACK
6
CONTINUOUS
10
159.118
20
-137.596
11
159.023
21
-137.31
0
LINE
8
BLACK
6
CONTINUOUS
10
159.023
20
-137.31
11
158.928
21
-137.12
0
LINE
8
BLACK
6
CONTINUOUS
10
158.928
20
-137.12
11
158.737
21
-136.834
0
LINE
8
BLACK
6
CONTINUOUS
10
158.737
20
-136.834
11
158.642
21
-136.739
0
LINE
8
BLACK
6
CONTINUOUS
10
110.777
20
-141.114
11
110.777
21
-140.406
0
LINE
8
BLACK
6
CONTINUOUS
10
110.777
20
-140.406
11
110.069
21
-140.406
0
LINE
8
BLACK
6
CONTINUOUS
10
110.069
20
-140.406
11
110.069
21
-141.114
0
LINE
8
BLACK
6
CONTINUOUS
10
110.069
20
-141.114
11
110.777
21
-141.114
0
LINE
8
BLACK
6
CONTINUOUS
10
114.547
20
-141.665
11
113.404
21
-141.665
0
LINE
8
BLACK
6
CONTINUOUS
10
113.975
20
-141.665
11
113.975
21
-139.665
0
LINE
8
BLACK
6
CONTINUOUS
10
113.975
20
-139.665
11
113.785
21
-139.95
0
LINE
8
BLACK
6
CONTINUOUS
10
113.785
20
-139.95
11
113.594
21
-140.141
0
LINE
8
BLACK
6
CONTINUOUS
10
113.594
20
-140.141
11
113.404
21
-140.236
0
LINE
8
BLACK
6
CONTINUOUS
10
115.404
20
-141.474
11
115.499
21
-141.57
0
LINE
8
BLACK
6
CONTINUOUS
10
115.499
20
-141.57
11
115.404
21
-141.665
0
LINE
8
BLACK
6
CONTINUOUS
10
115.404
20
-141.665
11
115.309
21
-141.57
0
LINE
8
BLACK
6
CONTINUOUS
10
115.309
20
-141.57
11
115.404
21
-141.474
0
LINE
8
BLACK
6
CONTINUOUS
10
115.404
20
-141.474
11
115.404
21
-141.665
0
LINE
8
BLACK
6
CONTINUOUS
10
116.737
20
-139.665
11
116.928
21
-139.665
0
LINE
8
BLACK
6
CONTINUOUS
10
116.928
20
-139.665
11
117.118
21
-139.76
0
LINE
8
BLACK
6
CONTINUOUS
10
117.118
20
-139.76
11
117.213
21
-139.855
0
LINE
8
BLACK
6
CONTINUOUS
10
117.213
20
-139.855
11
117.309
21
-140.046
0
LINE
8
BLACK
6
CONTINUOUS
10
117.309
20
-140.046
11
117.404
21
-140.427
0
LINE
8
BLACK
6
CONTINUOUS
10
117.404
20
-140.427
11
117.404
21
-140.903
0
LINE
8
BLACK
6
CONTINUOUS
10
117.404
20
-140.903
11
117.309
21
-141.284
0
LINE
8
BLACK
6
CONTINUOUS
10
117.309
20
-141.284
11
117.213
21
-141.474
0
LINE
8
BLACK
6
CONTINUOUS
10
117.213
20
-141.474
11
117.118
21
-141.57
0
LINE
8
BLACK
6
CONTINUOUS
10
117.118
20
-141.57
11
116.928
21
-141.665
0
LINE
8
BLACK
6
CONTINUOUS
10
116.928
20
-141.665
11
116.737
21
-141.665
0
LINE
8
BLACK
6
CONTINUOUS
10
116.737
20
-141.665
11
116.547
21
-141.57
0
LINE
8
BLACK
6
CONTINUOUS
10
116.547
20
-141.57
11
116.452
21
-141.474
0
LINE
8
BLACK
6
CONTINUOUS
10
116.452
20
-141.474
11
116.356
21
-141.284
0
LINE
8
BLACK
6
CONTINUOUS
10
116.356
20
-141.284
11
116.261
21
-140.903
0
LINE
8
BLACK
6
CONTINUOUS
10
116.261
20
-140.903
11
116.261
21
-140.427
0
LINE
8
BLACK
6
CONTINUOUS
10
116.261
20
-140.427
11
116.356
21
-140.046
0
LINE
8
BLACK
6
CONTINUOUS
10
116.356
20
-140.046
11
116.452
21
-139.855
0
LINE
8
BLACK
6
CONTINUOUS
10
116.452
20
-139.855
11
116.547
21
-139.76
0
LINE
8
BLACK
6
CONTINUOUS
10
116.547
20
-139.76
11
116.737
21
-139.665
0
LINE
8
BLACK
6
CONTINUOUS
10
118.642
20
-139.665
11
118.833
21
-139.665
0
LINE
8
BLACK
6
CONTINUOUS
10
118.833
20
-139.665
11
119.023
21
-139.76
0
LINE
8
BLACK
6
CONTINUOUS
10
119.023
20
-139.76
11
119.118
21
-139.855
0
LINE
8
BLACK
6
CONTINUOUS
10
119.118
20
-139.855
11
119.213
21
-140.046
0
LINE
8
BLACK
6
CONTINUOUS
10
119.213
20
-140.046
11
119.309
21
-140.427
0
LINE
8
BLACK
6
CONTINUOUS
10
119.309
20
-140.427
11
119.309
21
-140.903
0
LINE
8
BLACK
6
CONTINUOUS
10
119.309
20
-140.903
11
119.213
21
-141.284
0
LINE
8
BLACK
6
CONTINUOUS
10
119.213
20
-141.284
11
119.118
21
-141.474
0
LINE
8
BLACK
6
CONTINUOUS
10
119.118
20
-141.474
11
119.023
21
-141.57
0
LINE
8
BLACK
6
CONTINUOUS
10
119.023
20
-141.57
11
118.833
21
-141.665
0
LINE
8
BLACK
6
CONTINUOUS
10
118.833
20
-141.665
11
118.642
21
-141.665
0
LINE
8
BLACK
6
CONTINUOUS
10
118.642
20
-141.665
11
118.452
21
-141.57
0
LINE
8
BLACK
6
CONTINUOUS
10
118.452
20
-141.57
11
118.356
21
-141.474
0
LINE
8
BLACK
6
CONTINUOUS
10
118.356
20
-141.474
11
118.261
21
-141.284
0
LINE
8
BLACK
6
CONTINUOUS
10
118.261
20
-141.284
11
118.166
21
-140.903
0
LINE
8
BLACK
6
CONTINUOUS
10
118.166
20
-140.903
11
118.166
21
-140.427
0
LINE
8
BLACK
6
CONTINUOUS
10
118.166
20
-140.427
11
118.261
21
-140.046
0
LINE
8
BLACK
6
CONTINUOUS
10
118.261
20
-140.046
11
118.356
21
-139.855
0
LINE
8
BLACK
6
CONTINUOUS
10
118.356
20
-139.855
11
118.452
21
-139.76
0
LINE
8
BLACK
6
CONTINUOUS
10
118.452
20
-139.76
11
118.642
21
-139.665
0
LINE
8
BLACK
6
CONTINUOUS
10
120.547
20
-139.665
11
120.737
21
-139.665
0
LINE
8
BLACK
6
CONTINUOUS
10
120.737
20
-139.665
11
120.928
21
-139.76
0
LINE
8
BLACK
6
CONTINUOUS
10
120.928
20
-139.76
11
121.023
21
-139.855
0
LINE
8
BLACK
6
CONTINUOUS
10
121.023
20
-139.855
11
121.118
21
-140.046
0
LINE
8
BLACK
6
CONTINUOUS
10
121.118
20
-140.046
11
121.213
21
-140.427
0
LINE
8
BLACK
6
CONTINUOUS
10
121.213
20
-140.427
11
121.213
21
-140.903
0
LINE
8
BLACK
6
CONTINUOUS
10
121.213
20
-140.903
11
121.118
21
-141.284
0
LINE
8
BLACK
6
CONTINUOUS
10
121.118
20
-141.284
11
121.023
21
-141.474
0
LINE
8
BLACK
6
CONTINUOUS
10
121.023
20
-141.474
11
120.928
21
-141.57
0
LINE
8
BLACK
6
CONTINUOUS
10
120.928
20
-141.57
11
120.737
21
-141.665
0
LINE
8
BLACK
6
CONTINUOUS
10
120.737
20
-141.665
11
120.547
21
-141.665
0
LINE
8
BLACK
6
CONTINUOUS
10
120.547
20
-141.665
11
120.356
21
-141.57
0
LINE
8
BLACK
6
CONTINUOUS
10
120.356
20
-141.57
11
120.261
21
-141.474
0
LINE
8
BLACK
6
CONTINUOUS
10
120.261
20
-141.474
11
120.166
21
-141.284
0
LINE
8
BLACK
6
CONTINUOUS
10
120.166
20
-141.284
11
120.071
21
-140.903
0
LINE
8
BLACK
6
CONTINUOUS
10
120.071
20
-140.903
11
120.071
21
-140.427
0
LINE
8
BLACK
6
CONTINUOUS
10
120.071
20
-140.427
11
120.166
21
-140.046
0
LINE
8
BLACK
6
CONTINUOUS
10
120.166
20
-140.046
11
120.261
21
-139.855
0
LINE
8
BLACK
6
CONTINUOUS
10
120.261
20
-139.855
11
120.356
21
-139.76
0
LINE
8
BLACK
6
CONTINUOUS
10
120.356
20
-139.76
11
120.547
21
-139.665
0
LINE
8
BLACK
6
CONTINUOUS
10
122.071
20
-141.665
11
122.071
21
-140.331
0
LINE
8
BLACK
6
CONTINUOUS
10
122.071
20
-140.522
11
122.166
21
-140.427
0
LINE
8
BLACK
6
CONTINUOUS
10
122.166
20
-140.427
11
122.356
21
-140.331
0
LINE
8
BLACK
6
CONTINUOUS
10
122.356
20
-140.331
11
122.642
21
-140.331
0
LINE
8
BLACK
6
CONTINUOUS
10
122.642
20
-140.331
11
122.833
21
-140.427
0
LINE
8
BLACK
6
CONTINUOUS
10
122.833
20
-140.427
11
122.928
21
-140.617
0
LINE
8
BLACK
6
CONTINUOUS
10
122.928
20
-140.617
11
122.928
21
-141.665
0
LINE
8
BLACK
6
CONTINUOUS
10
122.928
20
-140.617
11
123.023
21
-140.427
0
LINE
8
BLACK
6
CONTINUOUS
10
123.023
20
-140.427
11
123.213
21
-140.331
0
LINE
8
BLACK
6
CONTINUOUS
10
123.213
20
-140.331
11
123.499
21
-140.331
0
LINE
8
BLACK
6
CONTINUOUS
10
123.499
20
-140.331
11
123.69
21
-140.427
0
LINE
8
BLACK
6
CONTINUOUS
10
123.69
20
-140.427
11
123.785
21
-140.617
0
LINE
8
BLACK
6
CONTINUOUS
10
123.785
20
-140.617
11
123.785
21
-141.665
0
LINE
8
BLACK
6
CONTINUOUS
10
124.737
20
-141.665
11
124.737
21
-140.331
0
LINE
8
BLACK
6
CONTINUOUS
10
124.737
20
-140.522
11
124.833
21
-140.427
0
LINE
8
BLACK
6
CONTINUOUS
10
124.833
20
-140.427
11
125.023
21
-140.331
0
LINE
8
BLACK
6
CONTINUOUS
10
125.023
20
-140.331
11
125.309
21
-140.331
0
LINE
8
BLACK
6
CONTINUOUS
10
125.309
20
-140.331
11
125.499
21
-140.427
0
LINE
8
BLACK
6
CONTINUOUS
10
125.499
20
-140.427
11
125.594
21
-140.617
0
LINE
8
BLACK
6
CONTINUOUS
10
125.594
20
-140.617
11
125.594
21
-141.665
0
LINE
8
BLACK
6
CONTINUOUS
10
125.594
20
-140.617
11
125.69
21
-140.427
0
LINE
8
BLACK
6
CONTINUOUS
10
125.69
20
-140.427
11
125.88
21
-140.331
0
LINE
8
BLACK
6
CONTINUOUS
10
125.88
20
-140.331
11
126.166
21
-140.331
0
LINE
8
BLACK
6
CONTINUOUS
10
126.166
20
-140.331
11
126.356
21
-140.427
0
LINE
8
BLACK
6
CONTINUOUS
10
126.356
20
-140.427
11
126.452
21
-140.617
0
LINE
8
BLACK
6
CONTINUOUS
10
126.452
20
-140.617
11
126.452
21
-141.665
0
LINE
8
BLACK
6
CONTINUOUS
10
130.356
20
-139.57
11
128.642
21
-142.141
0
LINE
8
BLACK
6
CONTINUOUS
10
132.928
20
-139.665
11
133.118
21
-139.665
0
LINE
8
BLACK
6
CONTINUOUS
10
133.118
20
-139.665
11
133.309
21
-139.76
0
LINE
8
BLACK
6
CONTINUOUS
10
133.309
20
-139.76
11
133.404
21
-139.855
0
LINE
8
BLACK
6
CONTINUOUS
10
133.404
20
-139.855
11
133.499
21
-140.046
0
LINE
8
BLACK
6
CONTINUOUS
10
133.499
20
-140.046
11
133.594
21
-140.427
0
LINE
8
BLACK
6
CONTINUOUS
10
133.594
20
-140.427
11
133.594
21
-140.903
0
LINE
8
BLACK
6
CONTINUOUS
10
133.594
20
-140.903
11
133.499
21
-141.284
0
LINE
8
BLACK
6
CONTINUOUS
10
133.499
20
-141.284
11
133.404
21
-141.474
0
LINE
8
BLACK
6
CONTINUOUS
10
133.404
20
-141.474
11
133.309
21
-141.57
0
LINE
8
BLACK
6
CONTINUOUS
10
133.309
20
-141.57
11
133.118
21
-141.665
0
LINE
8
BLACK
6
CONTINUOUS
10
133.118
20
-141.665
11
132.928
21
-141.665
0
LINE
8
BLACK
6
CONTINUOUS
10
132.928
20
-141.665
11
132.737
21
-141.57
0
LINE
8
BLACK
6
CONTINUOUS
10
132.737
20
-141.57
11
132.642
21
-141.474
0
LINE
8
BLACK
6
CONTINUOUS
10
132.642
20
-141.474
11
132.547
21
-141.284
0
LINE
8
BLACK
6
CONTINUOUS
10
132.547
20
-141.284
11
132.452
21
-140.903
0
LINE
8
BLACK
6
CONTINUOUS
10
132.452
20
-140.903
11
132.452
21
-140.427
0
LINE
8
BLACK
6
CONTINUOUS
10
132.452
20
-140.427
11
132.547
21
-140.046
0
LINE
8
BLACK
6
CONTINUOUS
10
132.547
20
-140.046
11
132.642
21
-139.855
0
LINE
8
BLACK
6
CONTINUOUS
10
132.642
20
-139.855
11
132.737
21
-139.76
0
LINE
8
BLACK
6
CONTINUOUS
10
132.737
20
-139.76
11
132.928
21
-139.665
0
LINE
8
BLACK
6
CONTINUOUS
10
134.452
20
-141.474
11
134.547
21
-141.57
0
LINE
8
BLACK
6
CONTINUOUS
10
134.547
20
-141.57
11
134.452
21
-141.665
0
LINE
8
BLACK
6
CONTINUOUS
10
134.452
20
-141.665
11
134.356
21
-141.57
0
LINE
8
BLACK
6
CONTINUOUS
10
134.356
20
-141.57
11
134.452
21
-141.474
0
LINE
8
BLACK
6
CONTINUOUS
10
134.452
20
-141.474
11
134.452
21
-141.665
0
LINE
8
BLACK
6
CONTINUOUS
10
135.785
20
-139.665
11
135.975
21
-139.665
0
LINE
8
BLACK
6
CONTINUOUS
10
135.975
20
-139.665
11
136.166
21
-139.76
0
LINE
8
BLACK
6
CONTINUOUS
10
136.166
20
-139.76
11
136.261
21
-139.855
0
LINE
8
BLACK
6
CONTINUOUS
10
136.261
20
-139.855
11
136.356
21
-140.046
0
LINE
8
BLACK
6
CONTINUOUS
10
136.356
20
-140.046
11
136.452
21
-140.427
0
LINE
8
BLACK
6
CONTINUOUS
10
136.452
20
-140.427
11
136.452
21
-140.903
0
LINE
8
BLACK
6
CONTINUOUS
10
136.452
20
-140.903
11
136.356
21
-141.284
0
LINE
8
BLACK
6
CONTINUOUS
10
136.356
20
-141.284
11
136.261
21
-141.474
0
LINE
8
BLACK
6
CONTINUOUS
10
136.261
20
-141.474
11
136.166
21
-141.57
0
LINE
8
BLACK
6
CONTINUOUS
10
136.166
20
-141.57
11
135.975
21
-141.665
0
LINE
8
BLACK
6
CONTINUOUS
10
135.975
20
-141.665
11
135.785
21
-141.665
0
LINE
8
BLACK
6
CONTINUOUS
10
135.785
20
-141.665
11
135.594
21
-141.57
0
LINE
8
BLACK
6
CONTINUOUS
10
135.594
20
-141.57
11
135.499
21
-141.474
0
LINE
8
BLACK
6
CONTINUOUS
10
135.499
20
-141.474
11
135.404
21
-141.284
0
LINE
8
BLACK
6
CONTINUOUS
10
135.404
20
-141.284
11
135.309
21
-140.903
0
LINE
8
BLACK
6
CONTINUOUS
10
135.309
20
-140.903
11
135.309
21
-140.427
0
LINE
8
BLACK
6
CONTINUOUS
10
135.309
20
-140.427
11
135.404
21
-140.046
0
LINE
8
BLACK
6
CONTINUOUS
10
135.404
20
-140.046
11
135.499
21
-139.855
0
LINE
8
BLACK
6
CONTINUOUS
10
135.499
20
-139.855
11
135.594
21
-139.76
0
LINE
8
BLACK
6
CONTINUOUS
10
135.594
20
-139.76
11
135.785
21
-139.665
0
LINE
8
BLACK
6
CONTINUOUS
10
137.118
20
-139.665
11
138.356
21
-139.665
0
LINE
8
BLACK
6
CONTINUOUS
10
138.356
20
-139.665
11
137.69
21
-140.427
0
LINE
8
BLACK
6
CONTINUOUS
10
137.69
20
-140.427
11
137.975
21
-140.427
0
LINE
8
BLACK
6
CONTINUOUS
10
137.975
20
-140.427
11
138.166
21
-140.522
0
LINE
8
BLACK
6
CONTINUOUS
10
138.166
20
-140.522
11
138.261
21
-140.617
0
LINE
8
BLACK
6
CONTINUOUS
10
138.261
20
-140.617
11
138.356
21
-140.808
0
LINE
8
BLACK
6
CONTINUOUS
10
138.356
20
-140.808
11
138.356
21
-141.284
0
LINE
8
BLACK
6
CONTINUOUS
10
138.356
20
-141.284
11
138.261
21
-141.474
0
LINE
8
BLACK
6
CONTINUOUS
10
138.261
20
-141.474
11
138.166
21
-141.57
0
LINE
8
BLACK
6
CONTINUOUS
10
138.166
20
-141.57
11
137.975
21
-141.665
0
LINE
8
BLACK
6
CONTINUOUS
10
137.975
20
-141.665
11
137.404
21
-141.665
0
LINE
8
BLACK
6
CONTINUOUS
10
137.404
20
-141.665
11
137.213
21
-141.57
0
LINE
8
BLACK
6
CONTINUOUS
10
137.213
20
-141.57
11
137.118
21
-141.474
0
LINE
8
BLACK
6
CONTINUOUS
10
139.309
20
-141.665
11
139.69
21
-141.665
0
LINE
8
BLACK
6
CONTINUOUS
10
139.69
20
-141.665
11
139.88
21
-141.57
0
LINE
8
BLACK
6
CONTINUOUS
10
139.88
20
-141.57
11
139.975
21
-141.474
0
LINE
8
BLACK
6
CONTINUOUS
10
139.975
20
-141.474
11
140.166
21
-141.189
0
LINE
8
BLACK
6
CONTINUOUS
10
140.166
20
-141.189
11
140.261
21
-140.808
0
LINE
8
BLACK
6
CONTINUOUS
10
140.261
20
-140.808
11
140.261
21
-140.046
0
LINE
8
BLACK
6
CONTINUOUS
10
140.261
20
-140.046
11
140.166
21
-139.855
0
LINE
8
BLACK
6
CONTINUOUS
10
140.166
20
-139.855
11
140.071
21
-139.76
0
LINE
8
BLACK
6
CONTINUOUS
10
140.071
20
-139.76
11
139.88
21
-139.665
0
LINE
8
BLACK
6
CONTINUOUS
10
139.88
20
-139.665
11
139.499
21
-139.665
0
LINE
8
BLACK
6
CONTINUOUS
10
139.499
20
-139.665
11
139.309
21
-139.76
0
LINE
8
BLACK
6
CONTINUOUS
10
139.309
20
-139.76
11
139.213
21
-139.855
0
LINE
8
BLACK
6
CONTINUOUS
10
139.213
20
-139.855
11
139.118
21
-140.046
0
LINE
8
BLACK
6
CONTINUOUS
10
139.118
20
-140.046
11
139.118
21
-140.522
0
LINE
8
BLACK
6
CONTINUOUS
10
139.118
20
-140.522
11
139.213
21
-140.712
0
LINE
8
BLACK
6
CONTINUOUS
10
139.213
20
-140.712
11
139.309
21
-140.808
0
LINE
8
BLACK
6
CONTINUOUS
10
139.309
20
-140.808
11
139.499
21
-140.903
0
LINE
8
BLACK
6
CONTINUOUS
10
139.499
20
-140.903
11
139.88
21
-140.903
0
LINE
8
BLACK
6
CONTINUOUS
10
139.88
20
-140.903
11
140.071
21
-140.808
0
LINE
8
BLACK
6
CONTINUOUS
10
140.071
20
-140.808
11
140.166
21
-140.712
0
LINE
8
BLACK
6
CONTINUOUS
10
140.166
20
-140.712
11
140.261
21
-140.522
0
LINE
8
BLACK
6
CONTINUOUS
10
141.975
20
-140.331
11
141.975
21
-141.665
0
LINE
8
BLACK
6
CONTINUOUS
10
141.499
20
-139.57
11
141.023
21
-140.998
0
LINE
8
BLACK
6
CONTINUOUS
10
141.023
20
-140.998
11
142.261
21
-140.998
0
LINE
8
BLACK
6
CONTINUOUS
10
142.928
20
-139.665
11
142.928
21
-140.046
0
LINE
8
BLACK
6
CONTINUOUS
10
143.69
20
-139.665
11
143.69
21
-140.046
0
LINE
8
BLACK
6
CONTINUOUS
10
146.642
20
-142.427
11
146.547
21
-142.331
0
LINE
8
BLACK
6
CONTINUOUS
10
146.547
20
-142.331
11
146.356
21
-142.046
0
LINE
8
BLACK
6
CONTINUOUS
10
146.356
20
-142.046
11
146.261
21
-141.855
0
LINE
8
BLACK
6
CONTINUOUS
10
146.261
20
-141.855
11
146.166
21
-141.57
0
LINE
8
BLACK
6
CONTINUOUS
10
146.166
20
-141.57
11
146.071
21
-141.093
0
LINE
8
BLACK
6
CONTINUOUS
10
146.071
20
-141.093
11
146.071
21
-140.712
0
LINE
8
BLACK
6
CONTINUOUS
10
146.071
20
-140.712
11
146.166
21
-140.236
0
LINE
8
BLACK
6
CONTINUOUS
10
146.166
20
-140.236
11
146.261
21
-139.95
0
LINE
8
BLACK
6
CONTINUOUS
10
146.261
20
-139.95
11
146.356
21
-139.76
0
LINE
8
BLACK
6
CONTINUOUS
10
146.356
20
-139.76
11
146.547
21
-139.474
0
LINE
8
BLACK
6
CONTINUOUS
10
146.547
20
-139.474
11
146.642
21
-139.379
0
LINE
8
BLACK
6
CONTINUOUS
10
147.69
20
-140.522
11
147.499
21
-140.427
0
LINE
8
BLACK
6
CONTINUOUS
10
147.499
20
-140.427
11
147.404
21
-140.331
0
LINE
8
BLACK
6
CONTINUOUS
10
147.404
20
-140.331
11
147.309
21
-140.141
0
LINE
8
BLACK
6
CONTINUOUS
10
147.309
20
-140.141
11
147.309
21
-140.046
0
LINE
8
BLACK
6
CONTINUOUS
10
147.309
20
-140.046
11
147.404
21
-139.855
0
LINE
8
BLACK
6
CONTINUOUS
10
147.404
20
-139.855
11
147.499
21
-139.76
0
LINE
8
BLACK
6
CONTINUOUS
10
147.499
20
-139.76
11
147.69
21
-139.665
0
LINE
8
BLACK
6
CONTINUOUS
10
147.69
20
-139.665
11
148.071
21
-139.665
0
LINE
8
BLACK
6
CONTINUOUS
10
148.071
20
-139.665
11
148.261
21
-139.76
0
LINE
8
BLACK
6
CONTINUOUS
10
148.261
20
-139.76
11
148.356
21
-139.855
0
LINE
8
BLACK
6
CONTINUOUS
10
148.356
20
-139.855
11
148.452
21
-140.046
0
LINE
8
BLACK
6
CONTINUOUS
10
148.452
20
-140.046
11
148.452
21
-140.141
0
LINE
8
BLACK
6
CONTINUOUS
10
148.452
20
-140.141
11
148.356
21
-140.331
0
LINE
8
BLACK
6
CONTINUOUS
10
148.356
20
-140.331
11
148.261
21
-140.427
0
LINE
8
BLACK
6
CONTINUOUS
10
148.261
20
-140.427
11
148.071
21
-140.522
0
LINE
8
BLACK
6
CONTINUOUS
10
148.071
20
-140.522
11
147.69
21
-140.522
0
LINE
8
BLACK
6
CONTINUOUS
10
147.69
20
-140.522
11
147.499
21
-140.617
0
LINE
8
BLACK
6
CONTINUOUS
10
147.499
20
-140.617
11
147.404
21
-140.712
0
LINE
8
BLACK
6
CONTINUOUS
10
147.404
20
-140.712
11
147.309
21
-140.903
0
LINE
8
BLACK
6
CONTINUOUS
10
147.309
20
-140.903
11
147.309
21
-141.284
0
LINE
8
BLACK
6
CONTINUOUS
10
147.309
20
-141.284
11
147.404
21
-141.474
0
LINE
8
BLACK
6
CONTINUOUS
10
147.404
20
-141.474
11
147.499
21
-141.57
0
LINE
8
BLACK
6
CONTINUOUS
10
147.499
20
-141.57
11
147.69
21
-141.665
0
LINE
8
BLACK
6
CONTINUOUS
10
147.69
20
-141.665
11
148.071
21
-141.665
0
LINE
8
BLACK
6
CONTINUOUS
10
148.071
20
-141.665
11
148.261
21
-141.57
0
LINE
8
BLACK
6
CONTINUOUS
10
148.261
20
-141.57
11
148.356
21
-141.474
0
LINE
8
BLACK
6
CONTINUOUS
10
148.356
20
-141.474
11
148.452
21
-141.284
0
LINE
8
BLACK
6
CONTINUOUS
10
148.452
20
-141.284
11
148.452
21
-140.903
0
LINE
8
BLACK
6
CONTINUOUS
10
148.452
20
-140.903
11
148.356
21
-140.712
0
LINE
8
BLACK
6
CONTINUOUS
10
148.356
20
-140.712
11
148.261
21
-140.617
0
LINE
8
BLACK
6
CONTINUOUS
10
148.261
20
-140.617
11
148.071
21
-140.522
0
LINE
8
BLACK
6
CONTINUOUS
10
150.833
20
-141.665
11
150.833
21
-139.665
0
LINE
8
BLACK
6
CONTINUOUS
10
151.69
20
-141.665
11
151.69
21
-140.617
0
LINE
8
BLACK
6
CONTINUOUS
10
151.69
20
-140.617
11
151.594
21
-140.427
0
LINE
8
BLACK
6
CONTINUOUS
10
151.594
20
-140.427
11
151.404
21
-140.331
0
LINE
8
BLACK
6
CONTINUOUS
10
151.404
20
-140.331
11
151.118
21
-140.331
0
LINE
8
BLACK
6
CONTINUOUS
10
151.118
20
-140.331
11
150.928
21
-140.427
0
LINE
8
BLACK
6
CONTINUOUS
10
150.928
20
-140.427
11
150.833
21
-140.522
0
LINE
8
BLACK
6
CONTINUOUS
10
152.928
20
-141.665
11
152.737
21
-141.57
0
LINE
8
BLACK
6
CONTINUOUS
10
152.737
20
-141.57
11
152.642
21
-141.474
0
LINE
8
BLACK
6
CONTINUOUS
10
152.642
20
-141.474
11
152.547
21
-141.284
0
LINE
8
BLACK
6
CONTINUOUS
10
152.547
20
-141.284
11
152.547
21
-140.712
0
LINE
8
BLACK
6
CONTINUOUS
10
152.547
20
-140.712
11
152.642
21
-140.522
0
LINE
8
BLACK
6
CONTINUOUS
10
152.642
20
-140.522
11
152.737
21
-140.427
0
LINE
8
BLACK
6
CONTINUOUS
10
152.737
20
-140.427
11
152.928
21
-140.331
0
LINE
8
BLACK
6
CONTINUOUS
10
152.928
20
-140.331
11
153.213
21
-140.331
0
LINE
8
BLACK
6
CONTINUOUS
10
153.213
20
-140.331
11
153.404
21
-140.427
0
LINE
8
BLACK
6
CONTINUOUS
10
153.404
20
-140.427
11
153.499
21
-140.522
0
LINE
8
BLACK
6
CONTINUOUS
10
153.499
20
-140.522
11
153.594
21
-140.712
0
LINE
8
BLACK
6
CONTINUOUS
10
153.594
20
-140.712
11
153.594
21
-141.284
0
LINE
8
BLACK
6
CONTINUOUS
10
153.594
20
-141.284
11
153.499
21
-141.474
0
LINE
8
BLACK
6
CONTINUOUS
10
153.499
20
-141.474
11
153.404
21
-141.57
0
LINE
8
BLACK
6
CONTINUOUS
10
153.404
20
-141.57
11
153.213
21
-141.665
0
LINE
8
BLACK
6
CONTINUOUS
10
153.213
20
-141.665
11
152.928
21
-141.665
0
LINE
8
BLACK
6
CONTINUOUS
10
154.737
20
-141.665
11
154.547
21
-141.57
0
LINE
8
BLACK
6
CONTINUOUS
10
154.547
20
-141.57
11
154.452
21
-141.379
0
LINE
8
BLACK
6
CONTINUOUS
10
154.452
20
-141.379
11
154.452
21
-139.665
0
LINE
8
BLACK
6
CONTINUOUS
10
156.261
20
-141.57
11
156.071
21
-141.665
0
LINE
8
BLACK
6
CONTINUOUS
10
156.071
20
-141.665
11
155.69
21
-141.665
0
LINE
8
BLACK
6
CONTINUOUS
10
155.69
20
-141.665
11
155.499
21
-141.57
0
LINE
8
BLACK
6
CONTINUOUS
10
155.499
20
-141.57
11
155.404
21
-141.379
0
LINE
8
BLACK
6
CONTINUOUS
10
155.404
20
-141.379
11
155.404
21
-140.617
0
LINE
8
BLACK
6
CONTINUOUS
10
155.404
20
-140.617
11
155.499
21
-140.427
0
LINE
8
BLACK
6
CONTINUOUS
10
155.499
20
-140.427
11
155.69
21
-140.331
0
LINE
8
BLACK
6
CONTINUOUS
10
155.69
20
-140.331
11
156.071
21
-140.331
0
LINE
8
BLACK
6
CONTINUOUS
10
156.071
20
-140.331
11
156.261
21
-140.427
0
LINE
8
BLACK
6
CONTINUOUS
10
156.261
20
-140.427
11
156.356
21
-140.617
0
LINE
8
BLACK
6
CONTINUOUS
10
156.356
20
-140.617
11
156.356
21
-140.808
0
LINE
8
BLACK
6
CONTINUOUS
10
156.356
20
-140.808
11
155.404
21
-140.998
0
LINE
8
BLACK
6
CONTINUOUS
10
157.118
20
-141.57
11
157.309
21
-141.665
0
LINE
8
BLACK
6
CONTINUOUS
10
157.309
20
-141.665
11
157.69
21
-141.665
0
LINE
8
BLACK
6
CONTINUOUS
10
157.69
20
-141.665
11
157.88
21
-141.57
0
LINE
8
BLACK
6
CONTINUOUS
10
157.88
20
-141.57
11
157.975
21
-141.379
0
LINE
8
BLACK
6
CONTINUOUS
10
157.975
20
-141.379
11
157.975
21
-141.284
0
LINE
8
BLACK
6
CONTINUOUS
10
157.975
20
-141.284
11
157.88
21
-141.093
0
LINE
8
BLACK
6
CONTINUOUS
10
157.88
20
-141.093
11
157.69
21
-140.998
0
LINE
8
BLACK
6
CONTINUOUS
10
157.69
20
-140.998
11
157.404
21
-140.998
0
LINE
8
BLACK
6
CONTINUOUS
10
157.404
20
-140.998
11
157.213
21
-140.903
0
LINE
8
BLACK
6
CONTINUOUS
10
157.213
20
-140.903
11
157.118
21
-140.712
0
LINE
8
BLACK
6
CONTINUOUS
10
157.118
20
-140.712
11
157.118
21
-140.617
0
LINE
8
BLACK
6
CONTINUOUS
10
157.118
20
-140.617
11
157.213
21
-140.427
0
LINE
8
BLACK
6
CONTINUOUS
10
157.213
20
-140.427
11
157.404
21
-140.331
0
LINE
8
BLACK
6
CONTINUOUS
10
157.404
20
-140.331
11
157.69
21
-140.331
0
LINE
8
BLACK
6
CONTINUOUS
10
157.69
20
-140.331
11
157.88
21
-140.427
0
LINE
8
BLACK
6
CONTINUOUS
10
158.642
20
-142.427
11
158.737
21
-142.331
0
LINE
8
BLACK
6
CONTINUOUS
10
158.737
20
-142.331
11
158.928
21
-142.046
0
LINE
8
BLACK
6
CONTINUOUS
10
158.928
20
-142.046
11
159.023
21
-141.855
0
LINE
8
BLACK
6
CONTINUOUS
10
159.023
20
-141.855
11
159.118
21
-141.57
0
LINE
8
BLACK
6
CONTINUOUS
10
159.118
20
-141.57
11
159.213
21
-141.093
0
LINE
8
BLACK
6
CONTINUOUS
10
159.213
20
-141.093
11
159.213
21
-140.712
0
LINE
8
BLACK
6
CONTINUOUS
10
159.213
20
-140.712
11
159.118
21
-140.236
0
LINE
8
BLACK
6
CONTINUOUS
10
159.118
20
-140.236
11
159.023
21
-139.95
0
LINE
8
BLACK
6
CONTINUOUS
10
159.023
20
-139.95
11
158.928
21
-139.76
0
LINE
8
BLACK
6
CONTINUOUS
10
158.928
20
-139.76
11
158.737
21
-139.474
0
LINE
8
BLACK
6
CONTINUOUS
10
158.737
20
-139.474
11
158.642
21
-139.379
0
LINE
8
BLACK
6
CONTINUOUS
10
110.423
20
-143.9
11
110.923
21
-143.4
0
LINE
8
BLACK
6
CONTINUOUS
10
110.923
20
-143.4
11
110.423
21
-142.9
0
LINE
8
BLACK
6
CONTINUOUS
10
110.423
20
-142.9
11
109.923
21
-143.4
0
LINE
8
BLACK
6
CONTINUOUS
10
109.923
20
-143.4
11
110.423
21
-143.9
0
LINE
8
BLACK
6
CONTINUOUS
10
114.547
20
-144.305
11
113.404
21
-144.305
0
LINE
8
BLACK
6
CONTINUOUS
10
113.975
20
-144.305
11
113.975
21
-142.305
0
LINE
8
BLACK
6
CONTINUOUS
10
113.975
20
-142.305
11
113.785
21
-142.59
0
LINE
8
BLACK
6
CONTINUOUS
10
113.785
20
-142.59
11
113.594
21
-142.781
0
LINE
8
BLACK
6
CONTINUOUS
10
113.594
20
-142.781
11
113.404
21
-142.876
0
LINE
8
BLACK
6
CONTINUOUS
10
115.404
20
-144.114
11
115.499
21
-144.21
0
LINE
8
BLACK
6
CONTINUOUS
10
115.499
20
-144.21
11
115.404
21
-144.305
0
LINE
8
BLACK
6
CONTINUOUS
10
115.404
20
-144.305
11
115.309
21
-144.21
0
LINE
8
BLACK
6
CONTINUOUS
10
115.309
20
-144.21
11
115.404
21
-144.114
0
LINE
8
BLACK
6
CONTINUOUS
10
115.404
20
-144.114
11
115.404
21
-144.305
0
LINE
8
BLACK
6
CONTINUOUS
10
116.737
20
-142.305
11
116.928
21
-142.305
0
LINE
8
BLACK
6
CONTINUOUS
10
116.928
20
-142.305
11
117.118
21
-142.4
0
LINE
8
BLACK
6
CONTINUOUS
10
117.118
20
-142.4
11
117.213
21
-142.495
0
LINE
8
BLACK
6
CONTINUOUS
10
117.213
20
-142.495
11
117.309
21
-142.686
0
LINE
8
BLACK
6
CONTINUOUS
10
117.309
20
-142.686
11
117.404
21
-143.067
0
LINE
8
BLACK
6
CONTINUOUS
10
117.404
20
-143.067
11
117.404
21
-143.543
0
LINE
8
BLACK
6
CONTINUOUS
10
117.404
20
-143.543
11
117.309
21
-143.924
0
LINE
8
BLACK
6
CONTINUOUS
10
117.309
20
-143.924
11
117.213
21
-144.114
0
LINE
8
BLACK
6
CONTINUOUS
10
117.213
20
-144.114
11
117.118
21
-144.21
0
LINE
8
BLACK
6
CONTINUOUS
10
117.118
20
-144.21
11
116.928
21
-144.305
0
LINE
8
BLACK
6
CONTINUOUS
10
116.928
20
-144.305
11
116.737
21
-144.305
0
LINE
8
BLACK
6
CONTINUOUS
10
116.737
20
-144.305
11
116.547
21
-144.21
0
LINE
8
BLACK
6
CONTINUOUS
10
116.547
20
-144.21
11
116.452
21
-144.114
0
LINE
8
BLACK
6
CONTINUOUS
10
116.452
20
-144.114
11
116.356
21
-143.924
0
LINE
8
BLACK
6
CONTINUOUS
10
116.356
20
-143.924
11
116.261
21
-143.543
0
LINE
8
BLACK
6
CONTINUOUS
10
116.261
20
-143.543
11
116.261
21
-143.067
0
LINE
8
BLACK
6
CONTINUOUS
10
116.261
20
-143.067
11
116.356
21
-142.686
0
LINE
8
BLACK
6
CONTINUOUS
10
116.356
20
-142.686
11
116.452
21
-142.495
0
LINE
8
BLACK
6
CONTINUOUS
10
116.452
20
-142.495
11
116.547
21
-142.4
0
LINE
8
BLACK
6
CONTINUOUS
10
116.547
20
-142.4
11
116.737
21
-142.305
0
LINE
8
BLACK
6
CONTINUOUS
10
118.642
20
-142.305
11
118.833
21
-142.305
0
LINE
8
BLACK
6
CONTINUOUS
10
118.833
20
-142.305
11
119.023
21
-142.4
0
LINE
8
BLACK
6
CONTINUOUS
10
119.023
20
-142.4
11
119.118
21
-142.495
0
LINE
8
BLACK
6
CONTINUOUS
10
119.118
20
-142.495
11
119.213
21
-142.686
0
LINE
8
BLACK
6
CONTINUOUS
10
119.213
20
-142.686
11
119.309
21
-143.067
0
LINE
8
BLACK
6
CONTINUOUS
10
119.309
20
-143.067
11
119.309
21
-143.543
0
LINE
8
BLACK
6
CONTINUOUS
10
119.309
20
-143.543
11
119.213
21
-143.924
0
LINE
8
BLACK
6
CONTINUOUS
10
119.213
20
-143.924
11
119.118
21
-144.114
0
LINE
8
BLACK
6
CONTINUOUS
10
119.118
20
-144.114
11
119.023
21
-144.21
0
LINE
8
BLACK
6
CONTINUOUS
10
119.023
20
-144.21
11
118.833
21
-144.305
0
LINE
8
BLACK
6
CONTINUOUS
10
118.833
20
-144.305
11
118.642
21
-144.305
0
LINE
8
BLACK
6
CONTINUOUS
10
118.642
20
-144.305
11
118.452
21
-144.21
0
LINE
8
BLACK
6
CONTINUOUS
10
118.452
20
-144.21
11
118.356
21
-144.114
0
LINE
8
BLACK
6
CONTINUOUS
10
118.356
20
-144.114
11
118.261
21
-143.924
0
LINE
8
BLACK
6
CONTINUOUS
10
118.261
20
-143.924
11
118.166
21
-143.543
0
LINE
8
BLACK
6
CONTINUOUS
10
118.166
20
-143.543
11
118.166
21
-143.067
0
LINE
8
BLACK
6
CONTINUOUS
10
118.166
20
-143.067
11
118.261
21
-142.686
0
LINE
8
BLACK
6
CONTINUOUS
10
118.261
20
-142.686
11
118.356
21
-142.495
0
LINE
8
BLACK
6
CONTINUOUS
10
118.356
20
-142.495
11
118.452
21
-142.4
0
LINE
8
BLACK
6
CONTINUOUS
10
118.452
20
-142.4
11
118.642
21
-142.305
0
LINE
8
BLACK
6
CONTINUOUS
10
120.547
20
-142.305
11
120.737
21
-142.305
0
LINE
8
BLACK
6
CONTINUOUS
10
120.737
20
-142.305
11
120.928
21
-142.4
0
LINE
8
BLACK
6
CONTINUOUS
10
120.928
20
-142.4
11
121.023
21
-142.495
0
LINE
8
BLACK
6
CONTINUOUS
10
121.023
20
-142.495
11
121.118
21
-142.686
0
LINE
8
BLACK
6
CONTINUOUS
10
121.118
20
-142.686
11
121.213
21
-143.067
0
LINE
8
BLACK
6
CONTINUOUS
10
121.213
20
-143.067
11
121.213
21
-143.543
0
LINE
8
BLACK
6
CONTINUOUS
10
121.213
20
-143.543
11
121.118
21
-143.924
0
LINE
8
BLACK
6
CONTINUOUS
10
121.118
20
-143.924
11
121.023
21
-144.114
0
LINE
8
BLACK
6
CONTINUOUS
10
121.023
20
-144.114
11
120.928
21
-144.21
0
LINE
8
BLACK
6
CONTINUOUS
10
120.928
20
-144.21
11
120.737
21
-144.305
0
LINE
8
BLACK
6
CONTINUOUS
10
120.737
20
-144.305
11
120.547
21
-144.305
0
LINE
8
BLACK
6
CONTINUOUS
10
120.547
20
-144.305
11
120.356
21
-144.21
0
LINE
8
BLACK
6
CONTINUOUS
10
120.356
20
-144.21
11
120.261
21
-144.114
0
LINE
8
BLACK
6
CONTINUOUS
10
120.261
20
-144.114
11
120.166
21
-143.924
0
LINE
8
BLACK
6
CONTINUOUS
10
120.166
20
-143.924
11
120.071
21
-143.543
0
LINE
8
BLACK
6
CONTINUOUS
10
120.071
20
-143.543
11
120.071
21
-143.067
0
LINE
8
BLACK
6
CONTINUOUS
10
120.071
20
-143.067
11
120.166
21
-142.686
0
LINE
8
BLACK
6
CONTINUOUS
10
120.166
20
-142.686
11
120.261
21
-142.495
0
LINE
8
BLACK
6
CONTINUOUS
10
120.261
20
-142.495
11
120.356
21
-142.4
0
LINE
8
BLACK
6
CONTINUOUS
10
120.356
20
-142.4
11
120.547
21
-142.305
0
LINE
8
BLACK
6
CONTINUOUS
10
122.071
20
-144.305
11
122.071
21
-142.971
0
LINE
8
BLACK
6
CONTINUOUS
10
122.071
20
-143.162
11
122.166
21
-143.067
0
LINE
8
BLACK
6
CONTINUOUS
10
122.166
20
-143.067
11
122.356
21
-142.971
0
LINE
8
BLACK
6
CONTINUOUS
10
122.356
20
-142.971
11
122.642
21
-142.971
0
LINE
8
BLACK
6
CONTINUOUS
10
122.642
20
-142.971
11
122.833
21
-143.067
0
LINE
8
BLACK
6
CONTINUOUS
10
122.833
20
-143.067
11
122.928
21
-143.257
0
LINE
8
BLACK
6
CONTINUOUS
10
122.928
20
-143.257
11
122.928
21
-144.305
0
LINE
8
BLACK
6
CONTINUOUS
10
122.928
20
-143.257
11
123.023
21
-143.067
0
LINE
8
BLACK
6
CONTINUOUS
10
123.023
20
-143.067
11
123.213
21
-142.971
0
LINE
8
BLACK
6
CONTINUOUS
10
123.213
20
-142.971
11
123.499
21
-142.971
0
LINE
8
BLACK
6
CONTINUOUS
10
123.499
20
-142.971
11
123.69
21
-143.067
0
LINE
8
BLACK
6
CONTINUOUS
10
123.69
20
-143.067
11
123.785
21
-143.257
0
LINE
8
BLACK
6
CONTINUOUS
10
123.785
20
-143.257
11
123.785
21
-144.305
0
LINE
8
BLACK
6
CONTINUOUS
10
124.737
20
-144.305
11
124.737
21
-142.971
0
LINE
8
BLACK
6
CONTINUOUS
10
124.737
20
-143.162
11
124.833
21
-143.067
0
LINE
8
BLACK
6
CONTINUOUS
10
124.833
20
-143.067
11
125.023
21
-142.971
0
LINE
8
BLACK
6
CONTINUOUS
10
125.023
20
-142.971
11
125.309
21
-142.971
0
LINE
8
BLACK
6
CONTINUOUS
10
125.309
20
-142.971
11
125.499
21
-143.067
0
LINE
8
BLACK
6
CONTINUOUS
10
125.499
20
-143.067
11
125.594
21
-143.257
0
LINE
8
BLACK
6
CONTINUOUS
10
125.594
20
-143.257
11
125.594
21
-144.305
0
LINE
8
BLACK
6
CONTINUOUS
10
125.594
20
-143.257
11
125.69
21
-143.067
0
LINE
8
BLACK
6
CONTINUOUS
10
125.69
20
-143.067
11
125.88
21
-142.971
0
LINE
8
BLACK
6
CONTINUOUS
10
125.88
20
-142.971
11
126.166
21
-142.971
0
LINE
8
BLACK
6
CONTINUOUS
10
126.166
20
-142.971
11
126.356
21
-143.067
0
LINE
8
BLACK
6
CONTINUOUS
10
126.356
20
-143.067
11
126.452
21
-143.257
0
LINE
8
BLACK
6
CONTINUOUS
10
126.452
20
-143.257
11
126.452
21
-144.305
0
LINE
8
BLACK
6
CONTINUOUS
10
130.356
20
-142.21
11
128.642
21
-144.781
0
LINE
8
BLACK
6
CONTINUOUS
10
132.928
20
-142.305
11
133.118
21
-142.305
0
LINE
8
BLACK
6
CONTINUOUS
10
133.118
20
-142.305
11
133.309
21
-142.4
0
LINE
8
BLACK
6
CONTINUOUS
10
133.309
20
-142.4
11
133.404
21
-142.495
0
LINE
8
BLACK
6
CONTINUOUS
10
133.404
20
-142.495
11
133.499
21
-142.686
0
LINE
8
BLACK
6
CONTINUOUS
10
133.499
20
-142.686
11
133.594
21
-143.067
0
LINE
8
BLACK
6
CONTINUOUS
10
133.594
20
-143.067
11
133.594
21
-143.543
0
LINE
8
BLACK
6
CONTINUOUS
10
133.594
20
-143.543
11
133.499
21
-143.924
0
LINE
8
BLACK
6
CONTINUOUS
10
133.499
20
-143.924
11
133.404
21
-144.114
0
LINE
8
BLACK
6
CONTINUOUS
10
133.404
20
-144.114
11
133.309
21
-144.21
0
LINE
8
BLACK
6
CONTINUOUS
10
133.309
20
-144.21
11
133.118
21
-144.305
0
LINE
8
BLACK
6
CONTINUOUS
10
133.118
20
-144.305
11
132.928
21
-144.305
0
LINE
8
BLACK
6
CONTINUOUS
10
132.928
20
-144.305
11
132.737
21
-144.21
0
LINE
8
BLACK
6
CONTINUOUS
10
132.737
20
-144.21
11
132.642
21
-144.114
0
LINE
8
BLACK
6
CONTINUOUS
10
132.642
20
-144.114
11
132.547
21
-143.924
0
LINE
8
BLACK
6
CONTINUOUS
10
132.547
20
-143.924
11
132.452
21
-143.543
0
LINE
8
BLACK
6
CONTINUOUS
10
132.452
20
-143.543
11
132.452
21
-143.067
0
LINE
8
BLACK
6
CONTINUOUS
10
132.452
20
-143.067
11
132.547
21
-142.686
0
LINE
8
BLACK
6
CONTINUOUS
10
132.547
20
-142.686
11
132.642
21
-142.495
0
LINE
8
BLACK
6
CONTINUOUS
10
132.642
20
-142.495
11
132.737
21
-142.4
0
LINE
8
BLACK
6
CONTINUOUS
10
132.737
20
-142.4
11
132.928
21
-142.305
0
LINE
8
BLACK
6
CONTINUOUS
10
134.452
20
-144.114
11
134.547
21
-144.21
0
LINE
8
BLACK
6
CONTINUOUS
10
134.547
20
-144.21
11
134.452
21
-144.305
0
LINE
8
BLACK
6
CONTINUOUS
10
134.452
20
-144.305
11
134.356
21
-144.21
0
LINE
8
BLACK
6
CONTINUOUS
10
134.356
20
-144.21
11
134.452
21
-144.114
0
LINE
8
BLACK
6
CONTINUOUS
10
134.452
20
-144.114
11
134.452
21
-144.305
0
LINE
8
BLACK
6
CONTINUOUS
10
135.785
20
-142.305
11
135.975
21
-142.305
0
LINE
8
BLACK
6
CONTINUOUS
10
135.975
20
-142.305
11
136.166
21
-142.4
0
LINE
8
BLACK
6
CONTINUOUS
10
136.166
20
-142.4
11
136.261
21
-142.495
0
LINE
8
BLACK
6
CONTINUOUS
10
136.261
20
-142.495
11
136.356
21
-142.686
0
LINE
8
BLACK
6
CONTINUOUS
10
136.356
20
-142.686
11
136.452
21
-143.067
0
LINE
8
BLACK
6
CONTINUOUS
10
136.452
20
-143.067
11
136.452
21
-143.543
0
LINE
8
BLACK
6
CONTINUOUS
10
136.452
20
-143.543
11
136.356
21
-143.924
0
LINE
8
BLACK
6
CONTINUOUS
10
136.356
20
-143.924
11
136.261
21
-144.114
0
LINE
8
BLACK
6
CONTINUOUS
10
136.261
20
-144.114
11
136.166
21
-144.21
0
LINE
8
BLACK
6
CONTINUOUS
10
136.166
20
-144.21
11
135.975
21
-144.305
0
LINE
8
BLACK
6
CONTINUOUS
10
135.975
20
-144.305
11
135.785
21
-144.305
0
LINE
8
BLACK
6
CONTINUOUS
10
135.785
20
-144.305
11
135.594
21
-144.21
0
LINE
8
BLACK
6
CONTINUOUS
10
135.594
20
-144.21
11
135.499
21
-144.114
0
LINE
8
BLACK
6
CONTINUOUS
10
135.499
20
-144.114
11
135.404
21
-143.924
0
LINE
8
BLACK
6
CONTINUOUS
10
135.404
20
-143.924
11
135.309
21
-143.543
0
LINE
8
BLACK
6
CONTINUOUS
10
135.309
20
-143.543
11
135.309
21
-143.067
0
LINE
8
BLACK
6
CONTINUOUS
10
135.309
20
-143.067
11
135.404
21
-142.686
0
LINE
8
BLACK
6
CONTINUOUS
10
135.404
20
-142.686
11
135.499
21
-142.495
0
LINE
8
BLACK
6
CONTINUOUS
10
135.499
20
-142.495
11
135.594
21
-142.4
0
LINE
8
BLACK
6
CONTINUOUS
10
135.594
20
-142.4
11
135.785
21
-142.305
0
LINE
8
BLACK
6
CONTINUOUS
10
137.118
20
-142.305
11
138.356
21
-142.305
0
LINE
8
BLACK
6
CONTINUOUS
10
138.356
20
-142.305
11
137.69
21
-143.067
0
LINE
8
BLACK
6
CONTINUOUS
10
137.69
20
-143.067
11
137.975
21
-143.067
0
LINE
8
BLACK
6
CONTINUOUS
10
137.975
20
-143.067
11
138.166
21
-143.162
0
LINE
8
BLACK
6
CONTINUOUS
10
138.166
20
-143.162
11
138.261
21
-143.257
0
LINE
8
BLACK
6
CONTINUOUS
10
138.261
20
-143.257
11
138.356
21
-143.448
0
LINE
8
BLACK
6
CONTINUOUS
10
138.356
20
-143.448
11
138.356
21
-143.924
0
LINE
8
BLACK
6
CONTINUOUS
10
138.356
20
-143.924
11
138.261
21
-144.114
0
LINE
8
BLACK
6
CONTINUOUS
10
138.261
20
-144.114
11
138.166
21
-144.21
0
LINE
8
BLACK
6
CONTINUOUS
10
138.166
20
-144.21
11
137.975
21
-144.305
0
LINE
8
BLACK
6
CONTINUOUS
10
137.975
20
-144.305
11
137.404
21
-144.305
0
LINE
8
BLACK
6
CONTINUOUS
10
137.404
20
-144.305
11
137.213
21
-144.21
0
LINE
8
BLACK
6
CONTINUOUS
10
137.213
20
-144.21
11
137.118
21
-144.114
0
LINE
8
BLACK
6
CONTINUOUS
10
139.309
20
-144.305
11
139.69
21
-144.305
0
LINE
8
BLACK
6
CONTINUOUS
10
139.69
20
-144.305
11
139.88
21
-144.21
0
LINE
8
BLACK
6
CONTINUOUS
10
139.88
20
-144.21
11
139.975
21
-144.114
0
LINE
8
BLACK
6
CONTINUOUS
10
139.975
20
-144.114
11
140.166
21
-143.829
0
LINE
8
BLACK
6
CONTINUOUS
10
140.166
20
-143.829
11
140.261
21
-143.448
0
LINE
8
BLACK
6
CONTINUOUS
10
140.261
20
-143.448
11
140.261
21
-142.686
0
LINE
8
BLACK
6
CONTINUOUS
10
140.261
20
-142.686
11
140.166
21
-142.495
0
LINE
8
BLACK
6
CONTINUOUS
10
140.166
20
-142.495
11
140.071
21
-142.4
0
LINE
8
BLACK
6
CONTINUOUS
10
140.071
20
-142.4
11
139.88
21
-142.305
0
LINE
8
BLACK
6
CONTINUOUS
10
139.88
20
-142.305
11
139.499
21
-142.305
0
LINE
8
BLACK
6
CONTINUOUS
10
139.499
20
-142.305
11
139.309
21
-142.4
0
LINE
8
BLACK
6
CONTINUOUS
10
139.309
20
-142.4
11
139.213
21
-142.495
0
LINE
8
BLACK
6
CONTINUOUS
10
139.213
20
-142.495
11
139.118
21
-142.686
0
LINE
8
BLACK
6
CONTINUOUS
10
139.118
20
-142.686
11
139.118
21
-143.162
0
LINE
8
BLACK
6
CONTINUOUS
10
139.118
20
-143.162
11
139.213
21
-143.352
0
LINE
8
BLACK
6
CONTINUOUS
10
139.213
20
-143.352
11
139.309
21
-143.448
0
LINE
8
BLACK
6
CONTINUOUS
10
139.309
20
-143.448
11
139.499
21
-143.543
0
LINE
8
BLACK
6
CONTINUOUS
10
139.499
20
-143.543
11
139.88
21
-143.543
0
LINE
8
BLACK
6
CONTINUOUS
10
139.88
20
-143.543
11
140.071
21
-143.448
0
LINE
8
BLACK
6
CONTINUOUS
10
140.071
20
-143.448
11
140.166
21
-143.352
0
LINE
8
BLACK
6
CONTINUOUS
10
140.166
20
-143.352
11
140.261
21
-143.162
0
LINE
8
BLACK
6
CONTINUOUS
10
141.975
20
-142.971
11
141.975
21
-144.305
0
LINE
8
BLACK
6
CONTINUOUS
10
141.499
20
-142.21
11
141.023
21
-143.638
0
LINE
8
BLACK
6
CONTINUOUS
10
141.023
20
-143.638
11
142.261
21
-143.638
0
LINE
8
BLACK
6
CONTINUOUS
10
142.928
20
-142.305
11
142.928
21
-142.686
0
LINE
8
BLACK
6
CONTINUOUS
10
143.69
20
-142.305
11
143.69
21
-142.686
0
LINE
8
BLACK
6
CONTINUOUS
10
146.642
20
-145.067
11
146.547
21
-144.971
0
LINE
8
BLACK
6
CONTINUOUS
10
146.547
20
-144.971
11
146.356
21
-144.686
0
LINE
8
BLACK
6
CONTINUOUS
10
146.356
20
-144.686
11
146.261
21
-144.495
0
LINE
8
BLACK
6
CONTINUOUS
10
146.261
20
-144.495
11
146.166
21
-144.21
0
LINE
8
BLACK
6
CONTINUOUS
10
146.166
20
-144.21
11
146.071
21
-143.733
0
LINE
8
BLACK
6
CONTINUOUS
10
146.071
20
-143.733
11
146.071
21
-143.352
0
LINE
8
BLACK
6
CONTINUOUS
10
146.071
20
-143.352
11
146.166
21
-142.876
0
LINE
8
BLACK
6
CONTINUOUS
10
146.166
20
-142.876
11
146.261
21
-142.59
0
LINE
8
BLACK
6
CONTINUOUS
10
146.261
20
-142.59
11
146.356
21
-142.4
0
LINE
8
BLACK
6
CONTINUOUS
10
146.356
20
-142.4
11
146.547
21
-142.114
0
LINE
8
BLACK
6
CONTINUOUS
10
146.547
20
-142.114
11
146.642
21
-142.019
0
LINE
8
BLACK
6
CONTINUOUS
10
147.213
20
-142.305
11
148.452
21
-142.305
0
LINE
8
BLACK
6
CONTINUOUS
10
148.452
20
-142.305
11
147.785
21
-143.067
0
LINE
8
BLACK
6
CONTINUOUS
10
147.785
20
-143.067
11
148.071
21
-143.067
0
LINE
8
BLACK
6
CONTINUOUS
10
148.071
20
-143.067
11
148.261
21
-143.162
0
LINE
8
BLACK
6
CONTINUOUS
10
148.261
20
-143.162
11
148.356
21
-143.257
0
LINE
8
BLACK
6
CONTINUOUS
10
148.356
20
-143.257
11
148.452
21
-143.448
0
LINE
8
BLACK
6
CONTINUOUS
10
148.452
20
-143.448
11
148.452
21
-143.924
0
LINE
8
BLACK
6
CONTINUOUS
10
148.452
20
-143.924
11
148.356
21
-144.114
0
LINE
8
BLACK
6
CONTINUOUS
10
148.356
20
-144.114
11
148.261
21
-144.21
0
LINE
8
BLACK
6
CONTINUOUS
10
148.261
20
-144.21
11
148.071
21
-144.305
0
LINE
8
BLACK
6
CONTINUOUS
10
148.071
20
-144.305
11
147.499
21
-144.305
0
LINE
8
BLACK
6
CONTINUOUS
10
147.499
20
-144.305
11
147.309
21
-144.21
0
LINE
8
BLACK
6
CONTINUOUS
10
147.309
20
-144.21
11
147.213
21
-144.114
0
LINE
8
BLACK
6
CONTINUOUS
10
150.833
20
-144.305
11
150.833
21
-142.305
0
LINE
8
BLACK
6
CONTINUOUS
10
151.69
20
-144.305
11
151.69
21
-143.257
0
LINE
8
BLACK
6
CONTINUOUS
10
151.69
20
-143.257
11
151.594
21
-143.067
0
LINE
8
BLACK
6
CONTINUOUS
10
151.594
20
-143.067
11
151.404
21
-142.971
0
LINE
8
BLACK
6
CONTINUOUS
10
151.404
20
-142.971
11
151.118
21
-142.971
0
LINE
8
BLACK
6
CONTINUOUS
10
151.118
20
-142.971
11
150.928
21
-143.067
0
LINE
8
BLACK
6
CONTINUOUS
10
150.928
20
-143.067
11
150.833
21
-143.162
0
LINE
8
BLACK
6
CONTINUOUS
10
152.928
20
-144.305
11
152.737
21
-144.21
0
LINE
8
BLACK
6
CONTINUOUS
10
152.737
20
-144.21
11
152.642
21
-144.114
0
LINE
8
BLACK
6
CONTINUOUS
10
152.642
20
-144.114
11
152.547
21
-143.924
0
LINE
8
BLACK
6
CONTINUOUS
10
152.547
20
-143.924
11
152.547
21
-143.352
0
LINE
8
BLACK
6
CONTINUOUS
10
152.547
20
-143.352
11
152.642
21
-143.162
0
LINE
8
BLACK
6
CONTINUOUS
10
152.642
20
-143.162
11
152.737
21
-143.067
0
LINE
8
BLACK
6
CONTINUOUS
10
152.737
20
-143.067
11
152.928
21
-142.971
0
LINE
8
BLACK
6
CONTINUOUS
10
152.928
20
-142.971
11
153.213
21
-142.971
0
LINE
8
BLACK
6
CONTINUOUS
10
153.213
20
-142.971
11
153.404
21
-143.067
0
LINE
8
BLACK
6
CONTINUOUS
10
153.404
20
-143.067
11
153.499
21
-143.162
0
LINE
8
BLACK
6
CONTINUOUS
10
153.499
20
-143.162
11
153.594
21
-143.352
0
LINE
8
BLACK
6
CONTINUOUS
10
153.594
20
-143.352
11
153.594
21
-143.924
0
LINE
8
BLACK
6
CONTINUOUS
10
153.594
20
-143.924
11
153.499
21
-144.114
0
LINE
8
BLACK
6
CONTINUOUS
10
153.499
20
-144.114
11
153.404
21
-144.21
0
LINE
8
BLACK
6
CONTINUOUS
10
153.404
20
-144.21
11
153.213
21
-144.305
0
LINE
8
BLACK
6
CONTINUOUS
10
153.213
20
-144.305
11
152.928
21
-144.305
0
LINE
8
BLACK
6
CONTINUOUS
10
154.737
20
-144.305
11
154.547
21
-144.21
0
LINE
8
BLACK
6
CONTINUOUS
10
154.547
20
-144.21
11
154.452
21
-144.019
0
LINE
8
BLACK
6
CONTINUOUS
10
154.452
20
-144.019
11
154.452
21
-142.305
0
LINE
8
BLACK
6
CONTINUOUS
10
156.261
20
-144.21
11
156.071
21
-144.305
0
LINE
8
BLACK
6
CONTINUOUS
10
156.071
20
-144.305
11
155.69
21
-144.305
0
LINE
8
BLACK
6
CONTINUOUS
10
155.69
20
-144.305
11
155.499
21
-144.21
0
LINE
8
BLACK
6
CONTINUOUS
10
155.499
20
-144.21
11
155.404
21
-144.019
0
LINE
8
BLACK
6
CONTINUOUS
10
155.404
20
-144.019
11
155.404
21
-143.257
0
LINE
8
BLACK
6
CONTINUOUS
10
155.404
20
-143.257
11
155.499
21
-143.067
0
LINE
8
BLACK
6
CONTINUOUS
10
155.499
20
-143.067
11
155.69
21
-142.971
0
LINE
8
BLACK
6
CONTINUOUS
10
155.69
20
-142.971
11
156.071
21
-142.971
0
LINE
8
BLACK
6
CONTINUOUS
10
156.071
20
-142.971
11
156.261
21
-143.067
0
LINE
8
BLACK
6
CONTINUOUS
10
156.261
20
-143.067
11
156.356
21
-143.257
0
LINE
8
BLACK
6
CONTINUOUS
10
156.356
20
-143.257
11
156.356
21
-143.448
0
LINE
8
BLACK
6
CONTINUOUS
10
156.356
20
-143.448
11
155.404
21
-143.638
0
LINE
8
BLACK
6
CONTINUOUS
10
157.118
20
-144.21
11
157.309
21
-144.305
0
LINE
8
BLACK
6
CONTINUOUS
10
157.309
20
-144.305
11
157.69
21
-144.305
0
LINE
8
BLACK
6
CONTINUOUS
10
157.69
20
-144.305
11
157.88
21
-144.21
0
LINE
8
BLACK
6
CONTINUOUS
10
157.88
20
-144.21
11
157.975
21
-144.019
0
LINE
8
BLACK
6
CONTINUOUS
10
157.975
20
-144.019
11
157.975
21
-143.924
0
LINE
8
BLACK
6
CONTINUOUS
10
157.975
20
-143.924
11
157.88
21
-143.733
0
LINE
8
BLACK
6
CONTINUOUS
10
157.88
20
-143.733
11
157.69
21
-143.638
0
LINE
8
BLACK
6
CONTINUOUS
10
157.69
20
-143.638
11
157.404
21
-143.638
0
LINE
8
BLACK
6
CONTINUOUS
10
157.404
20
-143.638
11
157.213
21
-143.543
0
LINE
8
BLACK
6
CONTINUOUS
10
157.213
20
-143.543
11
157.118
21
-143.352
0
LINE
8
BLACK
6
CONTINUOUS
10
157.118
20
-143.352
11
157.118
21
-143.257
0
LINE
8
BLACK
6
CONTINUOUS
10
157.118
20
-143.257
11
157.213
21
-143.067
0
LINE
8
BLACK
6
CONTINUOUS
10
157.213
20
-143.067
11
157.404
21
-142.971
0
LINE
8
BLACK
6
CONTINUOUS
10
157.404
20
-142.971
11
157.69
21
-142.971
0
LINE
8
BLACK
6
CONTINUOUS
10
157.69
20
-142.971
11
157.88
21
-143.067
0
LINE
8
BLACK
6
CONTINUOUS
10
158.642
20
-145.067
11
158.737
21
-144.971
0
LINE
8
BLACK
6
CONTINUOUS
10
158.737
20
-144.971
11
158.928
21
-144.686
0
LINE
8
BLACK
6
CONTINUOUS
10
158.928
20
-144.686
11
159.023
21
-144.495
0
LINE
8
BLACK
6
CONTINUOUS
10
159.023
20
-144.495
11
159.118
21
-144.21
0
LINE
8
BLACK
6
CONTINUOUS
10
159.118
20
-144.21
11
159.213
21
-143.733
0
LINE
8
BLACK
6
CONTINUOUS
10
159.213
20
-143.733
11
159.213
21
-143.352
0
LINE
8
BLACK
6
CONTINUOUS
10
159.213
20
-143.352
11
159.118
21
-142.876
0
LINE
8
BLACK
6
CONTINUOUS
10
159.118
20
-142.876
11
159.023
21
-142.59
0
LINE
8
BLACK
6
CONTINUOUS
10
159.023
20
-142.59
11
158.928
21
-142.4
0
LINE
8
BLACK
6
CONTINUOUS
10
158.928
20
-142.4
11
158.737
21
-142.114
0
LINE
8
BLACK
6
CONTINUOUS
10
158.737
20
-142.114
11
158.642
21
-142.019
0
LINE
8
BLACK
6
CONTINUOUS
10
109.907
20
-145.532
11
110.923
21
-146.548
0
LINE
8
BLACK
6
CONTINUOUS
10
110.923
20
-145.532
11
109.907
21
-146.548
0
CIRCLE
8
BLACK
10
110.415
20
-146.04
40
0.508
0
LINE
8
BLACK
6
CONTINUOUS
10
114.547
20
-146.945
11
113.404
21
-146.945
0
LINE
8
BLACK
6
CONTINUOUS
10
113.975
20
-146.945
11
113.975
21
-144.945
0
LINE
8
BLACK
6
CONTINUOUS
10
113.975
20
-144.945
11
113.785
21
-145.23
0
LINE
8
BLACK
6
CONTINUOUS
10
113.785
20
-145.23
11
113.594
21
-145.421
0
LINE
8
BLACK
6
CONTINUOUS
10
113.594
20
-145.421
11
113.404
21
-145.516
0
LINE
8
BLACK
6
CONTINUOUS
10
115.404
20
-146.754
11
115.499
21
-146.85
0
LINE
8
BLACK
6
CONTINUOUS
10
115.499
20
-146.85
11
115.404
21
-146.945
0
LINE
8
BLACK
6
CONTINUOUS
10
115.404
20
-146.945
11
115.309
21
-146.85
0
LINE
8
BLACK
6
CONTINUOUS
10
115.309
20
-146.85
11
115.404
21
-146.754
0
LINE
8
BLACK
6
CONTINUOUS
10
115.404
20
-146.754
11
115.404
21
-146.945
0
LINE
8
BLACK
6
CONTINUOUS
10
116.737
20
-144.945
11
116.928
21
-144.945
0
LINE
8
BLACK
6
CONTINUOUS
10
116.928
20
-144.945
11
117.118
21
-145.04
0
LINE
8
BLACK
6
CONTINUOUS
10
117.118
20
-145.04
11
117.213
21
-145.135
0
LINE
8
BLACK
6
CONTINUOUS
10
117.213
20
-145.135
11
117.309
21
-145.326
0
LINE
8
BLACK
6
CONTINUOUS
10
117.309
20
-145.326
11
117.404
21
-145.707
0
LINE
8
BLACK
6
CONTINUOUS
10
117.404
20
-145.707
11
117.404
21
-146.183
0
LINE
8
BLACK
6
CONTINUOUS
10
117.404
20
-146.183
11
117.309
21
-146.564
0
LINE
8
BLACK
6
CONTINUOUS
10
117.309
20
-146.564
11
117.213
21
-146.754
0
LINE
8
BLACK
6
CONTINUOUS
10
117.213
20
-146.754
11
117.118
21
-146.85
0
LINE
8
BLACK
6
CONTINUOUS
10
117.118
20
-146.85
11
116.928
21
-146.945
0
LINE
8
BLACK
6
CONTINUOUS
10
116.928
20
-146.945
11
116.737
21
-146.945
0
LINE
8
BLACK
6
CONTINUOUS
10
116.737
20
-146.945
11
116.547
21
-146.85
0
LINE
8
BLACK
6
CONTINUOUS
10
116.547
20
-146.85
11
116.452
21
-146.754
0
LINE
8
BLACK
6
CONTINUOUS
10
116.452
20
-146.754
11
116.356
21
-146.564
0
LINE
8
BLACK
6
CONTINUOUS
10
116.356
20
-146.564
11
116.261
21
-146.183
0
LINE
8
BLACK
6
CONTINUOUS
10
116.261
20
-146.183
11
116.261
21
-145.707
0
LINE
8
BLACK
6
CONTINUOUS
10
116.261
20
-145.707
11
116.356
21
-145.326
0
LINE
8
BLACK
6
CONTINUOUS
10
116.356
20
-145.326
11
116.452
21
-145.135
0
LINE
8
BLACK
6
CONTINUOUS
10
116.452
20
-145.135
11
116.547
21
-145.04
0
LINE
8
BLACK
6
CONTINUOUS
10
116.547
20
-145.04
11
116.737
21
-144.945
0
LINE
8
BLACK
6
CONTINUOUS
10
119.309
20
-146.945
11
118.166
21
-146.945
0
LINE
8
BLACK
6
CONTINUOUS
10
118.737
20
-146.945
11
118.737
21
-144.945
0
LINE
8
BLACK
6
CONTINUOUS
10
118.737
20
-144.945
11
118.547
21
-145.23
0
LINE
8
BLACK
6
CONTINUOUS
10
118.547
20
-145.23
11
118.356
21
-145.421
0
LINE
8
BLACK
6
CONTINUOUS
10
118.356
20
-145.421
11
118.166
21
-145.516
0
LINE
8
BLACK
6
CONTINUOUS
10
121.023
20
-144.945
11
120.642
21
-144.945
0
LINE
8
BLACK
6
CONTINUOUS
10
120.642
20
-144.945
11
120.452
21
-145.04
0
LINE
8
BLACK
6
CONTINUOUS
10
120.452
20
-145.04
11
120.356
21
-145.135
0
LINE
8
BLACK
6
CONTINUOUS
10
120.356
20
-145.135
11
120.166
21
-145.421
0
LINE
8
BLACK
6
CONTINUOUS
10
120.166
20
-145.421
11
120.071
21
-145.802
0
LINE
8
BLACK
6
CONTINUOUS
10
120.071
20
-145.802
11
120.071
21
-146.564
0
LINE
8
BLACK
6
CONTINUOUS
10
120.071
20
-146.564
11
120.166
21
-146.754
0
LINE
8
BLACK
6
CONTINUOUS
10
120.166
20
-146.754
11
120.261
21
-146.85
0
LINE
8
BLACK
6
CONTINUOUS
10
120.261
20
-146.85
11
120.452
21
-146.945
0
LINE
8
BLACK
6
CONTINUOUS
10
120.452
20
-146.945
11
120.833
21
-146.945
0
LINE
8
BLACK
6
CONTINUOUS
10
120.833
20
-146.945
11
121.023
21
-146.85
0
LINE
8
BLACK
6
CONTINUOUS
10
121.023
20
-146.85
11
121.118
21
-146.754
0
LINE
8
BLACK
6
CONTINUOUS
10
121.118
20
-146.754
11
121.213
21
-146.564
0
LINE
8
BLACK
6
CONTINUOUS
10
121.213
20
-146.564
11
121.213
21
-146.088
0
LINE
8
BLACK
6
CONTINUOUS
10
121.213
20
-146.088
11
121.118
21
-145.897
0
LINE
8
BLACK
6
CONTINUOUS
10
121.118
20
-145.897
11
121.023
21
-145.802
0
LINE
8
BLACK
6
CONTINUOUS
10
121.023
20
-145.802
11
120.833
21
-145.707
0
LINE
8
BLACK
6
CONTINUOUS
10
120.833
20
-145.707
11
120.452
21
-145.707
0
LINE
8
BLACK
6
CONTINUOUS
10
120.452
20
-145.707
11
120.261
21
-145.802
0
LINE
8
BLACK
6
CONTINUOUS
10
120.261
20
-145.802
11
120.166
21
-145.897
0
LINE
8
BLACK
6
CONTINUOUS
10
120.166
20
-145.897
11
120.071
21
-146.088
0
LINE
8
BLACK
6
CONTINUOUS
10
122.071
20
-146.945
11
122.071
21
-145.611
0
LINE
8
BLACK
6
CONTINUOUS
10
122.071
20
-145.802
11
122.166
21
-145.707
0
LINE
8
BLACK
6
CONTINUOUS
10
122.166
20
-145.707
11
122.356
21
-145.611
0
LINE
8
BLACK
6
CONTINUOUS
10
122.356
20
-145.611
11
122.642
21
-145.611
0
LINE
8
BLACK
6
CONTINUOUS
10
122.642
20
-145.611
11
122.833
21
-145.707
0
LINE
8
BLACK
6
CONTINUOUS
10
122.833
20
-145.707
11
122.928
21
-145.897
0
LINE
8
BLACK
6
CONTINUOUS
10
122.928
20
-145.897
11
122.928
21
-146.945
0
LINE
8
BLACK
6
CONTINUOUS
10
122.928
20
-145.897
11
123.023
21
-145.707
0
LINE
8
BLACK
6
CONTINUOUS
10
123.023
20
-145.707
11
123.213
21
-145.611
0
LINE
8
BLACK
6
CONTINUOUS
10
123.213
20
-145.611
11
123.499
21
-145.611
0
LINE
8
BLACK
6
CONTINUOUS
10
123.499
20
-145.611
11
123.69
21
-145.707
0
LINE
8
BLACK
6
CONTINUOUS
10
123.69
20
-145.707
11
123.785
21
-145.897
0
LINE
8
BLACK
6
CONTINUOUS
10
123.785
20
-145.897
11
123.785
21
-146.945
0
LINE
8
BLACK
6
CONTINUOUS
10
124.737
20
-146.945
11
124.737
21
-145.611
0
LINE
8
BLACK
6
CONTINUOUS
10
124.737
20
-145.802
11
124.833
21
-145.707
0
LINE
8
BLACK
6
CONTINUOUS
10
124.833
20
-145.707
11
125.023
21
-145.611
0
LINE
8
BLACK
6
CONTINUOUS
10
125.023
20
-145.611
11
125.309
21
-145.611
0
LINE
8
BLACK
6
CONTINUOUS
10
125.309
20
-145.611
11
125.499
21
-145.707
0
LINE
8
BLACK
6
CONTINUOUS
10
125.499
20
-145.707
11
125.594
21
-145.897
0
LINE
8
BLACK
6
CONTINUOUS
10
125.594
20
-145.897
11
125.594
21
-146.945
0
LINE
8
BLACK
6
CONTINUOUS
10
125.594
20
-145.897
11
125.69
21
-145.707
0
LINE
8
BLACK
6
CONTINUOUS
10
125.69
20
-145.707
11
125.88
21
-145.611
0
LINE
8
BLACK
6
CONTINUOUS
10
125.88
20
-145.611
11
126.166
21
-145.611
0
LINE
8
BLACK
6
CONTINUOUS
10
126.166
20
-145.611
11
126.356
21
-145.707
0
LINE
8
BLACK
6
CONTINUOUS
10
126.356
20
-145.707
11
126.452
21
-145.897
0
LINE
8
BLACK
6
CONTINUOUS
10
126.452
20
-145.897
11
126.452
21
-146.945
0
LINE
8
BLACK
6
CONTINUOUS
10
130.356
20
-144.85
11
128.642
21
-147.421
0
LINE
8
BLACK
6
CONTINUOUS
10
132.928
20
-144.945
11
133.118
21
-144.945
0
LINE
8
BLACK
6
CONTINUOUS
10
133.118
20
-144.945
11
133.309
21
-145.04
0
LINE
8
BLACK
6
CONTINUOUS
10
133.309
20
-145.04
11
133.404
21
-145.135
0
LINE
8
BLACK
6
CONTINUOUS
10
133.404
20
-145.135
11
133.499
21
-145.326
0
LINE
8
BLACK
6
CONTINUOUS
10
133.499
20
-145.326
11
133.594
21
-145.707
0
LINE
8
BLACK
6
CONTINUOUS
10
133.594
20
-145.707
11
133.594
21
-146.183
0
LINE
8
BLACK
6
CONTINUOUS
10
133.594
20
-146.183
11
133.499
21
-146.564
0
LINE
8
BLACK
6
CONTINUOUS
10
133.499
20
-146.564
11
133.404
21
-146.754
0
LINE
8
BLACK
6
CONTINUOUS
10
133.404
20
-146.754
11
133.309
21
-146.85
0
LINE
8
BLACK
6
CONTINUOUS
10
133.309
20
-146.85
11
133.118
21
-146.945
0
LINE
8
BLACK
6
CONTINUOUS
10
133.118
20
-146.945
11
132.928
21
-146.945
0
LINE
8
BLACK
6
CONTINUOUS
10
132.928
20
-146.945
11
132.737
21
-146.85
0
LINE
8
BLACK
6
CONTINUOUS
10
132.737
20
-146.85
11
132.642
21
-146.754
0
LINE
8
BLACK
6
CONTINUOUS
10
132.642
20
-146.754
11
132.547
21
-146.564
0
LINE
8
BLACK
6
CONTINUOUS
10
132.547
20
-146.564
11
132.452
21
-146.183
0
LINE
8
BLACK
6
CONTINUOUS
10
132.452
20
-146.183
11
132.452
21
-145.707
0
LINE
8
BLACK
6
CONTINUOUS
10
132.452
20
-145.707
11
132.547
21
-145.326
0
LINE
8
BLACK
6
CONTINUOUS
10
132.547
20
-145.326
11
132.642
21
-145.135
0
LINE
8
BLACK
6
CONTINUOUS
10
132.642
20
-145.135
11
132.737
21
-145.04
0
LINE
8
BLACK
6
CONTINUOUS
10
132.737
20
-145.04
11
132.928
21
-144.945
0
LINE
8
BLACK
6
CONTINUOUS
10
134.452
20
-146.754
11
134.547
21
-146.85
0
LINE
8
BLACK
6
CONTINUOUS
10
134.547
20
-146.85
11
134.452
21
-146.945
0
LINE
8
BLACK
6
CONTINUOUS
10
134.452
20
-146.945
11
134.356
21
-146.85
0
LINE
8
BLACK
6
CONTINUOUS
10
134.356
20
-146.85
11
134.452
21
-146.754
0
LINE
8
BLACK
6
CONTINUOUS
10
134.452
20
-146.754
11
134.452
21
-146.945
0
LINE
8
BLACK
6
CONTINUOUS
10
135.785
20
-144.945
11
135.975
21
-144.945
0
LINE
8
BLACK
6
CONTINUOUS
10
135.975
20
-144.945
11
136.166
21
-145.04
0
LINE
8
BLACK
6
CONTINUOUS
10
136.166
20
-145.04
11
136.261
21
-145.135
0
LINE
8
BLACK
6
CONTINUOUS
10
136.261
20
-145.135
11
136.356
21
-145.326
0
LINE
8
BLACK
6
CONTINUOUS
10
136.356
20
-145.326
11
136.452
21
-145.707
0
LINE
8
BLACK
6
CONTINUOUS
10
136.452
20
-145.707
11
136.452
21
-146.183
0
LINE
8
BLACK
6
CONTINUOUS
10
136.452
20
-146.183
11
136.356
21
-146.564
0
LINE
8
BLACK
6
CONTINUOUS
10
136.356
20
-146.564
11
136.261
21
-146.754
0
LINE
8
BLACK
6
CONTINUOUS
10
136.261
20
-146.754
11
136.166
21
-146.85
0
LINE
8
BLACK
6
CONTINUOUS
10
136.166
20
-146.85
11
135.975
21
-146.945
0
LINE
8
BLACK
6
CONTINUOUS
10
135.975
20
-146.945
11
135.785
21
-146.945
0
LINE
8
BLACK
6
CONTINUOUS
10
135.785
20
-146.945
11
135.594
21
-146.85
0
LINE
8
BLACK
6
CONTINUOUS
10
135.594
20
-146.85
11
135.499
21
-146.754
0
LINE
8
BLACK
6
CONTINUOUS
10
135.499
20
-146.754
11
135.404
21
-146.564
0
LINE
8
BLACK
6
CONTINUOUS
10
135.404
20
-146.564
11
135.309
21
-146.183
0
LINE
8
BLACK
6
CONTINUOUS
10
135.309
20
-146.183
11
135.309
21
-145.707
0
LINE
8
BLACK
6
CONTINUOUS
10
135.309
20
-145.707
11
135.404
21
-145.326
0
LINE
8
BLACK
6
CONTINUOUS
10
135.404
20
-145.326
11
135.499
21
-145.135
0
LINE
8
BLACK
6
CONTINUOUS
10
135.499
20
-145.135
11
135.594
21
-145.04
0
LINE
8
BLACK
6
CONTINUOUS
10
135.594
20
-145.04
11
135.785
21
-144.945
0
LINE
8
BLACK
6
CONTINUOUS
10
138.166
20
-145.611
11
138.166
21
-146.945
0
LINE
8
BLACK
6
CONTINUOUS
10
137.69
20
-144.85
11
137.213
21
-146.278
0
LINE
8
BLACK
6
CONTINUOUS
10
137.213
20
-146.278
11
138.452
21
-146.278
0
LINE
8
BLACK
6
CONTINUOUS
10
139.594
20
-144.945
11
139.785
21
-144.945
0
LINE
8
BLACK
6
CONTINUOUS
10
139.785
20
-144.945
11
139.975
21
-145.04
0
LINE
8
BLACK
6
CONTINUOUS
10
139.975
20
-145.04
11
140.071
21
-145.135
0
LINE
8
BLACK
6
CONTINUOUS
10
140.071
20
-145.135
11
140.166
21
-145.326
0
LINE
8
BLACK
6
CONTINUOUS
10
140.166
20
-145.326
11
140.261
21
-145.707
0
LINE
8
BLACK
6
CONTINUOUS
10
140.261
20
-145.707
11
140.261
21
-146.183
0
LINE
8
BLACK
6
CONTINUOUS
10
140.261
20
-146.183
11
140.166
21
-146.564
0
LINE
8
BLACK
6
CONTINUOUS
10
140.166
20
-146.564
11
140.071
21
-146.754
0
LINE
8
BLACK
6
CONTINUOUS
10
140.071
20
-146.754
11
139.975
21
-146.85
0
LINE
8
BLACK
6
CONTINUOUS
10
139.975
20
-146.85
11
139.785
21
-146.945
0
LINE
8
BLACK
6
CONTINUOUS
10
139.785
20
-146.945
11
139.594
21
-146.945
0
LINE
8
BLACK
6
CONTINUOUS
10
139.594
20
-146.945
11
139.404
21
-146.85
0
LINE
8
BLACK
6
CONTINUOUS
10
139.404
20
-146.85
11
139.309
21
-146.754
0
LINE
8
BLACK
6
CONTINUOUS
10
139.309
20
-146.754
11
139.213
21
-146.564
0
LINE
8
BLACK
6
CONTINUOUS
10
139.213
20
-146.564
11
139.118
21
-146.183
0
LINE
8
BLACK
6
CONTINUOUS
10
139.118
20
-146.183
11
139.118
21
-145.707
0
LINE
8
BLACK
6
CONTINUOUS
10
139.118
20
-145.707
11
139.213
21
-145.326
0
LINE
8
BLACK
6
CONTINUOUS
10
139.213
20
-145.326
11
139.309
21
-145.135
0
LINE
8
BLACK
6
CONTINUOUS
10
139.309
20
-145.135
11
139.404
21
-145.04
0
LINE
8
BLACK
6
CONTINUOUS
10
139.404
20
-145.04
11
139.594
21
-144.945
0
LINE
8
BLACK
6
CONTINUOUS
10
141.499
20
-144.945
11
141.69
21
-144.945
0
LINE
8
BLACK
6
CONTINUOUS
10
141.69
20
-144.945
11
141.88
21
-145.04
0
LINE
8
BLACK
6
CONTINUOUS
10
141.88
20
-145.04
11
141.975
21
-145.135
0
LINE
8
BLACK
6
CONTINUOUS
10
141.975
20
-145.135
11
142.071
21
-145.326
0
LINE
8
BLACK
6
CONTINUOUS
10
142.071
20
-145.326
11
142.166
21
-145.707
0
LINE
8
BLACK
6
CONTINUOUS
10
142.166
20
-145.707
11
142.166
21
-146.183
0
LINE
8
BLACK
6
CONTINUOUS
10
142.166
20
-146.183
11
142.071
21
-146.564
0
LINE
8
BLACK
6
CONTINUOUS
10
142.071
20
-146.564
11
141.975
21
-146.754
0
LINE
8
BLACK
6
CONTINUOUS
10
141.975
20
-146.754
11
141.88
21
-146.85
0
LINE
8
BLACK
6
CONTINUOUS
10
141.88
20
-146.85
11
141.69
21
-146.945
0
LINE
8
BLACK
6
CONTINUOUS
10
141.69
20
-146.945
11
141.499
21
-146.945
0
LINE
8
BLACK
6
CONTINUOUS
10
141.499
20
-146.945
11
141.309
21
-146.85
0
LINE
8
BLACK
6
CONTINUOUS
10
141.309
20
-146.85
11
141.213
21
-146.754
0
LINE
8
BLACK
6
CONTINUOUS
10
141.213
20
-146.754
11
141.118
21
-146.564
0
LINE
8
BLACK
6
CONTINUOUS
10
141.118
20
-146.564
11
141.023
21
-146.183
0
LINE
8
BLACK
6
CONTINUOUS
10
141.023
20
-146.183
11
141.023
21
-145.707
0
LINE
8
BLACK
6
CONTINUOUS
10
141.023
20
-145.707
11
141.118
21
-145.326
0
LINE
8
BLACK
6
CONTINUOUS
10
141.118
20
-145.326
11
141.213
21
-145.135
0
LINE
8
BLACK
6
CONTINUOUS
10
141.213
20
-145.135
11
141.309
21
-145.04
0
LINE
8
BLACK
6
CONTINUOUS
10
141.309
20
-145.04
11
141.499
21
-144.945
0
LINE
8
BLACK
6
CONTINUOUS
10
142.928
20
-144.945
11
142.928
21
-145.326
0
LINE
8
BLACK
6
CONTINUOUS
10
143.69
20
-144.945
11
143.69
21
-145.326
0
LINE
8
BLACK
6
CONTINUOUS
10
146.642
20
-147.707
11
146.547
21
-147.611
0
LINE
8
BLACK
6
CONTINUOUS
10
146.547
20
-147.611
11
146.356
21
-147.326
0
LINE
8
BLACK
6
CONTINUOUS
10
146.356
20
-147.326
11
146.261
21
-147.135
0
LINE
8
BLACK
6
CONTINUOUS
10
146.261
20
-147.135
11
146.166
21
-146.85
0
LINE
8
BLACK
6
CONTINUOUS
10
146.166
20
-146.85
11
146.071
21
-146.373
0
LINE
8
BLACK
6
CONTINUOUS
10
146.071
20
-146.373
11
146.071
21
-145.992
0
LINE
8
BLACK
6
CONTINUOUS
10
146.071
20
-145.992
11
146.166
21
-145.516
0
LINE
8
BLACK
6
CONTINUOUS
10
146.166
20
-145.516
11
146.261
21
-145.23
0
LINE
8
BLACK
6
CONTINUOUS
10
146.261
20
-145.23
11
146.356
21
-145.04
0
LINE
8
BLACK
6
CONTINUOUS
10
146.356
20
-145.04
11
146.547
21
-144.754
0
LINE
8
BLACK
6
CONTINUOUS
10
146.547
20
-144.754
11
146.642
21
-144.659
0
LINE
8
BLACK
6
CONTINUOUS
10
147.213
20
-144.945
11
148.452
21
-144.945
0
LINE
8
BLACK
6
CONTINUOUS
10
148.452
20
-144.945
11
147.785
21
-145.707
0
LINE
8
BLACK
6
CONTINUOUS
10
147.785
20
-145.707
11
148.071
21
-145.707
0
LINE
8
BLACK
6
CONTINUOUS
10
148.071
20
-145.707
11
148.261
21
-145.802
0
LINE
8
BLACK
6
CONTINUOUS
10
148.261
20
-145.802
11
148.356
21
-145.897
0
LINE
8
BLACK
6
CONTINUOUS
10
148.356
20
-145.897
11
148.452
21
-146.088
0
LINE
8
BLACK
6
CONTINUOUS
10
148.452
20
-146.088
11
148.452
21
-146.564
0
LINE
8
BLACK
6
CONTINUOUS
10
148.452
20
-146.564
11
148.356
21
-146.754
0
LINE
8
BLACK
6
CONTINUOUS
10
148.356
20
-146.754
11
148.261
21
-146.85
0
LINE
8
BLACK
6
CONTINUOUS
10
148.261
20
-146.85
11
148.071
21
-146.945
0
LINE
8
BLACK
6
CONTINUOUS
10
148.071
20
-146.945
11
147.499
21
-146.945
0
LINE
8
BLACK
6
CONTINUOUS
10
147.499
20
-146.945
11
147.309
21
-146.85
0
LINE
8
BLACK
6
CONTINUOUS
10
147.309
20
-146.85
11
147.213
21
-146.754
0
LINE
8
BLACK
6
CONTINUOUS
10
149.213
20
-145.135
11
149.309
21
-145.04
0
LINE
8
BLACK
6
CONTINUOUS
10
149.309
20
-145.04
11
149.499
21
-144.945
0
LINE
8
BLACK
6
CONTINUOUS
10
149.499
20
-144.945
11
149.975
21
-144.945
0
LINE
8
BLACK
6
CONTINUOUS
10
149.975
20
-144.945
11
150.166
21
-145.04
0
LINE
8
BLACK
6
CONTINUOUS
10
150.166
20
-145.04
11
150.261
21
-145.135
0
LINE
8
BLACK
6
CONTINUOUS
10
150.261
20
-145.135
11
150.356
21
-145.326
0
LINE
8
BLACK
6
CONTINUOUS
10
150.356
20
-145.326
11
150.356
21
-145.516
0
LINE
8
BLACK
6
CONTINUOUS
10
150.356
20
-145.516
11
150.261
21
-145.802
0
LINE
8
BLACK
6
CONTINUOUS
10
150.261
20
-145.802
11
149.118
21
-146.945
0
LINE
8
BLACK
6
CONTINUOUS
10
149.118
20
-146.945
11
150.356
21
-146.945
0
LINE
8
BLACK
6
CONTINUOUS
10
152.737
20
-146.945
11
152.737
21
-144.945
0
LINE
8
BLACK
6
CONTINUOUS
10
153.594
20
-146.945
11
153.594
21
-145.897
0
LINE
8
BLACK
6
CONTINUOUS
10
153.594
20
-145.897
11
153.499
21
-145.707
0
LINE
8
BLACK
6
CONTINUOUS
10
153.499
20
-145.707
11
153.309
21
-145.611
0
LINE
8
BLACK
6
CONTINUOUS
10
153.309
20
-145.611
11
153.023
21
-145.611
0
LINE
8
BLACK
6
CONTINUOUS
10
153.023
20
-145.611
11
152.833
21
-145.707
0
LINE
8
BLACK
6
CONTINUOUS
10
152.833
20
-145.707
11
152.737
21
-145.802
0
LINE
8
BLACK
6
CONTINUOUS
10
154.833
20
-146.945
11
154.642
21
-146.85
0
LINE
8
BLACK
6
CONTINUOUS
10
154.642
20
-146.85
11
154.547
21
-146.754
0
LINE
8
BLACK
6
CONTINUOUS
10
154.547
20
-146.754
11
154.452
21
-146.564
0
LINE
8
BLACK
6
CONTINUOUS
10
154.452
20
-146.564
11
154.452
21
-145.992
0
LINE
8
BLACK
6
CONTINUOUS
10
154.452
20
-145.992
11
154.547
21
-145.802
0
LINE
8
BLACK
6
CONTINUOUS
10
154.547
20
-145.802
11
154.642
21
-145.707
0
LINE
8
BLACK
6
CONTINUOUS
10
154.642
20
-145.707
11
154.833
21
-145.611
0
LINE
8
BLACK
6
CONTINUOUS
10
154.833
20
-145.611
11
155.118
21
-145.611
0
LINE
8
BLACK
6
CONTINUOUS
10
155.118
20
-145.611
11
155.309
21
-145.707
0
LINE
8
BLACK
6
CONTINUOUS
10
155.309
20
-145.707
11
155.404
21
-145.802
0
LINE
8
BLACK
6
CONTINUOUS
10
155.404
20
-145.802
11
155.499
21
-145.992
0
LINE
8
BLACK
6
CONTINUOUS
10
155.499
20
-145.992
11
155.499
21
-146.564
0
LINE
8
BLACK
6
CONTINUOUS
10
155.499
20
-146.564
11
155.404
21
-146.754
0
LINE
8
BLACK
6
CONTINUOUS
10
155.404
20
-146.754
11
155.309
21
-146.85
0
LINE
8
BLACK
6
CONTINUOUS
10
155.309
20
-146.85
11
155.118
21
-146.945
0
LINE
8
BLACK
6
CONTINUOUS
10
155.118
20
-146.945
11
154.833
21
-146.945
0
LINE
8
BLACK
6
CONTINUOUS
10
156.642
20
-146.945
11
156.452
21
-146.85
0
LINE
8
BLACK
6
CONTINUOUS
10
156.452
20
-146.85
11
156.356
21
-146.659
0
LINE
8
BLACK
6
CONTINUOUS
10
156.356
20
-146.659
11
156.356
21
-144.945
0
LINE
8
BLACK
6
CONTINUOUS
10
158.166
20
-146.85
11
157.975
21
-146.945
0
LINE
8
BLACK
6
CONTINUOUS
10
157.975
20
-146.945
11
157.594
21
-146.945
0
LINE
8
BLACK
6
CONTINUOUS
10
157.594
20
-146.945
11
157.404
21
-146.85
0
LINE
8
BLACK
6
CONTINUOUS
10
157.404
20
-146.85
11
157.309
21
-146.659
0
LINE
8
BLACK
6
CONTINUOUS
10
157.309
20
-146.659
11
157.309
21
-145.897
0
LINE
8
BLACK
6
CONTINUOUS
10
157.309
20
-145.897
11
157.404
21
-145.707
0
LINE
8
BLACK
6
CONTINUOUS
10
157.404
20
-145.707
11
157.594
21
-145.611
0
LINE
8
BLACK
6
CONTINUOUS
10
157.594
20
-145.611
11
157.975
21
-145.611
0
LINE
8
BLACK
6
CONTINUOUS
10
157.975
20
-145.611
11
158.166
21
-145.707
0
LINE
8
BLACK
6
CONTINUOUS
10
158.166
20
-145.707
11
158.261
21
-145.897
0
LINE
8
BLACK
6
CONTINUOUS
10
158.261
20
-145.897
11
158.261
21
-146.088
0
LINE
8
BLACK
6
CONTINUOUS
10
158.261
20
-146.088
11
157.309
21
-146.278
0
LINE
8
BLACK
6
CONTINUOUS
10
159.023
20
-146.85
11
159.213
21
-146.945
0
LINE
8
BLACK
6
CONTINUOUS
10
159.213
20
-146.945
11
159.594
21
-146.945
0
LINE
8
BLACK
6
CONTINUOUS
10
159.594
20
-146.945
11
159.785
21
-146.85
0
LINE
8
BLACK
6
CONTINUOUS
10
159.785
20
-146.85
11
159.88
21
-146.659
0
LINE
8
BLACK
6
CONTINUOUS
10
159.88
20
-146.659
11
159.88
21
-146.564
0
LINE
8
BLACK
6
CONTINUOUS
10
159.88
20
-146.564
11
159.785
21
-146.373
0
LINE
8
BLACK
6
CONTINUOUS
10
159.785
20
-146.373
11
159.594
21
-146.278
0
LINE
8
BLACK
6
CONTINUOUS
10
159.594
20
-146.278
11
159.309
21
-146.278
0
LINE
8
BLACK
6
CONTINUOUS
10
159.309
20
-146.278
11
159.118
21
-146.183
0
LINE
8
BLACK
6
CONTINUOUS
10
159.118
20
-146.183
11
159.023
21
-145.992
0
LINE
8
BLACK
6
CONTINUOUS
10
159.023
20
-145.992
11
159.023
21
-145.897
0
LINE
8
BLACK
6
CONTINUOUS
10
159.023
20
-145.897
11
159.118
21
-145.707
0
LINE
8
BLACK
6
CONTINUOUS
10
159.118
20
-145.707
11
159.309
21
-145.611
0
LINE
8
BLACK
6
CONTINUOUS
10
159.309
20
-145.611
11
159.594
21
-145.611
0
LINE
8
BLACK
6
CONTINUOUS
10
159.594
20
-145.611
11
159.785
21
-145.707
0
LINE
8
BLACK
6
CONTINUOUS
10
160.547
20
-147.707
11
160.642
21
-147.611
0
LINE
8
BLACK
6
CONTINUOUS
10
160.642
20
-147.611
11
160.833
21
-147.326
0
LINE
8
BLACK
6
CONTINUOUS
10
160.833
20
-147.326
11
160.928
21
-147.135
0
LINE
8
BLACK
6
CONTINUOUS
10
160.928
20
-147.135
11
161.023
21
-146.85
0
LINE
8
BLACK
6
CONTINUOUS
10
161.023
20
-146.85
11
161.118
21
-146.373
0
LINE
8
BLACK
6
CONTINUOUS
10
161.118
20
-146.373
11
161.118
21
-145.992
0
LINE
8
BLACK
6
CONTINUOUS
10
161.118
20
-145.992
11
161.023
21
-145.516
0
LINE
8
BLACK
6
CONTINUOUS
10
161.023
20
-145.516
11
160.928
21
-145.23
0
LINE
8
BLACK
6
CONTINUOUS
10
160.928
20
-145.23
11
160.833
21
-145.04
0
LINE
8
BLACK
6
CONTINUOUS
10
160.833
20
-145.04
11
160.642
21
-144.754
0
LINE
8
BLACK
6
CONTINUOUS
10
160.642
20
-144.754
11
160.547
21
-144.659
0
LINE
8
BLACK
6
CONTINUOUS
10
109.623
20
-148.03
11
110.923
21
-149.33
0
LINE
8
BLACK
6
CONTINUOUS
10
110.923
20
-148.03
11
109.623
21
-149.33
0
LINE
8
BLACK
6
CONTINUOUS
10
110.273
20
-148.03
11
110.273
21
-149.33
0
LINE
8
BLACK
6
CONTINUOUS
10
109.623
20
-148.68
11
110.923
21
-148.68
0
LINE
8
BLACK
6
CONTINUOUS
10
114.547
20
-149.585
11
113.404
21
-149.585
0
LINE
8
BLACK
6
CONTINUOUS
10
113.975
20
-149.585
11
113.975
21
-147.585
0
LINE
8
BLACK
6
CONTINUOUS
10
113.975
20
-147.585
11
113.785
21
-147.87
0
LINE
8
BLACK
6
CONTINUOUS
10
113.785
20
-147.87
11
113.594
21
-148.061
0
LINE
8
BLACK
6
CONTINUOUS
10
113.594
20
-148.061
11
113.404
21
-148.156
0
LINE
8
BLACK
6
CONTINUOUS
10
115.404
20
-149.394
11
115.499
21
-149.49
0
LINE
8
BLACK
6
CONTINUOUS
10
115.499
20
-149.49
11
115.404
21
-149.585
0
LINE
8
BLACK
6
CONTINUOUS
10
115.404
20
-149.585
11
115.309
21
-149.49
0
LINE
8
BLACK
6
CONTINUOUS
10
115.309
20
-149.49
11
115.404
21
-149.394
0
LINE
8
BLACK
6
CONTINUOUS
10
115.404
20
-149.394
11
115.404
21
-149.585
0
LINE
8
BLACK
6
CONTINUOUS
10
116.166
20
-147.585
11
117.404
21
-147.585
0
LINE
8
BLACK
6
CONTINUOUS
10
117.404
20
-147.585
11
116.737
21
-148.347
0
LINE
8
BLACK
6
CONTINUOUS
10
116.737
20
-148.347
11
117.023
21
-148.347
0
LINE
8
BLACK
6
CONTINUOUS
10
117.023
20
-148.347
11
117.213
21
-148.442
0
LINE
8
BLACK
6
CONTINUOUS
10
117.213
20
-148.442
11
117.309
21
-148.537
0
LINE
8
BLACK
6
CONTINUOUS
10
117.309
20
-148.537
11
117.404
21
-148.728
0
LINE
8
BLACK
6
CONTINUOUS
10
117.404
20
-148.728
11
117.404
21
-149.204
0
LINE
8
BLACK
6
CONTINUOUS
10
117.404
20
-149.204
11
117.309
21
-149.394
0
LINE
8
BLACK
6
CONTINUOUS
10
117.309
20
-149.394
11
117.213
21
-149.49
0
LINE
8
BLACK
6
CONTINUOUS
10
117.213
20
-149.49
11
117.023
21
-149.585
0
LINE
8
BLACK
6
CONTINUOUS
10
117.023
20
-149.585
11
116.452
21
-149.585
0
LINE
8
BLACK
6
CONTINUOUS
10
116.452
20
-149.585
11
116.261
21
-149.49
0
LINE
8
BLACK
6
CONTINUOUS
10
116.261
20
-149.49
11
116.166
21
-149.394
0
LINE
8
BLACK
6
CONTINUOUS
10
118.642
20
-147.585
11
118.833
21
-147.585
0
LINE
8
BLACK
6
CONTINUOUS
10
118.833
20
-147.585
11
119.023
21
-147.68
0
LINE
8
BLACK
6
CONTINUOUS
10
119.023
20
-147.68
11
119.118
21
-147.775
0
LINE
8
BLACK
6
CONTINUOUS
10
119.118
20
-147.775
11
119.213
21
-147.966
0
LINE
8
BLACK
6
CONTINUOUS
10
119.213
20
-147.966
11
119.309
21
-148.347
0
LINE
8
BLACK
6
CONTINUOUS
10
119.309
20
-148.347
11
119.309
21
-148.823
0
LINE
8
BLACK
6
CONTINUOUS
10
119.309
20
-148.823
11
119.213
21
-149.204
0
LINE
8
BLACK
6
CONTINUOUS
10
119.213
20
-149.204
11
119.118
21
-149.394
0
LINE
8
BLACK
6
CONTINUOUS
10
119.118
20
-149.394
11
119.023
21
-149.49
0
LINE
8
BLACK
6
CONTINUOUS
10
119.023
20
-149.49
11
118.833
21
-149.585
0
LINE
8
BLACK
6
CONTINUOUS
10
118.833
20
-149.585
11
118.642
21
-149.585
0
LINE
8
BLACK
6
CONTINUOUS
10
118.642
20
-149.585
11
118.452
21
-149.49
0
LINE
8
BLACK
6
CONTINUOUS
10
118.452
20
-149.49
11
118.356
21
-149.394
0
LINE
8
BLACK
6
CONTINUOUS
10
118.356
20
-149.394
11
118.261
21
-149.204
0
LINE
8
BLACK
6
CONTINUOUS
10
118.261
20
-149.204
11
118.166
21
-148.823
0
LINE
8
BLACK
6
CONTINUOUS
10
118.166
20
-148.823
11
118.166
21
-148.347
0
LINE
8
BLACK
6
CONTINUOUS
10
118.166
20
-148.347
11
118.261
21
-147.966
0
LINE
8
BLACK
6
CONTINUOUS
10
118.261
20
-147.966
11
118.356
21
-147.775
0
LINE
8
BLACK
6
CONTINUOUS
10
118.356
20
-147.775
11
118.452
21
-147.68
0
LINE
8
BLACK
6
CONTINUOUS
10
118.452
20
-147.68
11
118.642
21
-147.585
0
LINE
8
BLACK
6
CONTINUOUS
10
120.547
20
-147.585
11
120.737
21
-147.585
0
LINE
8
BLACK
6
CONTINUOUS
10
120.737
20
-147.585
11
120.928
21
-147.68
0
LINE
8
BLACK
6
CONTINUOUS
10
120.928
20
-147.68
11
121.023
21
-147.775
0
LINE
8
BLACK
6
CONTINUOUS
10
121.023
20
-147.775
11
121.118
21
-147.966
0
LINE
8
BLACK
6
CONTINUOUS
10
121.118
20
-147.966
11
121.213
21
-148.347
0
LINE
8
BLACK
6
CONTINUOUS
10
121.213
20
-148.347
11
121.213
21
-148.823
0
LINE
8
BLACK
6
CONTINUOUS
10
121.213
20
-148.823
11
121.118
21
-149.204
0
LINE
8
BLACK
6
CONTINUOUS
10
121.118
20
-149.204
11
121.023
21
-149.394
0
LINE
8
BLACK
6
CONTINUOUS
10
121.023
20
-149.394
11
120.928
21
-149.49
0
LINE
8
BLACK
6
CONTINUOUS
10
120.928
20
-149.49
11
120.737
21
-149.585
0
LINE
8
BLACK
6
CONTINUOUS
10
120.737
20
-149.585
11
120.547
21
-149.585
0
LINE
8
BLACK
6
CONTINUOUS
10
120.547
20
-149.585
11
120.356
21
-149.49
0
LINE
8
BLACK
6
CONTINUOUS
10
120.356
20
-149.49
11
120.261
21
-149.394
0
LINE
8
BLACK
6
CONTINUOUS
10
120.261
20
-149.394
11
120.166
21
-149.204
0
LINE
8
BLACK
6
CONTINUOUS
10
120.166
20
-149.204
11
120.071
21
-148.823
0
LINE
8
BLACK
6
CONTINUOUS
10
120.071
20
-148.823
11
120.071
21
-148.347
0
LINE
8
BLACK
6
CONTINUOUS
10
120.071
20
-148.347
11
120.166
21
-147.966
0
LINE
8
BLACK
6
CONTINUOUS
10
120.166
20
-147.966
11
120.261
21
-147.775
0
LINE
8
BLACK
6
CONTINUOUS
10
120.261
20
-147.775
11
120.356
21
-147.68
0
LINE
8
BLACK
6
CONTINUOUS
10
120.356
20
-147.68
11
120.547
21
-147.585
0
LINE
8
BLACK
6
CONTINUOUS
10
122.071
20
-149.585
11
122.071
21
-148.251
0
LINE
8
BLACK
6
CONTINUOUS
10
122.071
20
-148.442
11
122.166
21
-148.347
0
LINE
8
BLACK
6
CONTINUOUS
10
122.166
20
-148.347
11
122.356
21
-148.251
0
LINE
8
BLACK
6
CONTINUOUS
10
122.356
20
-148.251
11
122.642
21
-148.251
0
LINE
8
BLACK
6
CONTINUOUS
10
122.642
20
-148.251
11
122.833
21
-148.347
0
LINE
8
BLACK
6
CONTINUOUS
10
122.833
20
-148.347
11
122.928
21
-148.537
0
LINE
8
BLACK
6
CONTINUOUS
10
122.928
20
-148.537
11
122.928
21
-149.585
0
LINE
8
BLACK
6
CONTINUOUS
10
122.928
20
-148.537
11
123.023
21
-148.347
0
LINE
8
BLACK
6
CONTINUOUS
10
123.023
20
-148.347
11
123.213
21
-148.251
0
LINE
8
BLACK
6
CONTINUOUS
10
123.213
20
-148.251
11
123.499
21
-148.251
0
LINE
8
BLACK
6
CONTINUOUS
10
123.499
20
-148.251
11
123.69
21
-148.347
0
LINE
8
BLACK
6
CONTINUOUS
10
123.69
20
-148.347
11
123.785
21
-148.537
0
LINE
8
BLACK
6
CONTINUOUS
10
123.785
20
-148.537
11
123.785
21
-149.585
0
LINE
8
BLACK
6
CONTINUOUS
10
124.737
20
-149.585
11
124.737
21
-148.251
0
LINE
8
BLACK
6
CONTINUOUS
10
124.737
20
-148.442
11
124.833
21
-148.347
0
LINE
8
BLACK
6
CONTINUOUS
10
124.833
20
-148.347
11
125.023
21
-148.251
0
LINE
8
BLACK
6
CONTINUOUS
10
125.023
20
-148.251
11
125.309
21
-148.251
0
LINE
8
BLACK
6
CONTINUOUS
10
125.309
20
-148.251
11
125.499
21
-148.347
0
LINE
8
BLACK
6
CONTINUOUS
10
125.499
20
-148.347
11
125.594
21
-148.537
0
LINE
8
BLACK
6
CONTINUOUS
10
125.594
20
-148.537
11
125.594
21
-149.585
0
LINE
8
BLACK
6
CONTINUOUS
10
125.594
20
-148.537
11
125.69
21
-148.347
0
LINE
8
BLACK
6
CONTINUOUS
10
125.69
20
-148.347
11
125.88
21
-148.251
0
LINE
8
BLACK
6
CONTINUOUS
10
125.88
20
-148.251
11
126.166
21
-148.251
0
LINE
8
BLACK
6
CONTINUOUS
10
126.166
20
-148.251
11
126.356
21
-148.347
0
LINE
8
BLACK
6
CONTINUOUS
10
126.356
20
-148.347
11
126.452
21
-148.537
0
LINE
8
BLACK
6
CONTINUOUS
10
126.452
20
-148.537
11
126.452
21
-149.585
0
LINE
8
BLACK
6
CONTINUOUS
10
130.356
20
-147.49
11
128.642
21
-150.061
0
LINE
8
BLACK
6
CONTINUOUS
10
132.928
20
-147.585
11
133.118
21
-147.585
0
LINE
8
BLACK
6
CONTINUOUS
10
133.118
20
-147.585
11
133.309
21
-147.68
0
LINE
8
BLACK
6
CONTINUOUS
10
133.309
20
-147.68
11
133.404
21
-147.775
0
LINE
8
BLACK
6
CONTINUOUS
10
133.404
20
-147.775
11
133.499
21
-147.966
0
LINE
8
BLACK
6
CONTINUOUS
10
133.499
20
-147.966
11
133.594
21
-148.347
0
LINE
8
BLACK
6
CONTINUOUS
10
133.594
20
-148.347
11
133.594
21
-148.823
0
LINE
8
BLACK
6
CONTINUOUS
10
133.594
20
-148.823
11
133.499
21
-149.204
0
LINE
8
BLACK
6
CONTINUOUS
10
133.499
20
-149.204
11
133.404
21
-149.394
0
LINE
8
BLACK
6
CONTINUOUS
10
133.404
20
-149.394
11
133.309
21
-149.49
0
LINE
8
BLACK
6
CONTINUOUS
10
133.309
20
-149.49
11
133.118
21
-149.585
0
LINE
8
BLACK
6
CONTINUOUS
10
133.118
20
-149.585
11
132.928
21
-149.585
0
LINE
8
BLACK
6
CONTINUOUS
10
132.928
20
-149.585
11
132.737
21
-149.49
0
LINE
8
BLACK
6
CONTINUOUS
10
132.737
20
-149.49
11
132.642
21
-149.394
0
LINE
8
BLACK
6
CONTINUOUS
10
132.642
20
-149.394
11
132.547
21
-149.204
0
LINE
8
BLACK
6
CONTINUOUS
10
132.547
20
-149.204
11
132.452
21
-148.823
0
LINE
8
BLACK
6
CONTINUOUS
10
132.452
20
-148.823
11
132.452
21
-148.347
0
LINE
8
BLACK
6
CONTINUOUS
10
132.452
20
-148.347
11
132.547
21
-147.966
0
LINE
8
BLACK
6
CONTINUOUS
10
132.547
20
-147.966
11
132.642
21
-147.775
0
LINE
8
BLACK
6
CONTINUOUS
10
132.642
20
-147.775
11
132.737
21
-147.68
0
LINE
8
BLACK
6
CONTINUOUS
10
132.737
20
-147.68
11
132.928
21
-147.585
0
LINE
8
BLACK
6
CONTINUOUS
10
134.452
20
-149.394
11
134.547
21
-149.49
0
LINE
8
BLACK
6
CONTINUOUS
10
134.547
20
-149.49
11
134.452
21
-149.585
0
LINE
8
BLACK
6
CONTINUOUS
10
134.452
20
-149.585
11
134.356
21
-149.49
0
LINE
8
BLACK
6
CONTINUOUS
10
134.356
20
-149.49
11
134.452
21
-149.394
0
LINE
8
BLACK
6
CONTINUOUS
10
134.452
20
-149.394
11
134.452
21
-149.585
0
LINE
8
BLACK
6
CONTINUOUS
10
135.785
20
-147.585
11
135.975
21
-147.585
0
LINE
8
BLACK
6
CONTINUOUS
10
135.975
20
-147.585
11
136.166
21
-147.68
0
LINE
8
BLACK
6
CONTINUOUS
10
136.166
20
-147.68
11
136.261
21
-147.775
0
LINE
8
BLACK
6
CONTINUOUS
10
136.261
20
-147.775
11
136.356
21
-147.966
0
LINE
8
BLACK
6
CONTINUOUS
10
136.356
20
-147.966
11
136.452
21
-148.347
0
LINE
8
BLACK
6
CONTINUOUS
10
136.452
20
-148.347
11
136.452
21
-148.823
0
LINE
8
BLACK
6
CONTINUOUS
10
136.452
20
-148.823
11
136.356
21
-149.204
0
LINE
8
BLACK
6
CONTINUOUS
10
136.356
20
-149.204
11
136.261
21
-149.394
0
LINE
8
BLACK
6
CONTINUOUS
10
136.261
20
-149.394
11
136.166
21
-149.49
0
LINE
8
BLACK
6
CONTINUOUS
10
136.166
20
-149.49
11
135.975
21
-149.585
0
LINE
8
BLACK
6
CONTINUOUS
10
135.975
20
-149.585
11
135.785
21
-149.585
0
LINE
8
BLACK
6
CONTINUOUS
10
135.785
20
-149.585
11
135.594
21
-149.49
0
LINE
8
BLACK
6
CONTINUOUS
10
135.594
20
-149.49
11
135.499
21
-149.394
0
LINE
8
BLACK
6
CONTINUOUS
10
135.499
20
-149.394
11
135.404
21
-149.204
0
LINE
8
BLACK
6
CONTINUOUS
10
135.404
20
-149.204
11
135.309
21
-148.823
0
LINE
8
BLACK
6
CONTINUOUS
10
135.309
20
-148.823
11
135.309
21
-148.347
0
LINE
8
BLACK
6
CONTINUOUS
10
135.309
20
-148.347
11
135.404
21
-147.966
0
LINE
8
BLACK
6
CONTINUOUS
10
135.404
20
-147.966
11
135.499
21
-147.775
0
LINE
8
BLACK
6
CONTINUOUS
10
135.499
20
-147.775
11
135.594
21
-147.68
0
LINE
8
BLACK
6
CONTINUOUS
10
135.594
20
-147.68
11
135.785
21
-147.585
0
LINE
8
BLACK
6
CONTINUOUS
10
138.261
20
-147.585
11
137.309
21
-147.585
0
LINE
8
BLACK
6
CONTINUOUS
10
137.309
20
-147.585
11
137.213
21
-148.537
0
LINE
8
BLACK
6
CONTINUOUS
10
137.213
20
-148.537
11
137.309
21
-148.442
0
LINE
8
BLACK
6
CONTINUOUS
10
137.309
20
-148.442
11
137.499
21
-148.347
0
LINE
8
BLACK
6
CONTINUOUS
10
137.499
20
-148.347
11
137.975
21
-148.347
0
LINE
8
BLACK
6
CONTINUOUS
10
137.975
20
-148.347
11
138.166
21
-148.442
0
LINE
8
BLACK
6
CONTINUOUS
10
138.166
20
-148.442
11
138.261
21
-148.537
0
LINE
8
BLACK
6
CONTINUOUS
10
138.261
20
-148.537
11
138.356
21
-148.728
0
LINE
8
BLACK
6
CONTINUOUS
10
138.356
20
-148.728
11
138.356
21
-149.204
0
LINE
8
BLACK
6
CONTINUOUS
10
138.356
20
-149.204
11
138.261
21
-149.394
0
LINE
8
BLACK
6
CONTINUOUS
10
138.261
20
-149.394
11
138.166
21
-149.49
0
LINE
8
BLACK
6
CONTINUOUS
10
138.166
20
-149.49
11
137.975
21
-149.585
0
LINE
8
BLACK
6
CONTINUOUS
10
137.975
20
-149.585
11
137.499
21
-149.585
0
LINE
8
BLACK
6
CONTINUOUS
10
137.499
20
-149.585
11
137.309
21
-149.49
0
LINE
8
BLACK
6
CONTINUOUS
10
137.309
20
-149.49
11
137.213
21
-149.394
0
LINE
8
BLACK
6
CONTINUOUS
10
140.261
20
-149.585
11
139.118
21
-149.585
0
LINE
8
BLACK
6
CONTINUOUS
10
139.69
20
-149.585
11
139.69
21
-147.585
0
LINE
8
BLACK
6
CONTINUOUS
10
139.69
20
-147.585
11
139.499
21
-147.87
0
LINE
8
BLACK
6
CONTINUOUS
10
139.499
20
-147.87
11
139.309
21
-148.061
0
LINE
8
BLACK
6
CONTINUOUS
10
139.309
20
-148.061
11
139.118
21
-148.156
0
LINE
8
BLACK
6
CONTINUOUS
10
141.023
20
-147.775
11
141.118
21
-147.68
0
LINE
8
BLACK
6
CONTINUOUS
10
141.118
20
-147.68
11
141.309
21
-147.585
0
LINE
8
BLACK
6
CONTINUOUS
10
141.309
20
-147.585
11
141.785
21
-147.585
0
LINE
8
BLACK
6
CONTINUOUS
10
141.785
20
-147.585
11
141.975
21
-147.68
0
LINE
8
BLACK
6
CONTINUOUS
10
141.975
20
-147.68
11
142.071
21
-147.775
0
LINE
8
BLACK
6
CONTINUOUS
10
142.071
20
-147.775
11
142.166
21
-147.966
0
LINE
8
BLACK
6
CONTINUOUS
10
142.166
20
-147.966
11
142.166
21
-148.156
0
LINE
8
BLACK
6
CONTINUOUS
10
142.166
20
-148.156
11
142.071
21
-148.442
0
LINE
8
BLACK
6
CONTINUOUS
10
142.071
20
-148.442
11
140.928
21
-149.585
0
LINE
8
BLACK
6
CONTINUOUS
10
140.928
20
-149.585
11
142.166
21
-149.585
0
LINE
8
BLACK
6
CONTINUOUS
10
142.928
20
-147.585
11
142.928
21
-147.966
0
LINE
8
BLACK
6
CONTINUOUS
10
143.69
20
-147.585
11
143.69
21
-147.966
0
LINE
8
BLACK
6
CONTINUOUS
10
146.642
20
-150.347
11
146.547
21
-150.251
0
LINE
8
BLACK
6
CONTINUOUS
10
146.547
20
-150.251
11
146.356
21
-149.966
0
LINE
8
BLACK
6
CONTINUOUS
10
146.356
20
-149.966
11
146.261
21
-149.775
0
LINE
8
BLACK
6
CONTINUOUS
10
146.261
20
-149.775
11
146.166
21
-149.49
0
LINE
8
BLACK
6
CONTINUOUS
10
146.166
20
-149.49
11
146.071
21
-149.013
0
LINE
8
BLACK
6
CONTINUOUS
10
146.071
20
-149.013
11
146.071
21
-148.632
0
LINE
8
BLACK
6
CONTINUOUS
10
146.071
20
-148.632
11
146.166
21
-148.156
0
LINE
8
BLACK
6
CONTINUOUS
10
146.166
20
-148.156
11
146.261
21
-147.87
0
LINE
8
BLACK
6
CONTINUOUS
10
146.261
20
-147.87
11
146.356
21
-147.68
0
LINE
8
BLACK
6
CONTINUOUS
10
146.356
20
-147.68
11
146.547
21
-147.394
0
LINE
8
BLACK
6
CONTINUOUS
10
146.547
20
-147.394
11
146.642
21
-147.299
0
LINE
8
BLACK
6
CONTINUOUS
10
148.261
20
-148.251
11
148.261
21
-149.585
0
LINE
8
BLACK
6
CONTINUOUS
10
147.785
20
-147.49
11
147.309
21
-148.918
0
LINE
8
BLACK
6
CONTINUOUS
10
147.309
20
-148.918
11
148.547
21
-148.918
0
LINE
8
BLACK
6
CONTINUOUS
10
150.833
20
-149.585
11
150.833
21
-147.585
0
LINE
8
BLACK
6
CONTINUOUS
10
151.69
20
-149.585
11
151.69
21
-148.537
0
LINE
8
BLACK
6
CONTINUOUS
10
151.69
20
-148.537
11
151.594
21
-148.347
0
LINE
8
BLACK
6
CONTINUOUS
10
151.594
20
-148.347
11
151.404
21
-148.251
0
LINE
8
BLACK
6
CONTINUOUS
10
151.404
20
-148.251
11
151.118
21
-148.251
0
LINE
8
BLACK
6
CONTINUOUS
10
151.118
20
-148.251
11
150.928
21
-148.347
0
LINE
8
BLACK
6
CONTINUOUS
10
150.928
20
-148.347
11
150.833
21
-148.442
0
LINE
8
BLACK
6
CONTINUOUS
10
152.928
20
-149.585
11
152.737
21
-149.49
0
LINE
8
BLACK
6
CONTINUOUS
10
152.737
20
-149.49
11
152.642
21
-149.394
0
LINE
8
BLACK
6
CONTINUOUS
10
152.642
20
-149.394
11
152.547
21
-149.204
0
LINE
8
BLACK
6
CONTINUOUS
10
152.547
20
-149.204
11
152.547
21
-148.632
0
LINE
8
BLACK
6
CONTINUOUS
10
152.547
20
-148.632
11
152.642
21
-148.442
0
LINE
8
BLACK
6
CONTINUOUS
10
152.642
20
-148.442
11
152.737
21
-148.347
0
LINE
8
BLACK
6
CONTINUOUS
10
152.737
20
-148.347
11
152.928
21
-148.251
0
LINE
8
BLACK
6
CONTINUOUS
10
152.928
20
-148.251
11
153.213
21
-148.251
0
LINE
8
BLACK
6
CONTINUOUS
10
153.213
20
-148.251
11
153.404
21
-148.347
0
LINE
8
BLACK
6
CONTINUOUS
10
153.404
20
-148.347
11
153.499
21
-148.442
0
LINE
8
BLACK
6
CONTINUOUS
10
153.499
20
-148.442
11
153.594
21
-148.632
0
LINE
8
BLACK
6
CONTINUOUS
10
153.594
20
-148.632
11
153.594
21
-149.204
0
LINE
8
BLACK
6
CONTINUOUS
10
153.594
20
-149.204
11
153.499
21
-149.394
0
LINE
8
BLACK
6
CONTINUOUS
10
153.499
20
-149.394
11
153.404
21
-149.49
0
LINE
8
BLACK
6
CONTINUOUS
10
153.404
20
-149.49
11
153.213
21
-149.585
0
LINE
8
BLACK
6
CONTINUOUS
10
153.213
20
-149.585
11
152.928
21
-149.585
0
LINE
8
BLACK
6
CONTINUOUS
10
154.737
20
-149.585
11
154.547
21
-149.49
0
LINE
8
BLACK
6
CONTINUOUS
10
154.547
20
-149.49
11
154.452
21
-149.299
0
LINE
8
BLACK
6
CONTINUOUS
10
154.452
20
-149.299
11
154.452
21
-147.585
0
LINE
8
BLACK
6
CONTINUOUS
10
156.261
20
-149.49
11
156.071
21
-149.585
0
LINE
8
BLACK
6
CONTINUOUS
10
156.071
20
-149.585
11
155.69
21
-149.585
0
LINE
8
BLACK
6
CONTINUOUS
10
155.69
20
-149.585
11
155.499
21
-149.49
0
LINE
8
BLACK
6
CONTINUOUS
10
155.499
20
-149.49
11
155.404
21
-149.299
0
LINE
8
BLACK
6
CONTINUOUS
10
155.404
20
-149.299
11
155.404
21
-148.537
0
LINE
8
BLACK
6
CONTINUOUS
10
155.404
20
-148.537
11
155.499
21
-148.347
0
LINE
8
BLACK
6
CONTINUOUS
10
155.499
20
-148.347
11
155.69
21
-148.251
0
LINE
8
BLACK
6
CONTINUOUS
10
155.69
20
-148.251
11
156.071
21
-148.251
0
LINE
8
BLACK
6
CONTINUOUS
10
156.071
20
-148.251
11
156.261
21
-148.347
0
LINE
8
BLACK
6
CONTINUOUS
10
156.261
20
-148.347
11
156.356
21
-148.537
0
LINE
8
BLACK
6
CONTINUOUS
10
156.356
20
-148.537
11
156.356
21
-148.728
0
LINE
8
BLACK
6
CONTINUOUS
10
156.356
20
-148.728
11
155.404
21
-148.918
0
LINE
8
BLACK
6
CONTINUOUS
10
157.118
20
-149.49
11
157.309
21
-149.585
0
LINE
8
BLACK
6
CONTINUOUS
10
157.309
20
-149.585
11
157.69
21
-149.585
0
LINE
8
BLACK
6
CONTINUOUS
10
157.69
20
-149.585
11
157.88
21
-149.49
0
LINE
8
BLACK
6
CONTINUOUS
10
157.88
20
-149.49
11
157.975
21
-149.299
0
LINE
8
BLACK
6
CONTINUOUS
10
157.975
20
-149.299
11
157.975
21
-149.204
0
LINE
8
BLACK
6
CONTINUOUS
10
157.975
20
-149.204
11
157.88
21
-149.013
0
LINE
8
BLACK
6
CONTINUOUS
10
157.88
20
-149.013
11
157.69
21
-148.918
0
LINE
8
BLACK
6
CONTINUOUS
10
157.69
20
-148.918
11
157.404
21
-148.918
0
LINE
8
BLACK
6
CONTINUOUS
10
157.404
20
-148.918
11
157.213
21
-148.823
0
LINE
8
BLACK
6
CONTINUOUS
10
157.213
20
-148.823
11
157.118
21
-148.632
0
LINE
8
BLACK
6
CONTINUOUS
10
157.118
20
-148.632
11
157.118
21
-148.537
0
LINE
8
BLACK
6
CONTINUOUS
10
157.118
20
-148.537
11
157.213
21
-148.347
0
LINE
8
BLACK
6
CONTINUOUS
10
157.213
20
-148.347
11
157.404
21
-148.251
0
LINE
8
BLACK
6
CONTINUOUS
10
157.404
20
-148.251
11
157.69
21
-148.251
0
LINE
8
BLACK
6
CONTINUOUS
10
157.69
20
-148.251
11
157.88
21
-148.347
0
LINE
8
BLACK
6
CONTINUOUS
10
158.642
20
-150.347
11
158.737
21
-150.251
0
LINE
8
BLACK
6
CONTINUOUS
10
158.737
20
-150.251
11
158.928
21
-149.966
0
LINE
8
BLACK
6
CONTINUOUS
10
158.928
20
-149.966
11
159.023
21
-149.775
0
LINE
8
BLACK
6
CONTINUOUS
10
159.023
20
-149.775
11
159.118
21
-149.49
0
LINE
8
BLACK
6
CONTINUOUS
10
159.118
20
-149.49
11
159.213
21
-149.013
0
LINE
8
BLACK
6
CONTINUOUS
10
159.213
20
-149.013
11
159.213
21
-148.632
0
LINE
8
BLACK
6
CONTINUOUS
10
159.213
20
-148.632
11
159.118
21
-148.156
0
LINE
8
BLACK
6
CONTINUOUS
10
159.118
20
-148.156
11
159.023
21
-147.87
0
LINE
8
BLACK
6
CONTINUOUS
10
159.023
20
-147.87
11
158.928
21
-147.68
0
LINE
8
BLACK
6
CONTINUOUS
10
158.928
20
-147.68
11
158.737
21
-147.394
0
LINE
8
BLACK
6
CONTINUOUS
10
158.737
20
-147.394
11
158.642
21
-147.299
0
LINE
8
BLACK
6
CONTINUOUS
10
108.923
20
-150.32
11
110.923
21
-152.32
0
LINE
8
BLACK
6
CONTINUOUS
10
110.923
20
-150.32
11
108.923
21
-152.32
0
LINE
8
BLACK
6
CONTINUOUS
10
110.63
20
-152.027
11
110.63
21
-150.613
0
LINE
8
BLACK
6
CONTINUOUS
10
110.63
20
-150.613
11
109.216
21
-150.613
0
LINE
8
BLACK
6
CONTINUOUS
10
109.216
20
-150.613
11
109.216
21
-152.027
0
LINE
8
BLACK
6
CONTINUOUS
10
109.216
20
-152.027
11
110.63
21
-152.027
0
LINE
8
BLACK
6
CONTINUOUS
10
113.309
20
-150.225
11
114.547
21
-150.225
0
LINE
8
BLACK
6
CONTINUOUS
10
114.547
20
-150.225
11
113.88
21
-150.987
0
LINE
8
BLACK
6
CONTINUOUS
10
113.88
20
-150.987
11
114.166
21
-150.987
0
LINE
8
BLACK
6
CONTINUOUS
10
114.166
20
-150.987
11
114.356
21
-151.082
0
LINE
8
BLACK
6
CONTINUOUS
10
114.356
20
-151.082
11
114.452
21
-151.177
0
LINE
8
BLACK
6
CONTINUOUS
10
114.452
20
-151.177
11
114.547
21
-151.368
0
LINE
8
BLACK
6
CONTINUOUS
10
114.547
20
-151.368
11
114.547
21
-151.844
0
LINE
8
BLACK
6
CONTINUOUS
10
114.547
20
-151.844
11
114.452
21
-152.034
0
LINE
8
BLACK
6
CONTINUOUS
10
114.452
20
-152.034
11
114.356
21
-152.13
0
LINE
8
BLACK
6
CONTINUOUS
10
114.356
20
-152.13
11
114.166
21
-152.225
0
LINE
8
BLACK
6
CONTINUOUS
10
114.166
20
-152.225
11
113.594
21
-152.225
0
LINE
8
BLACK
6
CONTINUOUS
10
113.594
20
-152.225
11
113.404
21
-152.13
0
LINE
8
BLACK
6
CONTINUOUS
10
113.404
20
-152.13
11
113.309
21
-152.034
0
LINE
8
BLACK
6
CONTINUOUS
10
115.404
20
-152.034
11
115.499
21
-152.13
0
LINE
8
BLACK
6
CONTINUOUS
10
115.499
20
-152.13
11
115.404
21
-152.225
0
LINE
8
BLACK
6
CONTINUOUS
10
115.404
20
-152.225
11
115.309
21
-152.13
0
LINE
8
BLACK
6
CONTINUOUS
10
115.309
20
-152.13
11
115.404
21
-152.034
0
LINE
8
BLACK
6
CONTINUOUS
10
115.404
20
-152.034
11
115.404
21
-152.225
0
LINE
8
BLACK
6
CONTINUOUS
10
116.737
20
-150.225
11
116.928
21
-150.225
0
LINE
8
BLACK
6
CONTINUOUS
10
116.928
20
-150.225
11
117.118
21
-150.32
0
LINE
8
BLACK
6
CONTINUOUS
10
117.118
20
-150.32
11
117.213
21
-150.415
0
LINE
8
BLACK
6
CONTINUOUS
10
117.213
20
-150.415
11
117.309
21
-150.606
0
LINE
8
BLACK
6
CONTINUOUS
10
117.309
20
-150.606
11
117.404
21
-150.987
0
LINE
8
BLACK
6
CONTINUOUS
10
117.404
20
-150.987
11
117.404
21
-151.463
0
LINE
8
BLACK
6
CONTINUOUS
10
117.404
20
-151.463
11
117.309
21
-151.844
0
LINE
8
BLACK
6
CONTINUOUS
10
117.309
20
-151.844
11
117.213
21
-152.034
0
LINE
8
BLACK
6
CONTINUOUS
10
117.213
20
-152.034
11
117.118
21
-152.13
0
LINE
8
BLACK
6
CONTINUOUS
10
117.118
20
-152.13
11
116.928
21
-152.225
0
LINE
8
BLACK
6
CONTINUOUS
10
116.928
20
-152.225
11
116.737
21
-152.225
0
LINE
8
BLACK
6
CONTINUOUS
10
116.737
20
-152.225
11
116.547
21
-152.13
0
LINE
8
BLACK
6
CONTINUOUS
10
116.547
20
-152.13
11
116.452
21
-152.034
0
LINE
8
BLACK
6
CONTINUOUS
10
116.452
20
-152.034
11
116.356
21
-151.844
0
LINE
8
BLACK
6
CONTINUOUS
10
116.356
20
-151.844
11
116.261
21
-151.463
0
LINE
8
BLACK
6
CONTINUOUS
10
116.261
20
-151.463
11
116.261
21
-150.987
0
LINE
8
BLACK
6
CONTINUOUS
10
116.261
20
-150.987
11
116.356
21
-150.606
0
LINE
8
BLACK
6
CONTINUOUS
10
116.356
20
-150.606
11
116.452
21
-150.415
0
LINE
8
BLACK
6
CONTINUOUS
10
116.452
20
-150.415
11
116.547
21
-150.32
0
LINE
8
BLACK
6
CONTINUOUS
10
116.547
20
-150.32
11
116.737
21
-150.225
0
LINE
8
BLACK
6
CONTINUOUS
10
119.118
20
-150.891
11
119.118
21
-152.225
0
LINE
8
BLACK
6
CONTINUOUS
10
118.642
20
-150.13
11
118.166
21
-151.558
0
LINE
8
BLACK
6
CONTINUOUS
10
118.166
20
-151.558
11
119.404
21
-151.558
0
LINE
8
BLACK
6
CONTINUOUS
10
120.452
20
-151.082
11
120.261
21
-150.987
0
LINE
8
BLACK
6
CONTINUOUS
10
120.261
20
-150.987
11
120.166
21
-150.891
0
LINE
8
BLACK
6
CONTINUOUS
10
120.166
20
-150.891
11
120.071
21
-150.701
0
LINE
8
BLACK
6
CONTINUOUS
10
120.071
20
-150.701
11
120.071
21
-150.606
0
LINE
8
BLACK
6
CONTINUOUS
10
120.071
20
-150.606
11
120.166
21
-150.415
0
LINE
8
BLACK
6
CONTINUOUS
10
120.166
20
-150.415
11
120.261
21
-150.32
0
LINE
8
BLACK
6
CONTINUOUS
10
120.261
20
-150.32
11
120.452
21
-150.225
0
LINE
8
BLACK
6
CONTINUOUS
10
120.452
20
-150.225
11
120.833
21
-150.225
0
LINE
8
BLACK
6
CONTINUOUS
10
120.833
20
-150.225
11
121.023
21
-150.32
0
LINE
8
BLACK
6
CONTINUOUS
10
121.023
20
-150.32
11
121.118
21
-150.415
0
LINE
8
BLACK
6
CONTINUOUS
10
121.118
20
-150.415
11
121.213
21
-150.606
0
LINE
8
BLACK
6
CONTINUOUS
10
121.213
20
-150.606
11
121.213
21
-150.701
0
LINE
8
BLACK
6
CONTINUOUS
10
121.213
20
-150.701
11
121.118
21
-150.891
0
LINE
8
BLACK
6
CONTINUOUS
10
121.118
20
-150.891
11
121.023
21
-150.987
0
LINE
8
BLACK
6
CONTINUOUS
10
121.023
20
-150.987
11
120.833
21
-151.082
0
LINE
8
BLACK
6
CONTINUOUS
10
120.833
20
-151.082
11
120.452
21
-151.082
0
LINE
8
BLACK
6
CONTINUOUS
10
120.452
20
-151.082
11
120.261
21
-151.177
0
LINE
8
BLACK
6
CONTINUOUS
10
120.261
20
-151.177
11
120.166
21
-151.272
0
LINE
8
BLACK
6
CONTINUOUS
10
120.166
20
-151.272
11
120.071
21
-151.463
0
LINE
8
BLACK
6
CONTINUOUS
10
120.071
20
-151.463
11
120.071
21
-151.844
0
LINE
8
BLACK
6
CONTINUOUS
10
120.071
20
-151.844
11
120.166
21
-152.034
0
LINE
8
BLACK
6
CONTINUOUS
10
120.166
20
-152.034
11
120.261
21
-152.13
0
LINE
8
BLACK
6
CONTINUOUS
10
120.261
20
-152.13
11
120.452
21
-152.225
0
LINE
8
BLACK
6
CONTINUOUS
10
120.452
20
-152.225
11
120.833
21
-152.225
0
LINE
8
BLACK
6
CONTINUOUS
10
120.833
20
-152.225
11
121.023
21
-152.13
0
LINE
8
BLACK
6
CONTINUOUS
10
121.023
20
-152.13
11
121.118
21
-152.034
0
LINE
8
BLACK
6
CONTINUOUS
10
121.118
20
-152.034
11
121.213
21
-151.844
0
LINE
8
BLACK
6
CONTINUOUS
10
121.213
20
-151.844
11
121.213
21
-151.463
0
LINE
8
BLACK
6
CONTINUOUS
10
121.213
20
-151.463
11
121.118
21
-151.272
0
LINE
8
BLACK
6
CONTINUOUS
10
121.118
20
-151.272
11
121.023
21
-151.177
0
LINE
8
BLACK
6
CONTINUOUS
10
121.023
20
-151.177
11
120.833
21
-151.082
0
LINE
8
BLACK
6
CONTINUOUS
10
122.071
20
-152.225
11
122.071
21
-150.891
0
LINE
8
BLACK
6
CONTINUOUS
10
122.071
20
-151.082
11
122.166
21
-150.987
0
LINE
8
BLACK
6
CONTINUOUS
10
122.166
20
-150.987
11
122.356
21
-150.891
0
LINE
8
BLACK
6
CONTINUOUS
10
122.356
20
-150.891
11
122.642
21
-150.891
0
LINE
8
BLACK
6
CONTINUOUS
10
122.642
20
-150.891
11
122.833
21
-150.987
0
LINE
8
BLACK
6
CONTINUOUS
10
122.833
20
-150.987
11
122.928
21
-151.177
0
LINE
8
BLACK
6
CONTINUOUS
10
122.928
20
-151.177
11
122.928
21
-152.225
0
LINE
8
BLACK
6
CONTINUOUS
10
122.928
20
-151.177
11
123.023
21
-150.987
0
LINE
8
BLACK
6
CONTINUOUS
10
123.023
20
-150.987
11
123.213
21
-150.891
0
LINE
8
BLACK
6
CONTINUOUS
10
123.213
20
-150.891
11
123.499
21
-150.891
0
LINE
8
BLACK
6
CONTINUOUS
10
123.499
20
-150.891
11
123.69
21
-150.987
0
LINE
8
BLACK
6
CONTINUOUS
10
123.69
20
-150.987
11
123.785
21
-151.177
0
LINE
8
BLACK
6
CONTINUOUS
10
123.785
20
-151.177
11
123.785
21
-152.225
0
LINE
8
BLACK
6
CONTINUOUS
10
124.737
20
-152.225
11
124.737
21
-150.891
0
LINE
8
BLACK
6
CONTINUOUS
10
124.737
20
-151.082
11
124.833
21
-150.987
0
LINE
8
BLACK
6
CONTINUOUS
10
124.833
20
-150.987
11
125.023
21
-150.891
0
LINE
8
BLACK
6
CONTINUOUS
10
125.023
20
-150.891
11
125.309
21
-150.891
0
LINE
8
BLACK
6
CONTINUOUS
10
125.309
20
-150.891
11
125.499
21
-150.987
0
LINE
8
BLACK
6
CONTINUOUS
10
125.499
20
-150.987
11
125.594
21
-151.177
0
LINE
8
BLACK
6
CONTINUOUS
10
125.594
20
-151.177
11
125.594
21
-152.225
0
LINE
8
BLACK
6
CONTINUOUS
10
125.594
20
-151.177
11
125.69
21
-150.987
0
LINE
8
BLACK
6
CONTINUOUS
10
125.69
20
-150.987
11
125.88
21
-150.891
0
LINE
8
BLACK
6
CONTINUOUS
10
125.88
20
-150.891
11
126.166
21
-150.891
0
LINE
8
BLACK
6
CONTINUOUS
10
126.166
20
-150.891
11
126.356
21
-150.987
0
LINE
8
BLACK
6
CONTINUOUS
10
126.356
20
-150.987
11
126.452
21
-151.177
0
LINE
8
BLACK
6
CONTINUOUS
10
126.452
20
-151.177
11
126.452
21
-152.225
0
LINE
8
BLACK
6
CONTINUOUS
10
130.356
20
-150.13
11
128.642
21
-152.701
0
LINE
8
BLACK
6
CONTINUOUS
10
132.928
20
-150.225
11
133.118
21
-150.225
0
LINE
8
BLACK
6
CONTINUOUS
10
133.118
20
-150.225
11
133.309
21
-150.32
0
LINE
8
BLACK
6
CONTINUOUS
10
133.309
20
-150.32
11
133.404
21
-150.415
0
LINE
8
BLACK
6
CONTINUOUS
10
133.404
20
-150.415
11
133.499
21
-150.606
0
LINE
8
BLACK
6
CONTINUOUS
10
133.499
20
-150.606
11
133.594
21
-150.987
0
LINE
8
BLACK
6
CONTINUOUS
10
133.594
20
-150.987
11
133.594
21
-151.463
0
LINE
8
BLACK
6
CONTINUOUS
10
133.594
20
-151.463
11
133.499
21
-151.844
0
LINE
8
BLACK
6
CONTINUOUS
10
133.499
20
-151.844
11
133.404
21
-152.034
0
LINE
8
BLACK
6
CONTINUOUS
10
133.404
20
-152.034
11
133.309
21
-152.13
0
LINE
8
BLACK
6
CONTINUOUS
10
133.309
20
-152.13
11
133.118
21
-152.225
0
LINE
8
BLACK
6
CONTINUOUS
10
133.118
20
-152.225
11
132.928
21
-152.225
0
LINE
8
BLACK
6
CONTINUOUS
10
132.928
20
-152.225
11
132.737
21
-152.13
0
LINE
8
BLACK
6
CONTINUOUS
10
132.737
20
-152.13
11
132.642
21
-152.034
0
LINE
8
BLACK
6
CONTINUOUS
10
132.642
20
-152.034
11
132.547
21
-151.844
0
LINE
8
BLACK
6
CONTINUOUS
10
132.547
20
-151.844
11
132.452
21
-151.463
0
LINE
8
BLACK
6
CONTINUOUS
10
132.452
20
-151.463
11
132.452
21
-150.987
0
LINE
8
BLACK
6
CONTINUOUS
10
132.452
20
-150.987
11
132.547
21
-150.606
0
LINE
8
BLACK
6
CONTINUOUS
10
132.547
20
-150.606
11
132.642
21
-150.415
0
LINE
8
BLACK
6
CONTINUOUS
10
132.642
20
-150.415
11
132.737
21
-150.32
0
LINE
8
BLACK
6
CONTINUOUS
10
132.737
20
-150.32
11
132.928
21
-150.225
0
LINE
8
BLACK
6
CONTINUOUS
10
134.452
20
-152.034
11
134.547
21
-152.13
0
LINE
8
BLACK
6
CONTINUOUS
10
134.547
20
-152.13
11
134.452
21
-152.225
0
LINE
8
BLACK
6
CONTINUOUS
10
134.452
20
-152.225
11
134.356
21
-152.13
0
LINE
8
BLACK
6
CONTINUOUS
10
134.356
20
-152.13
11
134.452
21
-152.034
0
LINE
8
BLACK
6
CONTINUOUS
10
134.452
20
-152.034
11
134.452
21
-152.225
0
LINE
8
BLACK
6
CONTINUOUS
10
136.452
20
-152.225
11
135.309
21
-152.225
0
LINE
8
BLACK
6
CONTINUOUS
10
135.88
20
-152.225
11
135.88
21
-150.225
0
LINE
8
BLACK
6
CONTINUOUS
10
135.88
20
-150.225
11
135.69
21
-150.51
0
LINE
8
BLACK
6
CONTINUOUS
10
135.69
20
-150.51
11
135.499
21
-150.701
0
LINE
8
BLACK
6
CONTINUOUS
10
135.499
20
-150.701
11
135.309
21
-150.796
0
LINE
8
BLACK
6
CONTINUOUS
10
137.213
20
-150.415
11
137.309
21
-150.32
0
LINE
8
BLACK
6
CONTINUOUS
10
137.309
20
-150.32
11
137.499
21
-150.225
0
LINE
8
BLACK
6
CONTINUOUS
10
137.499
20
-150.225
11
137.975
21
-150.225
0
LINE
8
BLACK
6
CONTINUOUS
10
137.975
20
-150.225
11
138.166
21
-150.32
0
LINE
8
BLACK
6
CONTINUOUS
10
138.166
20
-150.32
11
138.261
21
-150.415
0
LINE
8
BLACK
6
CONTINUOUS
10
138.261
20
-150.415
11
138.356
21
-150.606
0
LINE
8
BLACK
6
CONTINUOUS
10
138.356
20
-150.606
11
138.356
21
-150.796
0
LINE
8
BLACK
6
CONTINUOUS
10
138.356
20
-150.796
11
138.261
21
-151.082
0
LINE
8
BLACK
6
CONTINUOUS
10
138.261
20
-151.082
11
137.118
21
-152.225
0
LINE
8
BLACK
6
CONTINUOUS
10
137.118
20
-152.225
11
138.356
21
-152.225
0
LINE
8
BLACK
6
CONTINUOUS
10
139.594
20
-150.225
11
139.785
21
-150.225
0
LINE
8
BLACK
6
CONTINUOUS
10
139.785
20
-150.225
11
139.975
21
-150.32
0
LINE
8
BLACK
6
CONTINUOUS
10
139.975
20
-150.32
11
140.071
21
-150.415
0
LINE
8
BLACK
6
CONTINUOUS
10
140.071
20
-150.415
11
140.166
21
-150.606
0
LINE
8
BLACK
6
CONTINUOUS
10
140.166
20
-150.606
11
140.261
21
-150.987
0
LINE
8
BLACK
6
CONTINUOUS
10
140.261
20
-150.987
11
140.261
21
-151.463
0
LINE
8
BLACK
6
CONTINUOUS
10
140.261
20
-151.463
11
140.166
21
-151.844
0
LINE
8
BLACK
6
CONTINUOUS
10
140.166
20
-151.844
11
140.071
21
-152.034
0
LINE
8
BLACK
6
CONTINUOUS
10
140.071
20
-152.034
11
139.975
21
-152.13
0
LINE
8
BLACK
6
CONTINUOUS
10
139.975
20
-152.13
11
139.785
21
-152.225
0
LINE
8
BLACK
6
CONTINUOUS
10
139.785
20
-152.225
11
139.594
21
-152.225
0
LINE
8
BLACK
6
CONTINUOUS
10
139.594
20
-152.225
11
139.404
21
-152.13
0
LINE
8
BLACK
6
CONTINUOUS
10
139.404
20
-152.13
11
139.309
21
-152.034
0
LINE
8
BLACK
6
CONTINUOUS
10
139.309
20
-152.034
11
139.213
21
-151.844
0
LINE
8
BLACK
6
CONTINUOUS
10
139.213
20
-151.844
11
139.118
21
-151.463
0
LINE
8
BLACK
6
CONTINUOUS
10
139.118
20
-151.463
11
139.118
21
-150.987
0
LINE
8
BLACK
6
CONTINUOUS
10
139.118
20
-150.987
11
139.213
21
-150.606
0
LINE
8
BLACK
6
CONTINUOUS
10
139.213
20
-150.606
11
139.309
21
-150.415
0
LINE
8
BLACK
6
CONTINUOUS
10
139.309
20
-150.415
11
139.404
21
-150.32
0
LINE
8
BLACK
6
CONTINUOUS
10
139.404
20
-150.32
11
139.594
21
-150.225
0
LINE
8
BLACK
6
CONTINUOUS
10
141.499
20
-150.225
11
141.69
21
-150.225
0
LINE
8
BLACK
6
CONTINUOUS
10
141.69
20
-150.225
11
141.88
21
-150.32
0
LINE
8
BLACK
6
CONTINUOUS
10
141.88
20
-150.32
11
141.975
21
-150.415
0
LINE
8
BLACK
6
CONTINUOUS
10
141.975
20
-150.415
11
142.071
21
-150.606
0
LINE
8
BLACK
6
CONTINUOUS
10
142.071
20
-150.606
11
142.166
21
-150.987
0
LINE
8
BLACK
6
CONTINUOUS
10
142.166
20
-150.987
11
142.166
21
-151.463
0
LINE
8
BLACK
6
CONTINUOUS
10
142.166
20
-151.463
11
142.071
21
-151.844
0
LINE
8
BLACK
6
CONTINUOUS
10
142.071
20
-151.844
11
141.975
21
-152.034
0
LINE
8
BLACK
6
CONTINUOUS
10
141.975
20
-152.034
11
141.88
21
-152.13
0
LINE
8
BLACK
6
CONTINUOUS
10
141.88
20
-152.13
11
141.69
21
-152.225
0
LINE
8
BLACK
6
CONTINUOUS
10
141.69
20
-152.225
11
141.499
21
-152.225
0
LINE
8
BLACK
6
CONTINUOUS
10
141.499
20
-152.225
11
141.309
21
-152.13
0
LINE
8
BLACK
6
CONTINUOUS
10
141.309
20
-152.13
11
141.213
21
-152.034
0
LINE
8
BLACK
6
CONTINUOUS
10
141.213
20
-152.034
11
141.118
21
-151.844
0
LINE
8
BLACK
6
CONTINUOUS
10
141.118
20
-151.844
11
141.023
21
-151.463
0
LINE
8
BLACK
6
CONTINUOUS
10
141.023
20
-151.463
11
141.023
21
-150.987
0
LINE
8
BLACK
6
CONTINUOUS
10
141.023
20
-150.987
11
141.118
21
-150.606
0
LINE
8
BLACK
6
CONTINUOUS
10
141.118
20
-150.606
11
141.213
21
-150.415
0
LINE
8
BLACK
6
CONTINUOUS
10
141.213
20
-150.415
11
141.309
21
-150.32
0
LINE
8
BLACK
6
CONTINUOUS
10
141.309
20
-150.32
11
141.499
21
-150.225
0
LINE
8
BLACK
6
CONTINUOUS
10
142.928
20
-150.225
11
142.928
21
-150.606
0
LINE
8
BLACK
6
CONTINUOUS
10
143.69
20
-150.225
11
143.69
21
-150.606
0
LINE
8
BLACK
6
CONTINUOUS
10
146.642
20
-152.987
11
146.547
21
-152.891
0
LINE
8
BLACK
6
CONTINUOUS
10
146.547
20
-152.891
11
146.356
21
-152.606
0
LINE
8
BLACK
6
CONTINUOUS
10
146.356
20
-152.606
11
146.261
21
-152.415
0
LINE
8
BLACK
6
CONTINUOUS
10
146.261
20
-152.415
11
146.166
21
-152.13
0
LINE
8
BLACK
6
CONTINUOUS
10
146.166
20
-152.13
11
146.071
21
-151.653
0
LINE
8
BLACK
6
CONTINUOUS
10
146.071
20
-151.653
11
146.071
21
-151.272
0
LINE
8
BLACK
6
CONTINUOUS
10
146.071
20
-151.272
11
146.166
21
-150.796
0
LINE
8
BLACK
6
CONTINUOUS
10
146.166
20
-150.796
11
146.261
21
-150.51
0
LINE
8
BLACK
6
CONTINUOUS
10
146.261
20
-150.51
11
146.356
21
-150.32
0
LINE
8
BLACK
6
CONTINUOUS
10
146.356
20
-150.32
11
146.547
21
-150.034
0
LINE
8
BLACK
6
CONTINUOUS
10
146.547
20
-150.034
11
146.642
21
-149.939
0
LINE
8
BLACK
6
CONTINUOUS
10
148.261
20
-150.891
11
148.261
21
-152.225
0
LINE
8
BLACK
6
CONTINUOUS
10
147.785
20
-150.13
11
147.309
21
-151.558
0
LINE
8
BLACK
6
CONTINUOUS
10
147.309
20
-151.558
11
148.547
21
-151.558
0
LINE
8
BLACK
6
CONTINUOUS
10
150.833
20
-152.225
11
150.833
21
-150.225
0
LINE
8
BLACK
6
CONTINUOUS
10
151.69
20
-152.225
11
151.69
21
-151.177
0
LINE
8
BLACK
6
CONTINUOUS
10
151.69
20
-151.177
11
151.594
21
-150.987
0
LINE
8
BLACK
6
CONTINUOUS
10
151.594
20
-150.987
11
151.404
21
-150.891
0
LINE
8
BLACK
6
CONTINUOUS
10
151.404
20
-150.891
11
151.118
21
-150.891
0
LINE
8
BLACK
6
CONTINUOUS
10
151.118
20
-150.891
11
150.928
21
-150.987
0
LINE
8
BLACK
6
CONTINUOUS
10
150.928
20
-150.987
11
150.833
21
-151.082
0
LINE
8
BLACK
6
CONTINUOUS
10
152.928
20
-152.225
11
152.737
21
-152.13
0
LINE
8
BLACK
6
CONTINUOUS
10
152.737
20
-152.13
11
152.642
21
-152.034
0
LINE
8
BLACK
6
CONTINUOUS
10
152.642
20
-152.034
11
152.547
21
-151.844
0
LINE
8
BLACK
6
CONTINUOUS
10
152.547
20
-151.844
11
152.547
21
-151.272
0
LINE
8
BLACK
6
CONTINUOUS
10
152.547
20
-151.272
11
152.642
21
-151.082
0
LINE
8
BLACK
6
CONTINUOUS
10
152.642
20
-151.082
11
152.737
21
-150.987
0
LINE
8
BLACK
6
CONTINUOUS
10
152.737
20
-150.987
11
152.928
21
-150.891
0
LINE
8
BLACK
6
CONTINUOUS
10
152.928
20
-150.891
11
153.213
21
-150.891
0
LINE
8
BLACK
6
CONTINUOUS
10
153.213
20
-150.891
11
153.404
21
-150.987
0
LINE
8
BLACK
6
CONTINUOUS
10
153.404
20
-150.987
11
153.499
21
-151.082
0
LINE
8
BLACK
6
CONTINUOUS
10
153.499
20
-151.082
11
153.594
21
-151.272
0
LINE
8
BLACK
6
CONTINUOUS
10
153.594
20
-151.272
11
153.594
21
-151.844
0
LINE
8
BLACK
6
CONTINUOUS
10
153.594
20
-151.844
11
153.499
21
-152.034
0
LINE
8
BLACK
6
CONTINUOUS
10
153.499
20
-152.034
11
153.404
21
-152.13
0
LINE
8
BLACK
6
CONTINUOUS
10
153.404
20
-152.13
11
153.213
21
-152.225
0
LINE
8
BLACK
6
CONTINUOUS
10
153.213
20
-152.225
11
152.928
21
-152.225
0
LINE
8
BLACK
6
CONTINUOUS
10
154.737
20
-152.225
11
154.547
21
-152.13
0
LINE
8
BLACK
6
CONTINUOUS
10
154.547
20
-152.13
11
154.452
21
-151.939
0
LINE
8
BLACK
6
CONTINUOUS
10
154.452
20
-151.939
11
154.452
21
-150.225
0
LINE
8
BLACK
6
CONTINUOUS
10
156.261
20
-152.13
11
156.071
21
-152.225
0
LINE
8
BLACK
6
CONTINUOUS
10
156.071
20
-152.225
11
155.69
21
-152.225
0
LINE
8
BLACK
6
CONTINUOUS
10
155.69
20
-152.225
11
155.499
21
-152.13
0
LINE
8
BLACK
6
CONTINUOUS
10
155.499
20
-152.13
11
155.404
21
-151.939
0
LINE
8
BLACK
6
CONTINUOUS
10
155.404
20
-151.939
11
155.404
21
-151.177
0
LINE
8
BLACK
6
CONTINUOUS
10
155.404
20
-151.177
11
155.499
21
-150.987
0
LINE
8
BLACK
6
CONTINUOUS
10
155.499
20
-150.987
11
155.69
21
-150.891
0
LINE
8
BLACK
6
CONTINUOUS
10
155.69
20
-150.891
11
156.071
21
-150.891
0
LINE
8
BLACK
6
CONTINUOUS
10
156.071
20
-150.891
11
156.261
21
-150.987
0
LINE
8
BLACK
6
CONTINUOUS
10
156.261
20
-150.987
11
156.356
21
-151.177
0
LINE
8
BLACK
6
CONTINUOUS
10
156.356
20
-151.177
11
156.356
21
-151.368
0
LINE
8
BLACK
6
CONTINUOUS
10
156.356
20
-151.368
11
155.404
21
-151.558
0
LINE
8
BLACK
6
CONTINUOUS
10
157.118
20
-152.13
11
157.309
21
-152.225
0
LINE
8
BLACK
6
CONTINUOUS
10
157.309
20
-152.225
11
157.69
21
-152.225
0
LINE
8
BLACK
6
CONTINUOUS
10
157.69
20
-152.225
11
157.88
21
-152.13
0
LINE
8
BLACK
6
CONTINUOUS
10
157.88
20
-152.13
11
157.975
21
-151.939
0
LINE
8
BLACK
6
CONTINUOUS
10
157.975
20
-151.939
11
157.975
21
-151.844
0
LINE
8
BLACK
6
CONTINUOUS
10
157.975
20
-151.844
11
157.88
21
-151.653
0
LINE
8
BLACK
6
CONTINUOUS
10
157.88
20
-151.653
11
157.69
21
-151.558
0
LINE
8
BLACK
6
CONTINUOUS
10
157.69
20
-151.558
11
157.404
21
-151.558
0
LINE
8
BLACK
6
CONTINUOUS
10
157.404
20
-151.558
11
157.213
21
-151.463
0
LINE
8
BLACK
6
CONTINUOUS
10
157.213
20
-151.463
11
157.118
21
-151.272
0
LINE
8
BLACK
6
CONTINUOUS
10
157.118
20
-151.272
11
157.118
21
-151.177
0
LINE
8
BLACK
6
CONTINUOUS
10
157.118
20
-151.177
11
157.213
21
-150.987
0
LINE
8
BLACK
6
CONTINUOUS
10
157.213
20
-150.987
11
157.404
21
-150.891
0
LINE
8
BLACK
6
CONTINUOUS
10
157.404
20
-150.891
11
157.69
21
-150.891
0
LINE
8
BLACK
6
CONTINUOUS
10
157.69
20
-150.891
11
157.88
21
-150.987
0
LINE
8
BLACK
6
CONTINUOUS
10
158.642
20
-152.987
11
158.737
21
-152.891
0
LINE
8
BLACK
6
CONTINUOUS
10
158.737
20
-152.891
11
158.928
21
-152.606
0
LINE
8
BLACK
6
CONTINUOUS
10
158.928
20
-152.606
11
159.023
21
-152.415
0
LINE
8
BLACK
6
CONTINUOUS
10
159.023
20
-152.415
11
159.118
21
-152.13
0
LINE
8
BLACK
6
CONTINUOUS
10
159.118
20
-152.13
11
159.213
21
-151.653
0
LINE
8
BLACK
6
CONTINUOUS
10
159.213
20
-151.653
11
159.213
21
-151.272
0
LINE
8
BLACK
6
CONTINUOUS
10
159.213
20
-151.272
11
159.118
21
-150.796
0
LINE
8
BLACK
6
CONTINUOUS
10
159.118
20
-150.796
11
159.023
21
-150.51
0
LINE
8
BLACK
6
CONTINUOUS
10
159.023
20
-150.51
11
158.928
21
-150.32
0
LINE
8
BLACK
6
CONTINUOUS
10
158.928
20
-150.32
11
158.737
21
-150.034
0
LINE
8
BLACK
6
CONTINUOUS
10
158.737
20
-150.034
11
158.642
21
-149.939
  0
ENDSEC
  0
EOF
