M48
; DRILL file {KiCad (6.0.5-0)} date 2022 May 22, Sunday 02:32:07
; FORMAT={-:-/ absolute / metric / decimal}
; #@! TF.CreationDate,2022-05-22T02:32:07+02:00
; #@! TF.GenerationSoftware,Kicad,Pcbnew,(6.0.5-0)
; #@! TF.FileFunction,Plated,1,2,PTH
FMAT,2
METRIC
; #@! TA.AperFunction,Plated,PTH,ComponentDrill
T1C0.800
; #@! TA.AperFunction,Plated,PTH,ComponentDrill
T2C0.900
; #@! TA.AperFunction,Plated,PTH,ComponentDrill
T3C0.950
; #@! TA.AperFunction,Plated,PTH,ViaDrill
T4C1.000
; #@! TA.AperFunction,Plated,PTH,ComponentDrill
T5C1.000
; #@! TA.AperFunction,Plated,PTH,ComponentDrill
T6C1.016
; #@! TA.AperFunction,Plated,PTH,ComponentDrill
T7C1.300
; #@! TA.AperFunction,Plated,PTH,ComponentDrill
T8C3.048
%
G90
G05
T1
X121.158Y-92.075
X121.158Y-100.965
X121.158Y-109.855
X131.318Y-92.075
X131.318Y-100.965
X131.318Y-109.855
X133.858Y-114.955
X133.858Y-117.455
X137.678Y-93.34
X137.678Y-95.88
X137.678Y-98.42
X137.678Y-100.96
X137.678Y-103.5
X137.678Y-106.04
X137.678Y-108.58
X141.478Y-83.84
X141.478Y-86.34
X142.113Y-114.955
X142.113Y-117.455
X145.298Y-93.34
X145.298Y-95.88
X145.298Y-98.42
X145.298Y-100.96
X145.298Y-103.5
X145.298Y-106.04
X145.298Y-108.58
X149.733Y-83.84
X149.733Y-86.34
X151.638Y-114.975
X151.638Y-117.475
X155.458Y-93.345
X155.458Y-95.885
X155.458Y-98.425
X155.458Y-100.965
X155.458Y-103.505
X155.458Y-106.045
X155.458Y-108.585
X159.893Y-114.955
X159.893Y-117.455
X163.078Y-93.345
X163.078Y-95.885
X163.078Y-98.425
X163.078Y-100.965
X163.078Y-103.505
X163.078Y-106.045
X163.078Y-108.585
X166.878Y-107.315
X166.878Y-117.475
X169.418Y-99.695
X169.418Y-102.195
X170.688Y-83.84
X170.688Y-86.34
X170.688Y-107.315
X170.688Y-117.475
T2
X114.808Y-92.075
X114.808Y-100.965
X114.808Y-109.855
X117.348Y-92.075
X117.348Y-100.965
X117.348Y-109.855
T3
X126.318Y-83.185
X128.818Y-83.185
X131.318Y-83.185
X176.293Y-97.215
X176.293Y-99.715
X176.293Y-102.215
X176.293Y-104.715
T4
X129.413Y-120.015
X145.288Y-111.76
X149.098Y-120.65
X151.638Y-89.535
X151.638Y-112.395
X153.543Y-83.82
X159.258Y-83.82
X164.973Y-86.36
T5
X159.273Y-80.645
X161.813Y-80.645
X164.353Y-80.645
T6
X129.794Y-75.565
X132.334Y-75.565
X134.874Y-75.565
X137.414Y-75.565
X138.938Y-123.825
X139.954Y-75.565
X141.478Y-123.825
X142.494Y-75.565
X144.018Y-123.825
X145.034Y-75.565
X146.558Y-123.825
X147.574Y-75.565
X149.098Y-123.825
X150.114Y-75.565
X151.638Y-123.825
X152.654Y-75.565
X154.178Y-123.825
X156.718Y-75.565
X156.718Y-123.825
X159.258Y-75.565
X161.798Y-75.565
X161.798Y-123.825
X164.338Y-75.565
X164.338Y-123.825
X166.878Y-75.565
X166.878Y-123.825
X169.418Y-75.565
X169.418Y-123.825
X171.958Y-75.565
X171.958Y-123.825
X174.498Y-75.565
X174.498Y-123.825
T7
X116.078Y-117.555
X116.078Y-122.555
X116.233Y-76.875
X116.233Y-81.875
T8
X124.968Y-123.825
X126.238Y-75.565
X177.038Y-90.805
X177.038Y-118.745
T0
M30
