  0
SECTION
  2
HEADER
  9
$ANGBASE
  50
0.0
  9
$ANGDIR
  70
1
  9
$MEASUREMENT
  70
0
  0
ENDSEC
  0
SECTION
  2
TABLES
  0
TABLE
  2
LTYPE
  70
4
  0
LTYPE
  5
40F
  2
CONTINUOUS
  70
0
  3
Solid line
  72
65
  73
0
  40
0.0
  0
LTYPE
  5
410
  2
DASHDOT
 70
0
  3
Dash Dot ____ _ ____ _
 72
65
 73
4
 40
2.0
 49
1.25
 49
-0.25
 49
0.25
 49
-0.25
  0
LTYPE
  5
411
  2
DASHED
 70
0
  3
Dashed __ __ __ __ __
 72
65
 73
2
 40
0.75
 49
0.5
 49
-0.25
  0
LTYPE
  5
43B
  2
DOTTED
 70
0
  3
Dotted .  .  .  .
 72
65
 73
2
 40
0.2
 49
0.0
 49
-0.2
  0
ENDTAB
  0
TABLE
  2
STYLE
  70
4
  0
STYLE
  2
KICAD
  70
0
  40
0
  41
1
  42
1
  50
0
  71
0
  3
isocp.shx
  0
STYLE
  2
KICADB
  70
0
  40
0
  41
1
  42
1
  50
0
  71
0
  3
isocp.shx
  0
STYLE
  2
KICADI
  70
0
  40
0
  41
1
  42
1
  50
15
  71
0
  3
isocp.shx
  0
STYLE
  2
KICADBI
  70
0
  40
0
  41
1
  42
1
  50
15
  71
0
  3
isocp.shx
  0
ENDTAB
  0
TABLE
  2
LAYER
  70
1
  0
LAYER
  2
BLACK
  70
0
  62
7
  6
CONTINUOUS
  0
ENDTAB
  0
ENDSEC
  0
SECTION
  2
ENTITIES
0
LINE
8
BLACK
6
CONTINUOUS
10
6.91018
20
-2.87208
11
6.91026
21
-2.87206
0
LINE
8
BLACK
6
CONTINUOUS
10
6.91026
20
-2.87206
11
6.91037
21
-2.87211
0
LINE
8
BLACK
6
CONTINUOUS
10
6.91037
20
-2.87211
11
6.91101
21
-2.87223
0
LINE
8
BLACK
6
CONTINUOUS
10
6.91101
20
-2.87223
11
6.9115
21
-2.87264
0
LINE
8
BLACK
6
CONTINUOUS
10
6.9115
20
-2.87264
11
6.91209
21
-2.87291
0
LINE
8
BLACK
6
CONTINUOUS
10
6.91209
20
-2.87291
11
6.97209
21
-2.93291
0
LINE
8
BLACK
6
CONTINUOUS
10
6.97209
20
-2.93291
11
6.97219
21
-2.93306
0
LINE
8
BLACK
6
CONTINUOUS
10
6.97219
20
-2.93306
11
6.97226
21
-2.9331
0
LINE
8
BLACK
6
CONTINUOUS
10
6.97226
20
-2.9331
11
6.97231
21
-2.93322
0
LINE
8
BLACK
6
CONTINUOUS
10
6.97231
20
-2.93322
11
6.97268
21
-2.93375
0
LINE
8
BLACK
6
CONTINUOUS
10
6.97268
20
-2.93375
11
6.97273
21
-2.93439
0
LINE
8
BLACK
6
CONTINUOUS
10
6.97273
20
-2.93439
11
6.97295
21
-2.935
0
LINE
8
BLACK
6
CONTINUOUS
10
6.97295
20
-2.935
11
6.97295
21
-3.38378
0
LINE
8
BLACK
6
CONTINUOUS
10
6.97295
20
-3.38378
11
7.07209
21
-3.48291
0
LINE
8
BLACK
6
CONTINUOUS
10
7.07209
20
-3.48291
11
7.07219
21
-3.48306
0
LINE
8
BLACK
6
CONTINUOUS
10
7.07219
20
-3.48306
11
7.07226
21
-3.4831
0
LINE
8
BLACK
6
CONTINUOUS
10
7.07226
20
-3.4831
11
7.07231
21
-3.48322
0
LINE
8
BLACK
6
CONTINUOUS
10
7.07231
20
-3.48322
11
7.07268
21
-3.48375
0
LINE
8
BLACK
6
CONTINUOUS
10
7.07268
20
-3.48375
11
7.07273
21
-3.48439
0
LINE
8
BLACK
6
CONTINUOUS
10
7.07273
20
-3.48439
11
7.07295
21
-3.485
0
LINE
8
BLACK
6
CONTINUOUS
10
7.07295
20
-3.485
11
7.07295
21
-4.775
0
LINE
8
BLACK
6
CONTINUOUS
10
7.07295
20
-4.775
11
7.07292
21
-4.77518
0
LINE
8
BLACK
6
CONTINUOUS
10
7.07292
20
-4.77518
11
7.07294
21
-4.77526
0
LINE
8
BLACK
6
CONTINUOUS
10
7.07294
20
-4.77526
11
7.07289
21
-4.77538
0
LINE
8
BLACK
6
CONTINUOUS
10
7.07289
20
-4.77538
11
7.07277
21
-4.77601
0
LINE
8
BLACK
6
CONTINUOUS
10
7.07277
20
-4.77601
11
7.07236
21
-4.7765
0
LINE
8
BLACK
6
CONTINUOUS
10
7.07236
20
-4.7765
11
7.07209
21
-4.77709
0
LINE
8
BLACK
6
CONTINUOUS
10
7.07209
20
-4.77709
11
6.97295
21
-4.87622
0
LINE
8
BLACK
6
CONTINUOUS
10
6.97295
20
-4.87622
11
6.97295
21
-4.975
0
LINE
8
BLACK
6
CONTINUOUS
10
6.97295
20
-4.975
11
6.97289
21
-4.97538
0
LINE
8
BLACK
6
CONTINUOUS
10
6.97289
20
-4.97538
11
6.97291
21
-4.97551
0
LINE
8
BLACK
6
CONTINUOUS
10
6.97291
20
-4.97551
11
6.97284
21
-4.97563
0
LINE
8
BLACK
6
CONTINUOUS
10
6.97284
20
-4.97563
11
6.97277
21
-4.97601
0
LINE
8
BLACK
6
CONTINUOUS
10
6.97277
20
-4.97601
11
6.97228
21
-4.9766
0
LINE
8
BLACK
6
CONTINUOUS
10
6.97228
20
-4.9766
11
6.9719
21
-4.97726
0
LINE
8
BLACK
6
CONTINUOUS
10
6.9719
20
-4.97726
11
6.97165
21
-4.97735
0
LINE
8
BLACK
6
CONTINUOUS
10
6.97165
20
-4.97735
11
6.97148
21
-4.97756
0
LINE
8
BLACK
6
CONTINUOUS
10
6.97148
20
-4.97756
11
6.97072
21
-4.97769
0
LINE
8
BLACK
6
CONTINUOUS
10
6.97072
20
-4.97769
11
6.97
21
-4.97795
0
LINE
8
BLACK
6
CONTINUOUS
10
6.97
20
-4.97795
11
4.37
21
-4.97795
0
LINE
8
BLACK
6
CONTINUOUS
10
4.37
20
-4.97795
11
4.36962
21
-4.97789
0
LINE
8
BLACK
6
CONTINUOUS
10
4.36962
20
-4.97789
11
4.36949
21
-4.97791
0
LINE
8
BLACK
6
CONTINUOUS
10
4.36949
20
-4.97791
11
4.36937
21
-4.97784
0
LINE
8
BLACK
6
CONTINUOUS
10
4.36937
20
-4.97784
11
4.36899
21
-4.97777
0
LINE
8
BLACK
6
CONTINUOUS
10
4.36899
20
-4.97777
11
4.3684
21
-4.97728
0
LINE
8
BLACK
6
CONTINUOUS
10
4.3684
20
-4.97728
11
4.36774
21
-4.9769
0
LINE
8
BLACK
6
CONTINUOUS
10
4.36774
20
-4.9769
11
4.36765
21
-4.97665
0
LINE
8
BLACK
6
CONTINUOUS
10
4.36765
20
-4.97665
11
4.36744
21
-4.97648
0
LINE
8
BLACK
6
CONTINUOUS
10
4.36744
20
-4.97648
11
4.36731
21
-4.97572
0
LINE
8
BLACK
6
CONTINUOUS
10
4.36731
20
-4.97572
11
4.36705
21
-4.975
0
LINE
8
BLACK
6
CONTINUOUS
10
4.36705
20
-4.975
11
4.36705
21
-2.875
0
LINE
8
BLACK
6
CONTINUOUS
10
4.36705
20
-2.875
11
4.36711
21
-2.87462
0
LINE
8
BLACK
6
CONTINUOUS
10
4.36711
20
-2.87462
11
4.36709
21
-2.87449
0
LINE
8
BLACK
6
CONTINUOUS
10
4.36709
20
-2.87449
11
4.36716
21
-2.87437
0
LINE
8
BLACK
6
CONTINUOUS
10
4.36716
20
-2.87437
11
4.36723
21
-2.87399
0
LINE
8
BLACK
6
CONTINUOUS
10
4.36723
20
-2.87399
11
4.36772
21
-2.8734
0
LINE
8
BLACK
6
CONTINUOUS
10
4.36772
20
-2.8734
11
4.3681
21
-2.87274
0
LINE
8
BLACK
6
CONTINUOUS
10
4.3681
20
-2.87274
11
4.36835
21
-2.87265
0
LINE
8
BLACK
6
CONTINUOUS
10
4.36835
20
-2.87265
11
4.36852
21
-2.87244
0
LINE
8
BLACK
6
CONTINUOUS
10
4.36852
20
-2.87244
11
4.36928
21
-2.87231
0
LINE
8
BLACK
6
CONTINUOUS
10
4.36928
20
-2.87231
11
4.37
21
-2.87205
0
LINE
8
BLACK
6
CONTINUOUS
10
4.37
20
-2.87205
11
6.91
21
-2.87205
0
LINE
8
BLACK
6
CONTINUOUS
10
6.91
20
-2.87205
11
6.91018
21
-2.87208
0
LINE
8
BLACK
6
CONTINUOUS
10
4.37295
20
-2.87795
11
4.37295
21
-4.97205
0
LINE
8
BLACK
6
CONTINUOUS
10
4.37295
20
-4.97205
11
6.96705
21
-4.97205
0
LINE
8
BLACK
6
CONTINUOUS
10
6.96705
20
-4.97205
11
6.96705
21
-4.875
0
LINE
8
BLACK
6
CONTINUOUS
10
6.96705
20
-4.875
11
6.96708
21
-4.87482
0
LINE
8
BLACK
6
CONTINUOUS
10
6.96708
20
-4.87482
11
6.96706
21
-4.87474
0
LINE
8
BLACK
6
CONTINUOUS
10
6.96706
20
-4.87474
11
6.96711
21
-4.87463
0
LINE
8
BLACK
6
CONTINUOUS
10
6.96711
20
-4.87463
11
6.96723
21
-4.87399
0
LINE
8
BLACK
6
CONTINUOUS
10
6.96723
20
-4.87399
11
6.96764
21
-4.8735
0
LINE
8
BLACK
6
CONTINUOUS
10
6.96764
20
-4.8735
11
6.96791
21
-4.87291
0
LINE
8
BLACK
6
CONTINUOUS
10
6.96791
20
-4.87291
11
7.06705
21
-4.77378
0
LINE
8
BLACK
6
CONTINUOUS
10
7.06705
20
-4.77378
11
7.06705
21
-3.48622
0
LINE
8
BLACK
6
CONTINUOUS
10
7.06705
20
-3.48622
11
6.96791
21
-3.38709
0
LINE
8
BLACK
6
CONTINUOUS
10
6.96791
20
-3.38709
11
6.96781
21
-3.38694
0
LINE
8
BLACK
6
CONTINUOUS
10
6.96781
20
-3.38694
11
6.96774
21
-3.3869
0
LINE
8
BLACK
6
CONTINUOUS
10
6.96774
20
-3.3869
11
6.96769
21
-3.38678
0
LINE
8
BLACK
6
CONTINUOUS
10
6.96769
20
-3.38678
11
6.96732
21
-3.38625
0
LINE
8
BLACK
6
CONTINUOUS
10
6.96732
20
-3.38625
11
6.96727
21
-3.38561
0
LINE
8
BLACK
6
CONTINUOUS
10
6.96727
20
-3.38561
11
6.96705
21
-3.385
0
LINE
8
BLACK
6
CONTINUOUS
10
6.96705
20
-3.385
11
6.96705
21
-2.93622
0
LINE
8
BLACK
6
CONTINUOUS
10
6.96705
20
-2.93622
11
6.90878
21
-2.87795
0
LINE
8
BLACK
6
CONTINUOUS
10
6.90878
20
-2.87795
11
4.37295
21
-2.87795
  0
ENDSEC
  0
EOF
